<?xml version="1.0" encoding="utf-8"?>
<!-- Generator: Adobe Illustrator 27.5.0, SVG Export Plug-In . SVG Version: 6.00 Build 0)  -->
<svg version="1.1" xmlns="http://www.w3.org/2000/svg" xmlns:xlink="http://www.w3.org/1999/xlink" x="0px" y="0px"
	 viewBox="0 0 499.999 500" style="enable-background:new 0 0 499.999 500;" xml:space="preserve">
<g id="BACKGROUND">
	<path style="fill:#F3F3FF;" d="M67.857,393.434c-34.521-22.723-51.687-68.66-46.943-111.104
		c2.087-18.673,7.903-36.963,7.471-55.758c-0.269-11.688-2.959-23.178-3.668-34.846c-2.726-44.824,25.781-88.049,64.358-107.584
		c38.577-19.535,84.954-17.524,124.98-1.51c15.83,6.333,31.205,14.818,48.031,16.909c28.245,3.51,55.506-11.428,83.821-14.251
		c53.328-5.316,104.572,35.778,123.624,88.267c19.052,52.489,10.098,112.714-13.315,163.227
		c-12.826,27.672-32.132,55.008-60.415,63.211c-10.027,2.908-20.56,3.196-30.964,3.184c-53.842-0.065-108.416-7.795-161.46,5.083
		C161.649,418.392,105.261,418.055,67.857,393.434z"/>
</g>
<g id="OBJECTS">
	<g>
		<g>
			<path style="fill:#D7D2FF;" d="M273.111,188.064l-5.999-18.74l-8.805,1.307c-1.168-1.6-2.456-3.09-3.847-4.462l2.761-8.528
				l-17.493-9.01l-5.442,7.338c-1.856-0.294-3.743-0.446-5.648-0.45l-4.166-8.155l-18.74,5.999l1.344,9.059
				c-1.548,1.109-2.996,2.329-4.336,3.646l-8.691-2.814l-9.01,17.493l7.2,5.339c-0.335,1.925-0.519,3.886-0.541,5.867l-7.927,4.05
				l5.999,18.74l8.564-1.271c1.196,1.715,2.529,3.309,3.976,4.774l-2.648,8.18l17.493,9.01l5.021-6.77
				c2.102,0.371,4.247,0.561,6.414,0.558l3.821,7.48l18.74-5.999l-1.233-8.308c1.766-1.256,3.402-2.657,4.898-4.179l8.019,2.596
				l9.01-17.493l-6.906-5.122c0.327-2.033,0.486-4.105,0.464-6.196L273.111,188.064z M235.083,212.784
				c-11.273,3.609-23.34-2.606-26.948-13.879c-3.609-11.273,2.606-23.34,13.879-26.948c11.273-3.609,23.339,2.606,26.948,13.879
				C252.571,197.109,246.356,209.175,235.083,212.784z"/>
			<path style="fill:#E8E6FC;" d="M257.166,189.48l-3.858-12.051l-5.662,0.84c-0.751-1.029-1.58-1.987-2.474-2.87l1.776-5.484
				l-11.249-5.794l-3.499,4.719c-1.193-0.189-2.407-0.287-3.632-0.29l-2.679-5.244l-12.051,3.858l0.864,5.825
				c-0.996,0.713-1.927,1.498-2.789,2.345l-5.589-1.81l-5.794,11.249l4.63,3.433c-0.215,1.238-0.333,2.499-0.348,3.773l-5.098,2.604
				l3.858,12.051l5.507-0.817c0.769,1.103,1.626,2.128,2.557,3.07l-1.703,5.26l11.249,5.794l3.229-4.354
				c1.352,0.238,2.731,0.361,4.125,0.359l2.457,4.81l12.051-3.857l-0.793-5.343c1.136-0.808,2.188-1.708,3.149-2.687l5.157,1.67
				l5.794-11.249l-4.441-3.294c0.21-1.307,0.312-2.64,0.299-3.984L257.166,189.48z M232.712,205.377
				c-7.249,2.321-15.009-1.676-17.329-8.925c-2.321-7.249,1.676-15.009,8.925-17.329c7.249-2.32,15.009,1.676,17.329,8.925
				C243.958,195.297,239.961,203.056,232.712,205.377z"/>
		</g>
		<g>
			<g>
				<path style="fill:#C3B7FC;" d="M194.216,218.072v-32.67l-14.585-2.391c-1.038-3.121-2.32-6.129-3.824-9.003l8.683-12.087
					l-23.101-23.101l-12.319,8.849c-2.786-1.404-5.693-2.6-8.703-3.571l-2.46-15.004h-32.67l-2.46,15.004
					c-3.009,0.971-5.917,2.167-8.703,3.571l-12.319-8.849L58.654,161.92l8.682,12.087c-1.504,2.875-2.787,5.883-3.824,9.003
					l-14.585,2.391v32.67l14.185,2.325c1.024,3.317,2.324,6.513,3.87,9.562l-8.328,11.595l23.101,23.101l11.366-8.164
					c3.136,1.65,6.432,3.037,9.86,4.129l2.256,13.762h32.67l2.256-13.762c3.428-1.092,6.724-2.479,9.859-4.129l11.366,8.164
					l23.101-23.101l-8.328-11.595c1.546-3.049,2.846-6.245,3.87-9.562L194.216,218.072z M121.572,237.912
					c-19.653,0-35.587-15.934-35.587-35.587c0-19.653,15.934-35.587,35.587-35.587c19.653,0,35.587,15.934,35.587,35.587
					C157.159,221.977,141.225,237.912,121.572,237.912z"/>
			</g>
			<g>
				<path style="fill:#D7D2FF;" d="M121.572,247.747c-25.37,0-46.01-20.64-46.01-46.01c0-25.37,20.64-46.01,46.01-46.01
					c25.37,0,46.01,20.64,46.01,46.01C167.583,227.107,146.943,247.747,121.572,247.747z M121.572,170.743
					c-17.09,0-30.993,13.904-30.993,30.993c0,17.09,13.903,30.993,30.993,30.993c17.09,0,30.993-13.904,30.993-30.993
					C152.565,184.647,138.662,170.743,121.572,170.743z"/>
			</g>
		</g>
		<g>
			<g>
				<path style="fill:#D7D2FF;" d="M428.475,224.793v-24.64l-11-1.803c-0.783-2.354-1.75-4.622-2.884-6.791l6.548-9.117
					l-17.423-17.423l-9.291,6.674c-2.101-1.059-4.294-1.961-6.564-2.693l-1.855-11.316h-24.64L359.511,169
					c-2.27,0.732-4.463,1.634-6.564,2.693l-9.291-6.674l-17.423,17.423l6.548,9.117c-1.134,2.168-2.102,4.437-2.884,6.791l-11,1.803
					v24.64l10.698,1.754c0.772,2.502,1.752,4.912,2.919,7.212l-6.281,8.745l17.423,17.423l8.572-6.158
					c2.365,1.245,4.851,2.291,7.436,3.114l1.702,10.379h24.64l1.701-10.379c2.586-0.824,5.071-1.869,7.436-3.114l8.572,6.158
					l17.423-17.423l-6.281-8.745c1.166-2.3,2.146-4.71,2.919-7.212L428.475,224.793z M373.686,239.757
					c-14.822,0-26.84-12.018-26.84-26.84s12.018-26.84,26.84-26.84c14.822,0,26.84,12.018,26.84,26.84
					S388.508,239.757,373.686,239.757z"/>
			</g>
			<g>
				<path style="fill:#C3B7FC;" d="M373.686,247.175c-19.135,0-34.702-15.567-34.702-34.702s15.567-34.702,34.702-34.702
					s34.702,15.567,34.702,34.702S392.821,247.175,373.686,247.175z M373.686,189.097c-12.889,0-23.376,10.486-23.376,23.376
					s10.486,23.376,23.376,23.376c12.889,0,23.375-10.486,23.375-23.376S386.576,189.097,373.686,189.097z"/>
			</g>
		</g>
	</g>
	<g>
		<g>
			<path style="fill:#E08675;" d="M93.24,383.866c0.788,1.454,1.694,2.854,2.724,4.197c7.905,10.271,23.13,14.12,34.933,8.961
				c0.766-0.331,1.515-0.699,2.249-1.112c1.185-0.665,2.288-1.396,3.313-2.197c9.864-7.628,12.563-20.974,11.005-33.989
				l-0.002-0.005c-0.224-1.842-0.528-3.673-0.912-5.481c-1.679-7.958-4.849-15.451-8.8-21.038c-0.426-0.605-0.866-1.198-1.322-1.783
				c-0.921-1.191-1.9-2.351-2.895-3.489c-3.181-3.618-6.639-7.045-9.673-10.711c-0.808-0.971-1.585-1.961-2.317-2.979
				c-1.777-2.452-3.305-5.057-4.393-7.921c-1.817-4.775-2.255-9.874-2.668-14.991c-0.161-1.975-0.32-3.944-0.547-5.908
				c-0.245-2.086-0.575-4.146-1.08-6.177c-1.116-4.477-3.073-8.674-5.512-12.605c-0.776-1.258-1.606-2.491-2.48-3.691
				c-0.959-1.331-1.969-2.631-3.007-3.893c-4.957-6.025-10.68-11.408-16.984-16.011c-0.003-0.005-0.003-0.005-0.003-0.005
				c-1.042-0.759-2.102-1.498-3.177-2.216l-0.003-0.005c-3.269-2.187-6.679-4.172-10.195-5.933
				c-1.243-0.629-2.503-1.223-3.772-1.794c-4.549-2.031-9.254-3.704-14.076-4.98c-1.602-0.419-3.396-0.744-5.08-0.702
				c-0.084,0-0.169,0-0.252,0.005c-1.466,0.065-2.511,1.108-2.789,2.334c-0.217,0.919-0.009,1.929,0.752,2.712
				c3.512,3.617,6.421,7.82,8.59,12.369c0.614,1.273,1.17,2.574,1.658,3.898c1.185,3.178,2.025,6.481,2.479,9.837
				c0.186,1.332,0.309,2.668,0.37,4.012c0.001,0.058,0.007,0.114,0.007,0.172c0.279,6.687-0.847,13.573-1.467,20.326
				c-0.146,1.53-0.261,3.058-0.324,4.57c-0.269,6.001,0.223,11.829,2.849,17.236c0.889,1.831,1.986,3.521,3.216,5.117
				c1.22,1.588,2.575,3.089,3.982,4.559c3.87,4.044,8.149,7.831,11.241,12.478c2.313,3.482,3.879,7.279,4.996,11.274
				c0.411,1.47,0.766,2.973,1.07,4.492c0.955,4.752,1.462,9.69,1.983,14.615c0.149,1.421,0.303,2.839,0.468,4.253
				c0.732,6.284,1.707,12.445,3.918,18.054C91.864,381.139,92.503,382.525,93.24,383.866z"/>
			<path style="fill:#DD6E5C;" d="M93.24,383.866c4.232,0.127,8.471,0.239,12.698,0.355l13.431,0.379
				c2.819,0.078,5.965,0.532,8.91,0.403c1.324,3.908,2.242,7.909,2.619,12.022c0.766-0.331,1.515-0.699,2.249-1.112
				c1.185-0.665,2.288-1.396,3.313-2.197c-0.581-3.577-1.51-7.106-2.705-10.559c1.684-1.608,2.689-4.077,3.83-6.061
				c2.156-3.762,4.31-7.529,6.441-11.305c1.143-2.024,2.294-4.045,3.439-6.064l-0.002-0.005c-0.224-1.842-0.528-3.673-0.912-5.481
				c-1.667,2.797-3.296,5.609-4.942,8.409c-2.089,3.568-4.167,7.145-6.236,10.729c-0.989,1.707-1.962,3.419-2.953,5.12
				c-0.093,0.153-0.18,0.29-0.266,0.427c-1.846-4.481-4.087-8.815-6.52-12.931c-0.919-1.557-1.879-3.088-2.855-4.612
				c1.251-1.716,1.944-4.198,2.698-5.836c1.68-3.667,3.378-7.336,5.049-11.007c1.752-3.85,3.47-7.717,5.207-11.573
				c0.232-0.516,0.465-1.032,0.697-1.548c-0.921-1.191-1.9-2.351-2.895-3.489c-2.216,4.257-3.934,8.924-5.876,13.082
				c-1.545,3.307-3.054,6.636-4.578,9.96c-0.8,1.75-1.594,3.498-2.396,5.243c-0.204,0.451-0.366,0.85-0.529,1.204
				c-3.205-4.738-6.578-9.374-9.835-14.083c1.33-1.629,2.204-3.842,3.117-5.501c1.801-3.287,3.579-6.583,5.26-9.933
				c1.77-3.54,3.501-7.094,5.165-10.682c-0.808-0.971-1.585-1.961-2.317-2.979c-0.051,0.101-0.097,0.201-0.151,0.296
				c-1.844,3.534-3.675,7.069-5.587,10.57c-1.801,3.3-3.595,6.604-5.433,9.882c-0.813,1.451-1.568,3.272-2.584,4.633
				c-3.384-5.073-6.552-10.27-9.141-15.823c-1.199-2.567-2.195-5.161-3.019-7.789c1.872-1.909,3.463-4.56,4.957-6.426
				c2.469-3.092,4.912-6.198,7.309-9.348c2.225-2.928,4.475-5.874,6.587-8.907c-0.161-1.975-0.32-3.944-0.547-5.908
				c-3.024,3.755-5.864,7.673-8.8,11.492c-2.182,2.837-4.365,5.674-6.588,8.478c-1.174,1.473-2.35,2.94-3.534,4.404
				c-0.241,0.298-0.506,0.686-0.785,1.1c-0.81-3.466-1.368-7.008-1.754-10.642c-0.189-1.766-0.36-3.535-0.542-5.299
				c0.946-0.861,1.559-2.11,2.199-3.17c1.112-1.835,2.199-3.683,3.264-5.549c1.866-3.259,3.676-6.556,5.355-9.911
				c1.599-3.188,3.157-6.41,4.593-9.686c-0.776-1.258-1.606-2.491-2.48-3.691c-0.066,0.14-0.134,0.276-0.202,0.411
				c-1.68,3.368-3.294,6.765-5.062,10.096c-1.67,3.162-3.357,6.313-5.121,9.427c-0.877,1.552-1.776,3.1-2.693,4.637
				c-0.183,0.311-0.374,0.691-0.576,1.089c-0.491-3.735-1.137-7.439-2.165-11.098c-1.734-6.171-4.207-12.11-7.324-17.694
				c0.122-0.387,0.224-0.791,0.31-1.214c0.63-3.019,1.103-6.083,1.598-9.125c0.337-2.052,0.813-4.227,1.242-6.432
				c-0.003-0.005-0.003-0.005-0.003-0.005c-1.042-0.759-2.102-1.498-3.177-2.216c-0.326,1.664-0.611,3.316-0.944,4.879
				c-0.564,2.65-1.141,5.301-1.676,7.957c-0.056,0.305-0.109,0.843-0.181,1.454c-2.465-3.802-5.25-7.393-8.309-10.742
				c0.713-2.368,0.615-5.457,0.759-7.304c0.054-0.707,0.103-1.439,0.153-2.183c-1.243-0.629-2.503-1.223-3.772-1.794
				c-0.015,0.865-0.039,1.721-0.101,2.569c-0.134,1.713-0.303,3.422-0.521,5.121c-3.936-3.819-8.231-7.228-12.92-10.105
				c-1.77-1.084-3.654-2.219-5.615-3.267c-0.084,0-0.169,0-0.252,0.005c-1.466,0.065-2.511,1.108-2.789,2.334
				c0.161,0.082,0.314,0.162,0.465,0.249c3.099,1.744,6.07,3.709,8.895,5.864c3.33,2.549,6.483,5.308,9.422,8.283
				c-3.142,0.311-6.29,0.507-9.44,0.685c0.614,1.273,1.17,2.574,1.658,3.898c2.152-0.171,4.3-0.365,6.449-0.573
				c1.407-0.136,3.154-0.056,4.612-0.495c0.959,1.09,1.894,2.197,2.791,3.348c1.895,2.411,3.643,4.942,5.239,7.567
				c-0.079-0.016-0.161-0.024-0.221-0.029c-5.398-0.388-10.92-0.42-16.39,0.018c0.186,1.332,0.309,2.668,0.37,4.012
				c0.001,0.058,0.007,0.114,0.007,0.172c1.463-0.142,2.936-0.249,4.415-0.313c3.019-0.138,6.05-0.15,9.066-0.039
				c1.522,0.059,3.437,0.478,5.114,0.336c3.944,7.464,6.661,15.559,7.87,23.94c0.221,1.538,0.392,3.078,0.544,4.621
				c-1.09-0.308-2.207-0.773-2.99-0.994c-1.863-0.52-3.727-1.041-5.595-1.559c-3.546-0.987-7.095-1.979-10.641-2.966
				c-3.064-0.857-6.148-1.801-9.25-2.698c-0.146,1.53-0.261,3.058-0.324,4.57c4.025,1.08,8.076,2.064,12.026,3.166
				c4.107,1.147,8.214,2.294,12.318,3.436c1.365,0.384,3.118,1.118,4.854,1.514c0.378,4.626,0.707,9.261,1.536,13.837
				c0.26,1.422,0.57,2.828,0.924,4.227c-1.112-0.214-2.258-0.587-2.991-0.727c-1.783-0.33-3.571-0.644-5.361-0.932
				c-3.402-0.559-6.818-1.033-10.239-1.434c-2.317-0.274-4.65-0.528-7.001-0.735c1.22,1.588,2.575,3.089,3.982,4.559
				c1.943,0.198,3.891,0.42,5.84,0.687c3.78,0.516,7.537,1.127,11.284,1.827c1.699,0.316,3.818,1.071,5.778,1.19
				c1.576,4.787,3.661,9.407,6.081,13.835c1.539,2.827,3.266,5.653,5.106,8.486c-5.87-1.277-11.857-2.014-17.852-2.272
				c0.411,1.47,0.766,2.973,1.07,4.492c0.658,0.031,1.318,0.068,1.978,0.117c3.783,0.281,7.542,0.754,11.28,1.406
				c2.102,0.36,4.574,1.2,6.881,1.284c3.061,4.479,6.287,8.993,9.387,13.585c-2.856-0.132-5.748-0.469-8.563-0.626
				c-3.692-0.211-7.39-0.421-11.082-0.632c-2.625-0.153-5.26-0.341-7.897-0.52c0.149,1.421,0.303,2.839,0.468,4.253
				c3.321,0.154,6.641,0.276,9.939,0.465c4.276,0.251,8.557,0.499,12.83,0.744c1.944,0.113,3.893,0.224,5.837,0.337
				c0.388,0.024,0.789,0.062,1.195,0.097c3.708,5.738,7.085,11.607,9.584,17.689c-0.006,0.003-0.013,0-0.019,0.002
				c-7.984-0.24-15.962-0.483-23.941-0.726c-3.791-0.114-7.648-0.387-11.508-0.554C91.864,381.139,92.503,382.525,93.24,383.866z"/>
		</g>
		<g>
			<path style="fill:#EFC45E;" d="M125.431,374.58c-0.39,6.674-2.585,14.004-6.34,20.23c-0.557,0.924-1.146,1.822-1.772,2.69
				c-3.354,4.669-7.679,8.468-12.854,10.51c-14.191,5.596-30.263,5.794-44.034-1.157c-3.15-1.592-6.384-4.236-7.782-7.286
				c-0.521-1.133-0.787-2.322-0.703-3.532c0.045-0.611,0.18-1.227,0.415-1.846c0.563-1.478,1.664-2.695,2.879-3.71
				c2.696-2.251,6.082-3.665,9.578-3.995c-11.865-1.278-24.453-4.57-32.06-13.766c-1.229-1.485-2.325-3.247-2.752-5.09
				c-0.233-0.99-0.269-2.005-0.029-3.014c0.038-0.158,0.083-0.316,0.135-0.465c0.819-2.493,3.279-4.245,5.852-4.893
				c2.732-0.689,5.602-0.367,8.4-0.04c-11.692-5.097-20.593-16.161-23.07-28.675c-0.68-3.432-0.652-7.424,0.848-10.427
				c0.487-0.982,1.133-1.861,1.96-2.576c0.357-0.306,0.744-0.586,1.168-0.829c3.352-1.934,7.587-0.954,11.216,0.389
				c8.987,3.327,17.247,8.601,24.05,15.35c-1.146-3.282-1.462-6.958-0.265-10.221c1.196-3.266,4.073-6.013,7.52-6.478
				c0.08-0.009,0.161-0.019,0.242-0.026c1.372-0.149,2.701,0.05,3.977,0.49c3.02,1.047,5.735,3.459,8.002,5.854
				c7.112,7.521,13.124,16.081,17.782,25.322c0.871-2.376,1.775-4.808,3.448-6.707c0.868-0.986,2.002-1.8,3.231-2.264
				c1.074-0.402,2.221-0.537,3.331-0.279c0.064,0.016,0.128,0.031,0.189,0.048c1.396,0.383,2.558,1.329,3.625,2.307
				C120.957,349.056,126.174,361.931,125.431,374.58z"/>
			<path style="fill:#F7E5BD;" d="M105.566,387.896c4.409,2.494,8.919,4.81,13.526,6.914c3.524,1.611,7.104,3.098,10.746,4.447
				c1.924,0.712,1.011,3.773-0.919,3.057c-3.928-1.457-7.795-3.065-11.599-4.815c-5.13-2.353-10.141-4.963-15.029-7.791
				c-3.348,2.589-6.951,4.812-10.805,6.572c-12.076,5.512-26.036,6.766-38.837,3.288c-0.521-1.133-0.787-2.322-0.703-3.532
				c15.935,4.816,33.971,1.876,47.389-8.075c-9.157-5.518-17.85-11.762-26.164-18.482c-13.953,5.002-29.703,4.216-43.166-1.85
				c-0.233-0.99-0.269-2.005-0.029-3.014c0.038-0.158,0.083-0.316,0.135-0.465c12.424,5.981,26.957,7.047,40.156,2.951
				c-4.092-3.399-8.096-6.904-12.012-10.491c-12.631-11.566-24.433-23.983-36.115-36.495c0.487-0.982,1.133-1.861,1.96-2.576
				c5.907,6.325,11.839,12.623,17.892,18.809c11.161,11.399,22.761,22.429,35.275,32.337c2.035-9.307,0.446-19.122-0.897-28.424
				c-1.26-8.741-3.903-17.043-8.339-24.537c1.372-0.149,2.701,0.05,3.977,0.49c0.834,1.513,1.607,3.062,2.311,4.646
				c3.713,8.358,5.046,17.162,6.159,26.165c0.978,7.925,1.552,16.001-0.45,23.814c1.287,0.992,2.581,1.977,3.89,2.941
				c6.074,4.488,12.372,8.697,18.885,12.523c1.83-3.731,3.24-7.651,4.22-11.693c2.908-11.979,1.976-24.779-2.553-36.192
				c1.074-0.402,2.221-0.537,3.331-0.279c0.282,0.741,0.549,1.49,0.804,2.241C113.83,355.845,112.757,373.247,105.566,387.896z"/>
		</g>
		<g>
			<path style="fill:#5F5EA5;" d="M406.65,387.509c-0.872,1.469-1.865,2.878-2.982,4.223c-8.576,10.284-24.45,13.644-36.428,7.84
				c-0.778-0.372-1.536-0.782-2.277-1.239c-1.197-0.734-2.306-1.534-3.332-2.402c-9.875-8.274-12.123-22.162-9.989-35.535
				l0.003-0.005c0.306-1.892,0.693-3.771,1.162-5.622c2.055-8.149,5.63-15.756,9.935-21.365c0.464-0.607,0.942-1.202,1.436-1.787
				c1-1.193,2.056-2.35,3.129-3.485c3.431-3.607,7.139-7.005,10.419-10.667c0.873-0.969,1.716-1.961,2.513-2.982
				c1.934-2.46,3.617-5.087,4.855-8.001c2.069-4.856,2.727-10.103,3.36-15.369c0.246-2.032,0.489-4.059,0.803-6.077
				c0.337-2.144,0.761-4.257,1.365-6.334c1.333-4.577,3.523-8.831,6.2-12.791c0.852-1.267,1.759-2.507,2.71-3.711
				c1.044-1.335,2.139-2.636,3.262-3.897c5.361-6.02,11.488-11.346,18.182-15.844c0.003-0.005,0.003-0.005,0.003-0.005
				c1.107-0.742,2.23-1.461,3.37-2.159l0.003-0.005c3.463-2.126,7.064-4.038,10.766-5.714c1.309-0.599,2.633-1.162,3.967-1.7
				c4.779-1.913,9.704-3.451,14.734-4.572c1.671-0.368,3.536-0.631,5.273-0.52c0.087,0.003,0.175,0.006,0.259,0.015
				c1.511,0.126,2.547,1.245,2.785,2.523c0.188,0.957-0.068,1.992-0.886,2.77c-3.772,3.592-6.945,7.815-9.369,12.423
				c-0.686,1.29-1.311,2.61-1.869,3.958c-1.352,3.233-2.352,6.609-2.956,10.055c-0.246,1.368-0.426,2.742-0.544,4.127
				c-0.003,0.06-0.012,0.117-0.015,0.177c-0.558,6.892,0.326,14.047,0.694,21.044c0.089,1.585,0.145,3.168,0.15,4.731
				c0.035,6.206-0.708,12.204-3.638,17.68c-0.991,1.854-2.192,3.555-3.527,5.153c-1.323,1.591-2.783,3.085-4.295,4.546
				c-4.159,4.019-8.73,7.755-12.11,12.428c-2.528,3.501-4.298,7.358-5.613,11.438c-0.484,1.501-0.911,3.038-1.286,4.594
				c-1.178,4.868-1.901,9.945-2.638,15.008c-0.211,1.461-0.427,2.919-0.655,4.372c-1.01,6.459-2.265,12.78-4.775,18.481
				C408.181,384.75,407.465,386.154,406.65,387.509z"/>
			<path style="fill:#8690F1;" d="M406.65,387.509c-4.375-0.04-8.755-0.096-13.125-0.146l-13.881-0.152
				c-2.913-0.034-6.18,0.308-9.215,0.056c-1.525,3.981-2.634,8.076-3.189,12.306c-0.778-0.372-1.536-0.782-2.277-1.239
				c-1.197-0.734-2.306-1.534-3.332-2.402c0.744-3.67,1.846-7.275,3.219-10.792c-1.674-1.728-2.611-4.317-3.71-6.412
				c-2.074-3.971-4.146-7.947-6.193-11.932c-1.098-2.136-2.205-4.269-3.306-6.4l0.003-0.005c0.306-1.892,0.693-3.771,1.162-5.622
				c1.608,2.955,3.176,5.924,4.763,8.882c2.012,3.768,4.014,7.545,6.004,11.329c0.952,1.802,1.887,3.609,2.842,5.406
				c0.09,0.161,0.174,0.307,0.258,0.452c2.087-4.552,4.575-8.936,7.254-13.087c1.012-1.57,2.065-3.112,3.134-4.647
				c-1.223-1.822-1.838-4.413-2.549-6.134c-1.586-3.854-3.191-7.711-4.768-11.568c-1.653-4.046-3.271-8.107-4.908-12.158
				c-0.219-0.542-0.438-1.084-0.658-1.626c1-1.193,2.056-2.35,3.129-3.485c2.116,4.485,3.7,9.372,5.538,13.743
				c1.461,3.476,2.885,6.974,4.324,10.467c0.755,1.84,1.505,3.676,2.262,5.51c0.192,0.474,0.344,0.892,0.498,1.265
				c3.501-4.763,7.17-9.412,10.723-14.142c-1.307-1.735-2.121-4.055-2.996-5.805c-1.727-3.466-3.429-6.941-5.029-10.467
				c-1.685-3.726-3.328-7.466-4.901-11.238c0.873-0.969,1.716-1.961,2.513-2.982c0.049,0.107,0.092,0.211,0.144,0.312
				c1.761,3.723,3.509,7.447,5.341,11.138c1.727,3.48,3.445,6.963,5.21,10.422c0.781,1.531,1.486,3.441,2.481,4.888
				c3.699-5.1,7.18-10.339,10.077-15.967c1.341-2.601,2.475-5.24,3.431-7.919c-1.855-2.046-3.391-4.848-4.858-6.835
				c-2.424-3.292-4.821-6.597-7.169-9.946c-2.179-3.113-4.383-6.245-6.441-9.462c0.246-2.032,0.489-4.059,0.803-6.077
				c2.971,3.999,5.744,8.159,8.622,12.22c2.138,3.017,4.277,6.035,6.459,9.019c1.152,1.568,2.307,3.13,3.471,4.69
				c0.236,0.318,0.494,0.729,0.766,1.167c0.976-3.546,1.696-7.18,2.241-10.916c0.267-1.816,0.515-3.635,0.773-5.448
				c-0.942-0.928-1.524-2.242-2.142-3.362c-1.074-1.939-2.121-3.892-3.146-5.861c-1.795-3.439-3.53-6.917-5.128-10.449
				c-1.522-3.356-3-6.745-4.35-10.186c0.852-1.267,1.759-2.507,2.71-3.711c0.062,0.148,0.127,0.29,0.192,0.433
				c1.598,3.545,3.127,7.118,4.819,10.628c1.596,3.332,3.211,6.653,4.906,9.939c0.843,1.638,1.708,3.273,2.592,4.897
				c0.176,0.328,0.358,0.728,0.55,1.147c0.658-3.837,1.474-7.634,2.683-11.371c2.04-6.301,4.832-12.332,8.276-17.972
				c-0.11-0.405-0.199-0.826-0.271-1.266c-0.528-3.142-0.893-6.324-1.282-9.485c-0.265-2.133-0.668-4.397-1.022-6.691
				c0.003-0.005,0.003-0.005,0.003-0.005c1.107-0.742,2.23-1.461,3.37-2.159c0.269,1.731,0.497,3.448,0.778,5.075
				c0.475,2.759,0.964,5.519,1.409,8.283c0.045,0.317,0.078,0.875,0.128,1.509c2.699-3.826,5.719-7.421,9.012-10.755
				c-0.64-2.473-0.414-5.658-0.488-7.571c-0.027-0.732-0.048-1.49-0.07-2.26c1.309-0.599,2.633-1.162,3.967-1.7
				c-0.02,0.894-0.029,1.779,0,2.656c0.07,1.774,0.174,3.545,0.331,5.308c4.218-3.784,8.79-7.13,13.747-9.911
				c1.87-1.047,3.862-2.143,5.929-3.146c0.087,0.003,0.175,0.006,0.259,0.015c1.511,0.126,2.547,1.245,2.785,2.523
				c-0.17,0.078-0.331,0.154-0.49,0.238c-3.27,1.676-6.417,3.584-9.421,5.695c-3.541,2.497-6.908,5.219-10.062,8.171
				c3.231,0.447,6.473,0.777,9.718,1.089c-0.686,1.29-1.311,2.61-1.869,3.958c-2.215-0.263-4.425-0.551-6.634-0.852
				c-1.447-0.197-3.254-0.185-4.741-0.697c-1.035,1.086-2.045,2.192-3.017,3.343c-2.054,2.413-3.961,4.955-5.715,7.601
				c0.082-0.013,0.167-0.018,0.229-0.021c5.589-0.182,11.292,0.007,16.921,0.681c-0.246,1.368-0.426,2.742-0.544,4.127
				c-0.003,0.06-0.012,0.117-0.015,0.177c-1.505-0.206-3.021-0.376-4.545-0.502c-3.112-0.264-6.24-0.4-9.358-0.407
				c-1.574-0.001-3.568,0.354-5.294,0.14c-4.373,7.546-7.505,15.795-9.092,24.399c-0.29,1.578-0.529,3.162-0.749,4.749
				c1.138-0.274,2.309-0.709,3.127-0.906c1.945-0.462,3.89-0.924,5.84-1.384c3.701-0.876,7.405-1.757,11.105-2.633
				c3.198-0.76,6.42-1.611,9.659-2.412c0.089,1.585,0.145,3.168,0.15,4.731c-4.198,0.953-8.421,1.805-12.543,2.783
				c-4.286,1.018-8.573,2.037-12.856,3.05c-1.425,0.341-3.264,1.028-5.072,1.368c-0.577,4.761-1.104,9.532-2.145,14.223
				c-0.326,1.458-0.703,2.897-1.124,4.327c1.157-0.175,2.355-0.515,3.118-0.63c1.854-0.268,3.713-0.521,5.572-0.745
				c3.535-0.439,7.081-0.791,10.629-1.067c2.403-0.19,4.822-0.358,7.257-0.476c-1.323,1.591-2.783,3.085-4.295,4.546
				c-2.015,0.126-4.035,0.276-6.058,0.473c-3.923,0.38-7.827,0.859-11.723,1.431c-1.767,0.258-3.985,0.951-6.013,0.995
				c-1.821,4.879-4.16,9.564-6.837,14.038c-1.703,2.857-3.6,5.705-5.615,8.555c6.112-1.082,12.323-1.601,18.523-1.625
				c-0.484,1.501-0.911,3.038-1.286,4.594c-0.68,0.006-1.364,0.016-2.047,0.041c-3.917,0.137-7.817,0.474-11.703,0.996
				c-2.185,0.286-4.77,1.055-7.156,1.048c-3.341,4.501-6.855,9.031-10.24,13.646c2.954-0.021,5.953-0.252,8.866-0.3
				c3.821-0.069,7.647-0.136,11.467-0.205c2.717-0.052,5.444-0.139,8.174-0.218c-0.211,1.461-0.427,2.919-0.655,4.372
				c-3.435,0.024-6.867,0.016-10.281,0.079c-4.425,0.086-8.854,0.169-13.276,0.25c-2.011,0.038-4.028,0.074-6.04,0.112
				c-0.402,0.009-0.817,0.032-1.238,0.052c-4.06,5.774-7.784,11.697-10.609,17.875c0.006,0.003,0.014,0,0.019,0.003
				c8.253,0.074,16.499,0.146,24.746,0.218c3.918,0.035,7.912-0.091,11.904-0.108C408.181,384.75,407.465,386.154,406.65,387.509z"
				/>
		</g>
		<g>
			<path style="fill:#E08675;" d="M365.493,372.643c-0.036,6.988,1.767,14.78,5.271,21.523c0.52,1,1.075,1.977,1.67,2.923
				c3.189,5.093,7.448,9.343,12.712,11.817c14.432,6.779,31.184,8.052,46.01,1.715c3.391-1.452,6.94-3.995,8.601-7.084
				c0.619-1.147,0.975-2.37,0.967-3.637c-0.007-0.641-0.106-1.292-0.31-1.954c-0.489-1.579-1.557-2.922-2.757-4.061
				c-2.663-2.527-6.101-4.227-9.726-4.803c12.461-0.546,25.811-3.145,34.356-12.233c1.381-1.468,2.641-3.233,3.208-5.127
				c0.309-1.017,0.414-2.073,0.231-3.142c-0.029-0.167-0.065-0.335-0.11-0.494c-0.689-2.655-3.139-4.646-5.78-5.492
				c-2.804-0.9-5.819-0.754-8.759-0.599c12.534-4.541,22.553-15.492,25.967-28.381c0.937-3.535,1.172-7.702-0.193-10.933
				c-0.442-1.056-1.058-2.016-1.874-2.817c-0.352-0.343-0.738-0.661-1.163-0.942c-3.368-2.24-7.851-1.498-11.725-0.338
				c-9.595,2.874-18.562,7.828-26.106,14.416c1.413-3.347,1.987-7.161,0.954-10.644c-1.031-3.486-3.85-6.543-7.415-7.256
				c-0.083-0.015-0.166-0.031-0.251-0.043c-1.421-0.246-2.821-0.127-4.181,0.247c-3.219,0.892-6.212,3.227-8.735,5.576
				c-7.917,7.374-14.757,15.904-20.228,25.235c-0.751-2.536-1.532-5.133-3.152-7.225c-0.84-1.086-1.968-2.01-3.22-2.576
				c-1.094-0.491-2.281-0.708-3.457-0.512c-0.068,0.012-0.135,0.024-0.201,0.037c-1.482,0.307-2.757,1.217-3.934,2.165
				C371.854,346.315,365.557,359.399,365.493,372.643z"/>
			<path style="fill:#FFFFFF;" d="M385.332,387.852c-4.765,2.309-9.622,4.425-14.568,6.314c-3.783,1.447-7.616,2.76-11.504,3.926
				c-2.054,0.615-1.305,3.869,0.756,3.25c4.195-1.259,8.335-2.68,12.419-4.253c5.507-2.115,10.908-4.504,16.194-7.13
				c3.321,2.922,6.931,5.481,10.835,7.572c12.231,6.551,26.71,8.785,40.294,6.006c0.619-1.147,0.975-2.37,0.967-3.637
				c-16.942,3.967-35.561-0.297-48.898-11.567c9.918-5.148,19.401-11.085,28.519-17.543c14.223,6.143,30.704,6.369,45.151,0.934
				c0.309-1.017,0.414-2.073,0.231-3.142c-0.029-0.167-0.065-0.335-0.11-0.494c-13.357,5.415-28.587,5.563-42.084,0.414
				c4.494-3.274,8.903-6.665,13.226-10.147c13.943-11.227,27.078-23.396,40.094-35.673c-0.442-1.056-1.058-2.016-1.874-2.817
				c-6.581,6.206-13.187,12.382-19.912,18.433c-12.398,11.15-25.231,21.886-38.942,31.391c-1.505-9.843,0.804-19.976,2.821-29.59
				c1.895-9.035,5.202-17.519,10.327-25.042c-1.421-0.246-2.821-0.127-4.181,0.247c-0.97,1.523-1.88,3.087-2.719,4.693
				c-4.428,8.472-6.402,17.568-8.16,26.885c-1.546,8.202-2.681,16.588-1.11,24.871c-1.409,0.949-2.824,1.891-4.253,2.81
				c-6.634,4.278-13.482,8.251-20.53,11.81c-1.662-4.014-2.872-8.196-3.627-12.477c-2.238-12.688-0.417-25.979,5.064-37.583
				c-1.094-0.491-2.281-0.708-3.457-0.512c-0.343,0.754-0.671,1.517-0.987,2.284C378.838,353.87,378.803,372.093,385.332,387.852z"
				/>
		</g>
	</g>
	<g>
		<g>
			<path style="fill:#E9E9FF;" d="M377.427,411.006H124.409c-5.099,0-9.233-4.134-9.233-9.233V234.759
				c0-5.099,4.134-9.233,9.233-9.233h253.018c5.099,0,9.233,4.134,9.233,9.233v167.014
				C386.66,406.872,382.527,411.006,377.427,411.006z"/>
			<rect x="130.201" y="240.033" style="fill:#363271;" width="241.434" height="164.756"/>
			<path style="fill:#C3B7FC;" d="M421.373,402.178v9.367c0,4.279-3.769,7.751-8.416,7.751H88.879c-4.646,0-8.416-3.471-8.416-7.751
				v-9.367c0-4.279,3.769-7.751,8.416-7.751h324.078C417.604,394.427,421.373,397.898,421.373,402.178z"/>
			<path style="fill:#F1F1F1;" d="M278.896,394.427v0.86c0,4.103-3.326,7.43-7.43,7.43H230.37c-4.103,0-7.429-3.326-7.429-7.43
				v-0.86H278.896z"/>
		</g>
		<g>
			
				<text transform="matrix(1 0 0 1 176.9252 338.773)" style="fill:#FFFFFF; font-family:'Boogaloo-Regular'; font-size:107.629px; letter-spacing:-2;">404</text>
			<text transform="matrix(1 0 0 1 167.8871 372.4654)" style="fill:#FFFFFF; font-family:'Barlow-Regular'; font-size:24.7746px;">Page not Found</text>
		</g>
	</g>
	<g>
		
			<rect x="392.354" y="352.544" transform="matrix(0.887 -0.4617 0.4617 0.887 -122.2423 224.6213)" style="fill:#514E92;" width="11.122" height="19.162"/>
		<g style="opacity:0.33;">
			<path style="fill:#FFFFFF;" d="M357.608,276.898l12.838,79.281c-4.147-0.304-8.219-1.233-12.073-2.742l-11.358-70.143
				c2.229-1.85,4.688-3.496,7.363-4.888C355.441,277.853,356.518,277.35,357.608,276.898z"/>
			<path style="fill:#FFFFFF;" d="M389.971,277.202l11.088,68.48c-2.539,2.285-5.405,4.288-8.576,5.938
				c-3.126,1.627-6.363,2.815-9.642,3.583l-13.164-81.297C376.656,273.271,383.643,274.441,389.971,277.202z"/>
		</g>
		<path style="fill:#E9A82F;" d="M418.122,291.753c-12.818-24.625-43.126-34.233-67.777-21.521c-0.06,0.029-0.117,0.059-0.176,0.091
			c-24.683,12.845-34.277,43.269-21.43,67.952c12.847,24.683,43.269,34.279,67.951,21.432c0.06-0.032,0.117-0.062,0.175-0.094
			C421.419,346.715,430.94,316.378,418.122,291.753z M401.059,345.682c-2.539,2.286-5.405,4.289-8.575,5.938
			c-3.127,1.627-6.364,2.814-9.643,3.584c-4.111,0.965-8.29,1.276-12.397,0.974c-4.147-0.303-8.219-1.232-12.071-2.741
			c-8.97-3.509-16.755-10.158-21.551-19.37c-9.129-17.542-4.419-38.626,10.193-50.772c2.229-1.851,4.686-3.495,7.363-4.887
			c1.062-0.553,2.139-1.057,3.23-1.509c3.932-1.64,7.999-2.622,12.07-2.992c6.978-0.636,13.965,0.534,20.294,3.298
			c8.339,3.643,15.536,10.056,20.066,18.757C418.91,313.007,414.714,333.397,401.059,345.682z"/>
		<path style="opacity:0.13;fill:#FFFFFF;" d="M391.255,348.834c-0.058,0.032-0.117,0.061-0.174,0.091
			c-18.728,9.749-41.816,2.467-51.563-16.26c-9.747-18.73-2.467-41.815,16.263-51.562c0.057-0.03,0.117-0.062,0.174-0.089
			c18.698-9.614,41.671-2.321,51.388,16.35C417.06,316.033,409.854,339.035,391.255,348.834z"/>
		<path style="fill:#E9A82F;" d="M411.157,364.59l26.728,51.353c2.692,5.172,0.826,11.612-4.29,14.397
			c-0.016,0.01-0.031,0.018-0.048,0.027c-5.218,2.806-11.77,0.778-14.497-4.463l-26.792-51.477c-1.246-2.393-0.316-5.34,2.077-6.586
			l10.237-5.328C406.964,361.267,409.912,362.197,411.157,364.59z"/>
		<path style="fill:#EFC45E;" d="M339.518,332.664c9.748,18.729,32.834,26.009,51.562,16.262c0.058-0.03,0.117-0.061,0.174-0.093
			l5.611,10.78c-0.058,0.032-0.116,0.062-0.174,0.093c-24.683,12.847-55.106,3.252-67.953-21.431
			c-12.847-24.683-3.252-55.106,21.431-67.953c0.058-0.03,0.117-0.061,0.176-0.09l5.611,10.78c-0.059,0.029-0.117,0.059-0.176,0.09
			C337.051,290.85,329.77,313.936,339.518,332.664z"/>
		<path style="fill:#EFC45E;" d="M394.335,367.841l5.297-2.757l33.964,65.255c-0.016,0.01-0.031,0.018-0.048,0.027
			c-5.218,2.806-11.77,0.778-14.497-4.463l-26.792-51.477C391.012,372.034,391.942,369.086,394.335,367.841z"/>
		<path style="fill:#E79B24;" d="M410.038,295.961c-4.53-8.701-11.727-15.115-20.066-18.757c-6.329-2.763-13.316-3.934-20.294-3.298
			c-4.071,0.37-8.138,1.353-12.07,2.992c-1.09,0.452-2.167,0.956-3.23,1.509c-2.677,1.392-5.134,3.037-7.363,4.887
			c-14.612,12.146-19.322,33.23-10.193,50.772c4.797,9.213,12.582,15.861,21.551,19.37c3.852,1.509,7.924,2.438,12.071,2.741
			c4.106,0.302,8.285-0.008,12.397-0.974c3.279-0.77,6.516-1.956,9.643-3.584c3.17-1.65,6.036-3.652,8.575-5.938
			C414.714,333.397,418.91,313.007,410.038,295.961z M391.255,348.834c-0.058,0.032-0.117,0.061-0.174,0.091
			c-18.728,9.749-41.816,2.467-51.563-16.26c-9.747-18.73-2.467-41.815,16.263-51.562c0.057-0.03,0.117-0.062,0.174-0.089
			c18.698-9.614,41.671-2.321,51.388,16.35C417.06,316.033,409.854,339.035,391.255,348.834z"/>
	</g>
	<g>
		<path style="fill:#4D4D96;" d="M146.558,312.175c-1.767-3.064-4.068-6.038-4.676-9.23c-1.876-9.852,3.778-23.741-7.478-29.963
			c-5.367-2.966-12.429-2.534-17.671,0.494c-4.156,2.401-6.988,6.501-7.478,11.309c-0.34,3.335-0.326,11.639-0.025,14.977
			c0.511,5.688-0.736,5.759-3.68,10.618c-2.027,3.345-4.261,7.417-2.626,11.408c0.876,2.138,2.9,3.764,5.177,4.158
			c2.047,0.354,4.383-0.17,6.048,1.073c1.531,1.143,1.995,3.247,3.56,4.39c2.144,1.566,6.091,2.013,8.671,1.965
			c2.983-0.055,6.045-1.101,8.048-3.313c3.23-3.567,3.827-3.308,8.492-4.115c2.276-0.394,4.301-2.02,5.177-4.158
			C149.524,318.302,148.3,315.196,146.558,312.175z"/>
		<g>
			<g>
				<g>
					<g>
						<path style="fill:#F0C9A1;" d="M120.768,413.181l-0.451,15.658c-0.006,0.226-0.014,0.46-0.022,0.705
							c-0.044,1.037-0.149,2.235-0.553,3.482c-0.625,1.927-3.305,5.485-4.8,6.845c-1.304,1.186-3.6,2.188-5.405,1.475
							c-0.341-0.135-0.663-0.33-0.961-0.597c-2.502-2.254,0.523-5.796,2.364-8.378c0.504-0.705,0.917-1.338,1.106-1.855
							c0.52-1.415,0.647-17.568,0.743-17.565L120.768,413.181z"/>
					</g>
					<path style="fill:#8690F1;" d="M120.294,429.544c-0.044,1.037-0.149,2.235-0.553,3.482c-0.625,1.927-3.305,5.485-4.8,6.845
						c-1.304,1.186-3.6,2.188-5.405,1.475c-0.341-0.135-0.663-0.33-0.961-0.597c-2.502-2.254,0.523-5.796,2.364-8.378
						c-0.11,0.751-0.217,1.572-0.025,2.094c0.468,1.258,2.119,1.742,3.394,1.321c1.272-0.421,2.216-1.494,2.972-2.604
						c0.757-1.106,1.409-2.309,2.4-3.215C119.862,429.799,120.069,429.637,120.294,429.544z"/>
				</g>
				<g>
					<g>
						<path style="fill:#F0C9A1;" d="M133.497,413.181l0.451,15.658c0.005,0.226,0.014,0.46,0.022,0.705
							c0.044,1.037,0.149,2.235,0.553,3.482c0.625,1.927,3.306,5.485,4.8,6.845c1.304,1.186,3.6,2.188,5.405,1.475
							c0.341-0.135,0.663-0.33,0.961-0.597c2.502-2.254-0.523-5.796-2.364-8.378c-0.504-0.705-0.916-1.338-1.106-1.855
							c-0.52-1.415-0.647-17.568-0.743-17.565L133.497,413.181z"/>
					</g>
					<path style="fill:#8690F1;" d="M133.97,429.544c0.044,1.037,0.149,2.235,0.553,3.482c0.625,1.927,3.306,5.485,4.8,6.845
						c1.304,1.186,3.6,2.188,5.405,1.475c0.341-0.135,0.663-0.33,0.961-0.597c2.502-2.254-0.523-5.796-2.364-8.378
						c0.11,0.751,0.217,1.572,0.025,2.094c-0.468,1.258-2.119,1.742-3.393,1.321c-1.271-0.421-2.216-1.494-2.973-2.604
						c-0.757-1.106-1.409-2.309-2.4-3.215C134.402,429.799,134.196,429.637,133.97,429.544z"/>
				</g>
				<path style="fill:#DD6E5C;" d="M142.772,347.861c-8.747,0.361-23.838,0.864-25.715,0.878c-2.959,0.022-5.287-0.03-7.128,0.063
					c-0.088,1.269-0.171,2.538-0.253,3.804c-0.264,4.062-5.469,70.764-4.497,72c0.883,1.117,11.158,1.423,17.763,1.274
					c0.139-3.336,1.565-50.931,1.99-65.912h2.691c1.185,18.885,1.836,46.524,3.031,65.249c6.567-0.468,17.037-0.969,17.07-1.684
					C148.189,413.484,143.601,370.812,142.772,347.861z"/>
			</g>
			<g>
				<path style="fill:#FFFFFF;" d="M142.772,347.861c-8.747,0.361-23.838,0.864-25.715,0.878c-2.959,0.022-5.287-0.03-7.128,0.063
					c0.622-8.959,1.406-22.071,2.664-30.952c0.204-1.437,0.487-2.871,0.916-4.241c0.867-2.785,2.323-5.312,4.882-7.084
					c3.449-2.389,8.095-3.22,12.127-1.891c3.737,1.23,6.57,4.373,8.224,7.882c1.654,3.512,2.276,7.393,2.785,11.23
					C142.038,327.588,142.453,339.021,142.772,347.861z"/>
				<g>
					<path style="fill:#DFDBFC;" d="M140.363,336.814c-9.492,1.314-19.091,1.541-28.634,0.678c-1.112-0.101-2.056,1.042-2.049,2.08
						c0.009,1.207,0.965,1.948,2.08,2.049c9.543,0.863,19.142,0.636,28.634-0.678c1.104-0.153,2.058-0.861,2.049-2.08
						C142.435,337.859,141.475,336.66,140.363,336.814z"/>
					<path style="fill:#DFDBFC;" d="M137.603,326.345c-8.613,0.608-17.248,0.733-25.875,0.373c-2.656-0.111-2.619,4.018,0.031,4.128
						c8.626,0.359,17.262,0.235,25.874-0.373C140.271,330.288,140.259,326.158,137.603,326.345z"/>
					<path style="fill:#DFDBFC;" d="M136.246,316.206c-3.226,1.061-6.768,0.63-10.107,0.536c-3.613-0.102-7.225-0.204-10.838-0.305
						c-2.658-0.075-2.623,4.053,0.031,4.128c3.793,0.107,7.587,0.214,11.38,0.321c3.554,0.1,7.228,0.423,10.662-0.707
						C139.888,319.352,138.78,315.373,136.246,316.206z"/>
				</g>
			</g>
			<g>
				<path style="fill:#F0C9A1;" d="M181.849,314.964c0.783-0.31,1.668-0.812,1.723-1.652c0.035-0.525-0.297-1.023-0.732-1.319
					c-0.435-0.296-0.961-0.425-1.478-0.522c-1.965-0.369-3.999-0.364-5.962,0.015c0.044-0.619,0.083-1.271-0.185-1.832
					c-0.268-0.56-0.957-0.97-1.522-0.712c-0.596,0.273-0.706,1.046-0.954,1.652c-0.381,0.931-1.207,1.589-1.938,2.28
					c-0.731,0.691-1.435,1.55-1.438,2.556c-0.003,0.855,0.517,1.638,1.169,2.191c1.966,1.671,3.119,0.336,5.146-0.481
					C177.703,316.324,179.82,315.767,181.849,314.964z"/>
				<path style="fill:#8690F1;" d="M175.549,317.341c-0.864-1.093-1.929-2.017-3.074-2.805c-0.955-0.655-1.962-1.222-2.994-1.748
					c-3.752,4.684-8.086,8.95-12.897,12.691c-1.258,0.977-2.84,2.094-3.985,2.042c-1.566-0.069-3.267-2.32-4.574-4.277
					c-2.841-4.252-5.385-9.403-8.645-13.447c-0.616-0.764-8.068-7.079-8.368-4.199c-0.243,2.339,0.91,17.575,1.359,24.492
					c0.898,13.834,1.797,27.667,2.695,41.501c0.128,1.97,1.053,22.958,1.493,22.98c4.386,0.22,8.79,0.151,13.164-0.209
					c-3.416-21.273-4.944-42.739-6.153-64.202c1.915,2.241,4.722,4.559,8.658,4.732c0.154,0.008,0.308,0.011,0.46,0.011
					c3.605,0,6.526-1.88,8.92-3.743c5.216-4.057,9.922-8.67,14.007-13.737C175.591,317.393,175.569,317.366,175.549,317.341z"/>
			</g>
			<g>
				<path style="fill:#F0C9A1;" d="M70.226,315.239c-0.783-0.31-1.668-0.812-1.723-1.652c-0.035-0.525,0.297-1.023,0.732-1.319
					c0.435-0.296,0.961-0.425,1.478-0.522c1.965-0.369,3.999-0.364,5.962,0.015c-0.044-0.619-0.083-1.271,0.185-1.832
					c0.268-0.56,0.957-0.97,1.522-0.712c0.596,0.273,0.706,1.046,0.954,1.652c0.381,0.931,1.206,1.589,1.938,2.28
					c0.731,0.691,1.435,1.55,1.438,2.556c0.003,0.855-0.517,1.638-1.169,2.191c-1.966,1.671-3.12,0.336-5.146-0.481
					C74.373,316.599,72.255,316.042,70.226,315.239z"/>
				<path style="fill:#8690F1;" d="M121.065,305.873c-0.234-2.241-4.465,1.187-5.055,1.654c-2.48,1.962-3.792,3.774-5.474,6.291
					l-6.485,9.702c-1.307,1.957-3.008,4.208-4.574,4.277c-1.145,0.052-2.728-1.065-3.985-2.042
					c-4.811-3.74-9.146-8.006-12.897-12.691c-1.032,0.526-2.039,1.093-2.994,1.748c-1.145,0.787-2.21,1.712-3.074,2.805
					c-0.019,0.025-0.041,0.052-0.063,0.083c4.084,5.067,8.791,9.68,14.007,13.737c2.395,1.863,5.315,3.743,8.92,3.743
					c0.151,0,0.306-0.003,0.46-0.011c3.935-0.173,6.742-2.491,8.658-4.732c-1.209,21.463-2.737,42.93-6.153,64.202
					c4.374,0.359,8.778,0.429,13.164,0.209c0.439-0.022,1.364-21.01,1.493-22.98c0.898-13.834,1.797-27.667,2.695-41.501
					C120.155,323.448,121.308,308.213,121.065,305.873z"/>
			</g>
		</g>
		<g>
			<g>
				<path style="fill:#F0C9A1;" d="M130.181,294.464v11.973c0,2.356-1.91,4.266-4.266,4.266c-2.356,0-4.266-1.91-4.266-4.266
					v-11.973H130.181z"/>
				<path style="fill:#E9B588;" d="M130.181,296.732v8.26c-1.816,0.55-3.683,0.947-5.573,0.908c-0.974-0.019-1.995-0.16-2.959-0.454
					v-7.354c0.484-0.231,0.994-0.416,1.5-0.57C125.416,296.831,127.814,296.561,130.181,296.732z"/>
				<path style="fill:#F0C9A1;" d="M114.414,290.473c0,7.676,4.075,13.899,10.459,13.899s11.56-6.223,11.56-13.899
					c0-7.676-5.175-13.899-11.56-13.899S114.414,282.797,114.414,290.473z"/>
				<path style="fill:#F0C9A1;" d="M133.495,291.771c-0.529,2.218,0.48,4.359,2.254,4.782c1.774,0.423,3.642-1.031,4.171-3.249
					c0.529-2.218-0.48-4.359-2.254-4.782C135.891,288.098,134.024,289.553,133.495,291.771z"/>
				<path style="fill:#F0C9A1;" d="M110.651,293.304c-0.529-2.218,0.48-4.359,2.254-4.782c1.774-0.424,3.641,1.031,4.171,3.249
					c0.529,2.218-0.48,4.359-2.254,4.782S111.18,295.522,110.651,293.304z"/>
			</g>
			<path style="fill:#4D4D96;" d="M116.525,276.313c-2.33,1.646-4.345,4.031-5.14,6.971c-0.236,0.872-0.355,1.842-0.018,2.672
				c0.457,1.124,1.663,1.685,2.771,1.623c1.108-0.062,2.139-0.627,3.107-1.229c2.036-1.266,3.964-2.747,5.749-4.418
				c-0.606,1.21-1.21,2.735-0.533,3.897c0.842,1.444,2.835,1.016,4.221,0.25c1.422-0.784,2.765-1.745,3.995-2.86
				c-0.25,1.357,1.088,2.456,2.32,2.655c1.595,0.257,3.305-0.384,4.372-1.728c1.066-1.345,1.417-3.369,0.8-5.025
				c-0.477-1.28-1.449-2.249-2.466-3.051C129.508,271.186,122.697,271.951,116.525,276.313z"/>
			<path style="fill:#FFFFFF;" d="M129.903,287.462c-2.185,0-3.967,1.674-4.183,3.803h-1.635c-0.215-2.13-1.998-3.803-4.183-3.803
				c-2.33,0-4.226,1.896-4.226,4.226c0,2.33,1.896,4.226,4.226,4.226c2.185,0,3.967-1.674,4.183-3.803h1.635
				c0.216,2.129,1.998,3.803,4.183,3.803c2.33,0,4.226-1.896,4.226-4.226C134.129,289.357,132.233,287.462,129.903,287.462z
				 M119.903,295.068c-1.864,0-3.381-1.516-3.381-3.381c0-1.864,1.517-3.381,3.381-3.381s3.38,1.517,3.38,3.381
				C123.283,293.552,121.767,295.068,119.903,295.068z M129.903,295.068c-1.864,0-3.381-1.516-3.381-3.381
				c0-1.864,1.517-3.381,3.381-3.381s3.38,1.517,3.38,3.381C133.284,293.552,131.767,295.068,129.903,295.068z"/>
		</g>
	</g>
</g>
<g id="DESIGNED_BY_FREEPIK">
	<g>
		<g id="XMLID_319_">
			<g id="XMLID_338_">
				<path id="XMLID_346_" style="fill:#1D262D;" d="M260.104,465.465c-0.433,0.443-0.804,0.932-1.108,1.453l-0.465-0.241
					c-0.067-0.297-0.35-0.502-0.659-0.466c-0.331,0.039-0.567,0.339-0.529,0.67c0.039,0.331,0.339,0.567,0.67,0.528
					c0.065-0.007,0.127-0.025,0.184-0.052l0.451,0.234c-0.251,0.554-0.433,1.139-0.539,1.743l0.747,0.132
					c0.23-1.306,0.85-2.507,1.792-3.473L260.104,465.465z"/>
				<path id="XMLID_345_" style="fill:#1D262D;" d="M265.591,463.164c-0.171,0-0.341,0.006-0.509,0.017l-0.074-0.626
					c0.188-0.149,0.296-0.389,0.266-0.645c-0.046-0.393-0.402-0.674-0.795-0.628c-0.394,0.046-0.675,0.402-0.628,0.796
					c0.03,0.254,0.189,0.461,0.404,0.563l0.073,0.624c-0.714,0.116-1.402,0.332-2.06,0.646l0.327,0.685
					c0.935-0.447,1.941-0.674,2.995-0.674c0.497,0,0.993,0.053,1.476,0.158l0.16-0.741
					C266.692,463.222,266.142,463.164,265.591,463.164z"/>
				<path id="XMLID_344_" style="fill:#1D262D;" d="M272.194,465.711c0.331-0.04,0.566-0.341,0.525-0.672
					c-0.04-0.331-0.341-0.566-0.672-0.525c-0.31,0.038-0.535,0.304-0.53,0.608l-0.416,0.363c-0.418-0.43-0.89-0.813-1.407-1.14
					l-0.404,0.642c1.135,0.715,2.021,1.727,2.564,2.925l0.69-0.313c-0.251-0.554-0.567-1.071-0.942-1.545l0.402-0.351
					C272.065,465.715,272.128,465.719,272.194,465.711z"/>
				<path id="XMLID_343_" style="fill:#1D262D;" d="M265.044,473.372c-0.386,0.023-0.775,0.035-1.157,0.035
					c-0.88,0-1.733-0.061-2.479-0.18c-0.391-0.062-0.846-0.154-1.271-0.292c1.047,1.861,3.069,3.125,5.389,3.125
					c2.855,0,5.263-1.916,5.949-4.503c-0.682,0.449-1.505,0.825-2.458,1.122C267.838,473.047,266.463,473.287,265.044,473.372z"/>
				<path id="XMLID_339_" style="fill:#1D262D;" d="M265.591,464.68c-3.351,0-6.079,2.666-6.079,5.943
					c0,0.425,0.046,0.849,0.137,1.261c0.674,0.483,2.706,0.891,5.348,0.731c2.88-0.174,5.297-0.958,6.672-2.159
					c-0.005-0.194-0.021-0.39-0.045-0.581C271.244,466.914,268.65,464.68,265.591,464.68z M263.432,471.195
					c-1.02,0-1.85-0.83-1.85-1.85c0-1.021,0.83-1.851,1.85-1.851c1.02,0,1.85,0.83,1.85,1.851
					C265.282,470.365,264.452,471.195,263.432,471.195z M268.169,470.287c-0.75,0-1.36-0.61-1.36-1.36s0.61-1.36,1.36-1.36
					s1.36,0.61,1.36,1.36S268.919,470.287,268.169,470.287z"/>
			</g>
			<path id="XMLID_336_" style="fill:#1D262D;" d="M281.595,466.547c-0.295-0.116-0.806-0.31-1.383-0.238
				c-0.551,0.069-0.844,0.341-0.844,1.007v0.866h2.229v1.717h-2.229v5.455h-1.932v-5.455h-1.339v-1.717h1.339v-0.889
				c0-1.68,0.896-2.782,2.568-2.782c0.643,0,1.157,0.121,1.59,0.308V466.547z"/>
			<path id="XMLID_334_" style="fill:#1D262D;" d="M286.297,469.878c-0.177-0.029-0.357-0.046-0.525-0.046
				c-0.896,0-1.51,0.548-1.51,1.613v3.908h-1.933v-7.172h1.873v0.784c0.451-0.673,1.14-0.977,2.021-0.977
				c0.414,0,0.848,0.128,1.095,0.337L286.297,469.878z"/>
			<path id="XMLID_331_" style="fill:#1D262D;" d="M293.965,471.757c0,0.222-0.016,0.488-0.037,0.651h-5.085
				c0.207,1.036,0.933,1.487,1.843,1.487c0.622,0,1.295-0.252,1.813-0.689l1.133,1.243c-0.814,0.748-1.851,1.089-3.057,1.089
				c-2.198,0-3.724-1.496-3.724-3.753c0-2.258,1.48-3.797,3.627-3.797C292.543,467.99,293.958,469.522,293.965,471.757z
				 M288.851,471.091h3.175c-0.178-0.918-0.732-1.437-1.562-1.437C289.554,469.655,289.021,470.203,288.851,471.091z"/>
			<path id="XMLID_328_" style="fill:#1D262D;" d="M301.619,471.757c0,0.222-0.016,0.488-0.037,0.651h-5.085
				c0.207,1.036,0.933,1.487,1.843,1.487c0.622,0,1.296-0.252,1.814-0.689l1.133,1.243c-0.815,0.748-1.851,1.089-3.058,1.089
				c-2.198,0-3.723-1.496-3.723-3.753c0-2.258,1.48-3.797,3.627-3.797C300.197,467.99,301.611,469.522,301.619,471.757z
				 M296.504,471.091h3.175c-0.178-0.918-0.733-1.437-1.561-1.437C297.208,469.655,296.674,470.203,296.504,471.091z"/>
			<path id="XMLID_325_" style="fill:#1D262D;" d="M309.964,471.764c0,2.154-1.495,3.775-3.472,3.775
				c-0.962,0-1.644-0.378-2.109-0.933v3.708h-1.925v-10.133h1.888v0.792c0.467-0.585,1.154-0.984,2.139-0.984
				C308.469,467.99,309.964,469.611,309.964,471.764z M304.287,471.764c0,1.133,0.748,1.977,1.844,1.977
				c1.14,0,1.85-0.881,1.85-1.977c0-1.095-0.71-1.976-1.85-1.976C305.035,469.789,304.287,470.632,304.287,471.764z"/>
			<path id="XMLID_322_" style="fill:#1D262D;" d="M313.068,465.836c0,0.696-0.541,1.229-1.236,1.229
				c-0.696,0-1.229-0.533-1.229-1.229c0-0.695,0.532-1.243,1.229-1.243C312.527,464.592,313.068,465.14,313.068,465.836z
				 M312.808,475.354h-1.932v-7.172h1.932V475.354z"/>
			<path id="XMLID_320_" style="fill:#1D262D;" d="M316.032,470.736l2.702-2.554h2.368l-3.478,3.375l3.501,3.797h-2.376
				l-2.717-2.901v2.901H314.1v-10.658h1.932V470.736z"/>
		</g>
		<g>
			<path style="fill:#1D262D;" d="M184.412,475.29v-1.055c-0.527,0.718-1.391,1.23-2.387,1.23c-1.846,0-3.149-1.406-3.149-3.706
				c0-2.256,1.289-3.721,3.149-3.721c0.952,0,1.816,0.469,2.387,1.245v-3.765h1.099v9.771H184.412z M184.412,473.371v-3.208
				c-0.395-0.615-1.245-1.143-2.124-1.143c-1.42,0-2.27,1.172-2.27,2.739c0,1.567,0.85,2.725,2.27,2.725
				C183.167,474.484,184.017,473.986,184.412,473.371z"/>
			<path style="fill:#1D262D;" d="M186.932,471.745c0-2.051,1.465-3.706,3.486-3.706c2.139,0,3.398,1.67,3.398,3.794v0.278h-5.727
				c0.088,1.333,1.025,2.446,2.549,2.446c0.806,0,1.626-0.322,2.182-0.894l0.527,0.718c-0.703,0.703-1.655,1.084-2.812,1.084
				C188.44,475.465,186.932,473.957,186.932,471.745z M190.403,468.947c-1.509,0-2.256,1.274-2.314,2.358h4.644
				C192.718,470.25,192.015,468.947,190.403,468.947z"/>
			<path style="fill:#1D262D;" d="M194.607,474.352l0.571-0.791c0.469,0.542,1.362,1.011,2.329,1.011c1.084,0,1.67-0.513,1.67-1.216
				c0-1.714-4.38-0.659-4.38-3.281c0-1.099,0.952-2.036,2.636-2.036c1.202,0,2.051,0.454,2.623,1.025l-0.513,0.762
				c-0.424-0.513-1.201-0.894-2.109-0.894c-0.966,0-1.567,0.483-1.567,1.113c0,1.553,4.379,0.527,4.379,3.281
				c0,1.187-0.952,2.139-2.783,2.139C196.306,475.465,195.325,475.114,194.607,474.352z"/>
			<path style="fill:#1D262D;" d="M201.477,466.471c0-0.41,0.337-0.747,0.732-0.747c0.41,0,0.747,0.337,0.747,0.747
				c0,0.41-0.337,0.732-0.747,0.732C201.814,467.204,201.477,466.881,201.477,466.471z M201.667,475.29v-7.075h1.099v7.075H201.667z
				"/>
			<path style="fill:#1D262D;" d="M204.582,477.106l0.556-0.82c0.586,0.703,1.289,0.967,2.3,0.967c1.172,0,2.271-0.571,2.271-2.124
				v-1.011c-0.513,0.718-1.377,1.26-2.373,1.26c-1.846,0-3.149-1.377-3.149-3.662c0-2.271,1.289-3.677,3.149-3.677
				c0.952,0,1.802,0.469,2.373,1.245v-1.069h1.099v6.87c0,2.344-1.641,3.076-3.369,3.076
				C206.237,478.161,205.416,477.925,204.582,477.106z M209.708,473.253v-3.091c-0.381-0.615-1.23-1.143-2.109-1.143
				c-1.421,0-2.27,1.128-2.27,2.695c0,1.553,0.849,2.695,2.27,2.695C208.478,474.411,209.328,473.869,209.708,473.253z"/>
			<path style="fill:#1D262D;" d="M217.413,475.29v-4.629c0-1.245-0.63-1.641-1.582-1.641c-0.864,0-1.685,0.527-2.094,1.099v5.171
				h-1.099v-7.075h1.099v1.025c0.497-0.586,1.464-1.201,2.519-1.201c1.479,0,2.256,0.747,2.256,2.285v4.966H217.413z"/>
			<path style="fill:#1D262D;" d="M219.932,471.745c0-2.051,1.465-3.706,3.486-3.706c2.139,0,3.398,1.67,3.398,3.794v0.278h-5.727
				c0.088,1.333,1.025,2.446,2.548,2.446c0.806,0,1.626-0.322,2.183-0.894l0.527,0.718c-0.703,0.703-1.655,1.084-2.813,1.084
				C221.441,475.465,219.932,473.957,219.932,471.745z M223.404,468.947c-1.509,0-2.256,1.274-2.314,2.358h4.643
				C225.718,470.25,225.015,468.947,223.404,468.947z"/>
			<path style="fill:#1D262D;" d="M233.35,475.29v-1.055c-0.527,0.718-1.392,1.23-2.388,1.23c-1.845,0-3.149-1.406-3.149-3.706
				c0-2.256,1.289-3.721,3.149-3.721c0.952,0,1.817,0.469,2.388,1.245v-3.765h1.098v9.771H233.35z M233.35,473.371v-3.208
				c-0.396-0.615-1.245-1.143-2.124-1.143c-1.421,0-2.27,1.172-2.27,2.739c0,1.567,0.85,2.725,2.27,2.725
				C232.105,474.484,232.954,473.986,233.35,473.371z"/>
			<path style="fill:#1D262D;" d="M239.692,475.29v-9.771h1.099v3.765c0.571-0.776,1.421-1.245,2.388-1.245
				c1.845,0,3.149,1.465,3.149,3.721c0,2.3-1.304,3.706-3.149,3.706c-0.996,0-1.86-0.513-2.388-1.23v1.055H239.692z M242.9,474.484
				c1.436,0,2.285-1.157,2.285-2.725c0-1.567-0.85-2.739-2.285-2.739c-0.864,0-1.729,0.527-2.109,1.143v3.208
				C241.171,473.986,242.036,474.484,242.9,474.484z"/>
			<path style="fill:#1D262D;" d="M247.528,477.062c0.161,0.073,0.425,0.117,0.601,0.117c0.483,0,0.806-0.161,1.055-0.747
				l0.469-1.069l-2.959-7.148h1.187l2.358,5.801l2.344-5.801h1.2l-3.544,8.511c-0.425,1.024-1.143,1.421-2.08,1.436
				c-0.234,0-0.6-0.044-0.806-0.104L247.528,477.062z"/>
		</g>
	</g>
</g>
</svg>
