<svg version="1.2" xmlns="http://www.w3.org/2000/svg" viewBox="0 0 473 381" width="473" height="381"><style>tspan{white-space:pre}.a{fill:#f3f3ff}.b{fill:#d7d2ff}.c{fill:#e8e6fc}.d{fill:#c3b7fc}.e{fill:#e08675}.f{fill:#dd6e5c}.g{fill:#efc45e}.h{fill:#f7e5bd}.i{fill:#5f5ea5}.j{fill:#8690f1}.k{fill:#fff}.l{fill:#e9e9ff}.m{fill:#363271}.n{fill:#f1f1f1}.o{font-size: 108px;fill: #ffffff;font-family: "' Boogaloo"}.p{font-size: 25px;fill: #ffffff;font-family: "' Barlow"}.q{fill:#514e92}.r{fill:#e9a82f}.s{opacity:.1;fill:#fff}.t{fill:#e79b24}.u{fill:#4d4d96}.v{fill:#f0c9a1}.w{fill:#dfdbfc}.x{fill:#e9b588}.y{fill:#1d262d}</style><path class="a" d="m54.9 327.4c-34.6-22.7-51.7-68.6-47-111.1 2.1-18.6 7.9-36.9 7.5-55.7-0.3-11.7-3-23.2-3.7-34.9-2.7-44.8 25.8-88 64.4-107.6 38.6-19.5 84.9-17.5 125-1.5 15.8 6.4 31.2 14.9 48 16.9 28.2 3.6 55.5-11.4 83.8-14.2 53.3-5.3 104.6 35.8 123.6 88.3 19.1 52.4 10.1 112.7-13.3 163.2-12.8 27.7-32.1 55-60.4 63.2-10 2.9-20.6 3.2-31 3.2-53.8-0.1-108.4-7.8-161.4 5.1-41.8 10.1-98.1 9.8-135.5-14.9z"/><path fill-rule="evenodd" class="b" d="m252.4 126q0 3.1-0.5 6.2l6.9 5.1-9 17.5-8-2.6q-2.2 2.3-4.9 4.2l1.3 8.3-18.8 6-3.8-7.5q-3.3 0-6.4-0.5l-5 6.7-17.5-9 2.6-8.2q-2.2-2.2-4-4.7l-8.5 1.2-6-18.7 7.9-4q0-3 0.5-5.9l-7.2-5.4 9-17.4 8.7 2.8q2.1-2 4.4-3.7l-1.4-9 18.8-6 4.1 8.1q2.9 0 5.7 0.5l5.4-7.4 17.5 9-2.7 8.6q2.1 2 3.8 4.4l8.8-1.3 6 18.8zm-16.4-6.2c-3.6-11.3-15.7-17.5-27-13.9-11.3 3.6-17.5 15.7-13.9 27 3.7 11.2 15.7 17.5 27 13.8 11.3-3.6 17.5-15.6 13.9-26.9z"/><path fill-rule="evenodd" class="c" d="m239.2 126q0 2-0.3 4l4.5 3.3-5.8 11.2-5.2-1.6q-1.4 1.4-3.1 2.7l0.7 5.3-12 3.9-2.5-4.9q-2.1 0-4.1-0.3l-3.2 4.3-11.3-5.8 1.7-5.2q-1.4-1.4-2.5-3.1l-5.5 0.8-3.9-12 5.1-2.6q0-1.9 0.4-3.8l-4.7-3.4 5.8-11.3 5.6 1.8q1.3-1.2 2.8-2.3l-0.9-5.8 12.1-3.9 2.7 5.2q1.8 0.1 3.6 0.3l3.5-4.7 11.2 5.8-1.7 5.5q1.3 1.3 2.4 2.9l5.7-0.9 3.9 12.1zm-10.6-4c-2.3-7.2-10.1-11.2-17.3-8.9-7.3 2.3-11.3 10.1-9 17.3 2.4 7.3 10.1 11.3 17.4 8.9 7.2-2.3 11.2-10 8.9-17.3z"/><path fill-rule="evenodd" class="d" d="m167 154.4q-1.5 5-3.8 9.6l8.3 11.6-23.1 23.1-11.4-8.2q-4.7 2.5-9.8 4.1l-2.3 13.8h-32.7l-2.2-13.8q-5.2-1.6-9.9-4.1l-11.3 8.2-23.1-23.1 8.3-11.6q-2.3-4.6-3.9-9.6l-14.2-2.3v-32.7l14.6-2.4q1.6-4.7 3.8-9l-8.6-12.1 23.1-23.1 12.3 8.9q4.2-2.1 8.7-3.6l2.4-15h32.7l2.5 15q4.5 1.5 8.7 3.6l12.3-8.9 23.1 23.1-8.7 12.1q2.3 4.3 3.8 9l14.6 2.4v32.7zm-22.9-18.1c0-19.7-15.9-35.6-35.5-35.6-19.7 0-35.6 15.9-35.6 35.6 0 19.7 15.9 35.6 35.6 35.6 19.6 0 35.5-15.9 35.5-35.6z"/><path fill-rule="evenodd" class="b" d="m108.6 181.7c-25.4 0-46-20.6-46-46 0-25.3 20.6-46 46-46 25.3 0 46 20.7 46 46 0 25.4-20.7 46-46 46zm0-77c-17.1 0-31 13.9-31 31 0 17.1 13.9 31 31 31 17.1 0 31-13.9 31-31 0-17.1-13.9-31-31-31z"/><path fill-rule="evenodd" class="b" d="m404.8 160.5q-1.2 3.8-2.9 7.3l6.2 8.7-17.4 17.4-8.6-6.1q-3.5 1.8-7.4 3.1l-1.7 10.4h-24.6l-1.7-10.4q-3.9-1.3-7.5-3.1l-8.5 6.1-17.5-17.4 6.3-8.7q-1.7-3.5-2.9-7.3l-10.7-1.7v-24.6l11-1.9q1.2-3.5 2.9-6.7l-6.6-9.2 17.5-17.4 9.2 6.7q3.2-1.6 6.6-2.7l1.9-11.3h24.6l1.9 11.3q3.4 1.1 6.5 2.7l9.3-6.7 17.4 17.4-6.5 9.2q1.7 3.2 2.9 6.8l11 1.8v24.6zm-17.3-13.6c0-14.9-12-26.9-26.8-26.9-14.8 0-26.9 12-26.9 26.9 0 14.8 12.1 26.8 26.9 26.8 14.8 0 26.8-12 26.8-26.8z"/><path fill-rule="evenodd" class="d" d="m360.7 181.2c-19.1 0-34.7-15.6-34.7-34.7 0-19.2 15.6-34.7 34.7-34.7 19.1 0 34.7 15.5 34.7 34.7 0 19.1-15.6 34.7-34.7 34.7zm0-58.1c-12.9 0-23.4 10.5-23.4 23.4 0 12.9 10.5 23.3 23.4 23.3 12.9 0 23.4-10.4 23.4-23.3 0-12.9-10.5-23.4-23.4-23.4z"/><path class="e" d="m80.2 317.9q1.2 2.1 2.8 4.2c7.9 10.2 23.1 14.1 34.9 8.9q1.1-0.5 2.2-1.1 1.8-1 3.4-2.2c9.8-7.6 12.5-21 11-34q-0.4-2.7-1-5.5c-1.6-7.9-4.8-15.4-8.8-21q-0.6-0.9-1.3-1.8-1.4-1.8-2.9-3.5c-3.1-3.6-6.6-7-9.6-10.7q-1.3-1.4-2.4-3c-1.7-2.4-3.3-5-4.4-7.9-1.8-4.8-2.2-9.9-2.6-15-0.2-1.9-0.3-3.9-0.6-5.9-0.2-2.1-0.5-4.1-1-6.2-1.2-4.4-3.1-8.6-5.6-12.6q-1.1-1.9-2.4-3.7-1.5-2-3-3.8c-5-6.1-10.7-11.5-17-16.1q0 0 0 0-1.6-1.1-3.2-2.2-4.9-3.3-10.2-5.9-1.9-1-3.8-1.8-6.8-3.1-14.1-5c-1.6-0.4-3.4-0.7-5-0.7q-0.2 0-0.3 0c-1.5 0.1-2.5 1.1-2.8 2.3-0.2 1 0 2 0.8 2.8 3.5 3.6 6.4 7.8 8.6 12.3q0.9 1.9 1.6 3.9c1.2 3.2 2 6.5 2.5 9.9q0.3 2 0.4 4 0 0.1 0 0.1c0.3 6.7-0.9 13.6-1.5 20.4q-0.2 2.3-0.3 4.5c-0.3 6 0.2 11.9 2.8 17.3 0.9 1.8 2 3.5 3.3 5.1 1.2 1.6 2.5 3.1 3.9 4.6 3.9 4 8.2 7.8 11.3 12.4 2.3 3.5 3.9 7.3 5 11.3q0.6 2.2 1 4.5c1 4.8 1.5 9.7 2 14.6q0.2 2.1 0.5 4.3c0.7 6.3 1.7 12.4 3.9 18q0.8 2.2 1.9 4.2z"/><path class="f" d="m80.2 317.9q6.4 0.2 12.7 0.3l13.5 0.4c2.8 0.1 5.9 0.5 8.9 0.4 1.3 3.9 2.2 7.9 2.6 12q1.1-0.5 2.2-1.1 1.8-1 3.4-2.2c-0.6-3.6-1.6-7.1-2.7-10.5 1.6-1.7 2.6-4.1 3.8-6.1q3.2-5.6 6.4-11.3 1.7-3 3.5-6.1-0.4-2.7-0.9-5.5-2.5 4.2-5 8.5-3.1 5.3-6.2 10.7-1.5 2.5-3 5.1-0.1 0.2-0.2 0.4c-1.9-4.5-4.1-8.8-6.6-12.9q-1.4-2.3-2.8-4.6c1.2-1.7 1.9-4.2 2.7-5.9q2.5-5.5 5-11 2.6-5.7 5.2-11.5 0.4-0.8 0.7-1.6-1.4-1.8-2.9-3.5c-2.2 4.3-3.9 9-5.8 13.1q-2.3 5-4.6 10-1.2 2.6-2.4 5.2-0.3 0.7-0.5 1.2c-3.2-4.7-6.6-9.4-9.9-14.1 1.4-1.6 2.2-3.8 3.1-5.5 1.8-3.3 3.6-6.5 5.3-9.9q2.7-5.3 5.2-10.7-1.3-1.4-2.4-3 0 0.2-0.1 0.3c-1.8 3.6-3.7 7.1-5.6 10.6q-2.7 5-5.4 9.9c-0.8 1.4-1.6 3.3-2.6 4.6-3.4-5.1-6.6-10.2-9.2-15.8q-1.7-3.8-3-7.8c1.9-1.9 3.5-4.5 5-6.4q3.7-4.6 7.3-9.4c2.2-2.9 4.5-5.8 6.6-8.9-0.2-1.9-0.3-3.9-0.6-5.9-3 3.8-5.8 7.7-8.8 11.5q-3.2 4.3-6.6 8.5-1.7 2.2-3.5 4.4c-0.2 0.3-0.5 0.7-0.8 1.1-0.8-3.5-1.3-7-1.7-10.6q-0.3-2.7-0.6-5.3c1-0.9 1.6-2.2 2.2-3.2q1.7-2.8 3.3-5.6c1.9-3.2 3.7-6.5 5.4-9.9 1.6-3.2 3.1-6.4 4.5-9.7q-1.1-1.9-2.4-3.7-0.1 0.3-0.2 0.5c-1.7 3.3-3.3 6.7-5.1 10.1-1.7 3.1-3.4 6.3-5.1 9.4q-1.3 2.3-2.7 4.6-0.3 0.5-0.6 1.1c-0.5-3.7-1.1-7.4-2.2-11.1-1.7-6.2-4.2-12.1-7.3-17.7q0.2-0.6 0.3-1.2c0.7-3 1.1-6.1 1.6-9.1 0.4-2.1 0.8-4.3 1.3-6.5q0 0 0 0-1.6-1.1-3.2-2.2c-0.3 1.7-0.6 3.3-1 4.9q-0.8 4-1.6 8c-0.1 0.3-0.1 0.8-0.2 1.4q-3.7-5.7-8.3-10.7c0.7-2.4 0.6-5.5 0.7-7.3q0.1-1.1 0.2-2.2-1.9-1-3.8-1.8 0 1.3-0.1 2.6-0.2 2.5-0.5 5.1c-3.9-3.8-8.2-7.2-12.9-10.1-1.8-1.1-3.7-2.2-5.6-3.3q-0.2 0-0.3 0c-1.5 0.1-2.5 1.1-2.8 2.3q0.3 0.2 0.5 0.3 4.6 2.6 8.9 5.9 5 3.8 9.4 8.2c-3.1 0.4-6.3 0.6-9.4 0.7q0.9 1.9 1.6 3.9 3.3-0.2 6.5-0.5c1.4-0.2 3.1-0.1 4.6-0.5q1.4 1.6 2.8 3.3 2.8 3.6 5.2 7.6-0.1 0-0.2-0.1c-5.4-0.3-10.9-0.4-16.4 0.1q0.3 2 0.4 4 0 0.1 0 0.1 2.2-0.2 4.4-0.3 4.5-0.2 9.1 0c1.5 0.1 3.4 0.5 5.1 0.3 3.9 7.5 6.6 15.6 7.8 24q0.4 2.3 0.6 4.6c-1.1-0.3-2.2-0.8-3-1q-2.8-0.8-5.6-1.6-5.3-1.4-10.6-2.9c-3.1-0.9-6.2-1.8-9.3-2.7q-0.2 2.3-0.3 4.5c4 1.1 8.1 2.1 12 3.2q6.2 1.7 12.3 3.4c1.4 0.4 3.2 1.2 4.9 1.6 0.4 4.6 0.7 9.2 1.5 13.8q0.4 2.1 0.9 4.2c-1.1-0.2-2.2-0.6-2.9-0.7q-2.7-0.5-5.4-0.9-5.1-0.9-10.2-1.5-3.5-0.4-7-0.7c1.2 1.6 2.5 3.1 3.9 4.6q3 0.2 5.9 0.6 5.6 0.8 11.3 1.9c1.7 0.3 3.8 1 5.7 1.2 1.6 4.7 3.7 9.4 6.1 13.8 1.6 2.8 3.3 5.6 5.1 8.5-5.8-1.3-11.8-2-17.8-2.3q0.6 2.2 1 4.5 1 0 2 0.1 5.7 0.4 11.3 1.4c2.1 0.4 4.6 1.2 6.9 1.3 3 4.5 6.3 9 9.4 13.6-2.9-0.1-5.8-0.5-8.6-0.6q-5.5-0.3-11.1-0.7-3.9-0.2-7.9-0.5 0.3 2.1 0.5 4.3c3.3 0.1 6.6 0.2 9.9 0.4q6.5 0.4 12.9 0.8 2.9 0.1 5.8 0.3 0.6 0.1 1.2 0.1c3.7 5.7 7.1 11.6 9.6 17.7q0 0 0 0-12-0.4-24-0.7c-3.8-0.1-7.6-0.4-11.5-0.6q0.8 2.2 1.9 4.2z"/><path class="g" d="m112.4 308.6c-0.4 6.7-2.6 14-6.3 20.2q-0.8 1.4-1.8 2.7c-3.3 4.7-7.7 8.5-12.8 10.5-14.2 5.6-30.3 5.8-44.1-1.1-3.1-1.6-6.4-4.3-7.8-7.3-0.5-1.2-0.7-2.4-0.7-3.6q0.1-0.9 0.5-1.8c0.5-1.5 1.6-2.7 2.8-3.7 2.7-2.3 6.1-3.7 9.6-4-11.8-1.3-24.4-4.6-32-13.8-1.3-1.5-2.4-3.2-2.8-5.1-0.2-1-0.3-2 0-3q0-0.2 0.1-0.5c0.8-2.4 3.3-4.2 5.9-4.8 2.7-0.7 5.6-0.4 8.4-0.1-11.7-5.1-20.6-16.1-23.1-28.7-0.7-3.4-0.7-7.4 0.8-10.4 0.5-1 1.2-1.8 2-2.6q0.5-0.4 1.2-0.8c3.3-1.9 7.6-0.9 11.2 0.4 9 3.3 17.2 8.6 24 15.3-1.1-3.2-1.4-6.9-0.2-10.2 1.2-3.2 4-6 7.5-6.5q0.1 0 0.2 0c1.4-0.1 2.7 0.1 4 0.5 3 1.1 5.7 3.5 8 5.9 7.1 7.5 13.1 16 17.8 25.3 0.9-2.4 1.8-4.8 3.4-6.7 0.9-1 2-1.8 3.3-2.3 1-0.4 2.2-0.5 3.3-0.3q0.1 0.1 0.2 0.1c1.4 0.4 2.6 1.3 3.6 2.3 9.4 8.6 14.6 21.4 13.8 34.1z"/><path class="h" d="m92.6 321.9q6.6 3.7 13.5 6.9 5.3 2.4 10.7 4.5c2 0.7 1 3.7-0.9 3q-5.9-2.2-11.6-4.8-7.7-3.5-15-7.8c-3.4 2.6-7 4.8-10.8 6.6-12.1 5.5-26.1 6.7-38.9 3.3-0.5-1.2-0.7-2.4-0.7-3.6 16 4.9 34 1.9 47.4-8-9.1-5.6-17.8-11.8-26.1-18.5-14 5-29.7 4.2-43.2-1.9-0.2-1-0.3-2 0-3q0-0.2 0.1-0.4c12.4 5.9 27 7 40.2 2.9q-6.2-5.1-12-10.5c-12.7-11.6-24.5-24-36.2-36.5 0.5-1 1.2-1.8 2-2.6 5.9 6.4 11.8 12.7 17.9 18.8 11.2 11.4 22.8 22.5 35.3 32.4 2-9.3 0.4-19.1-0.9-28.4-1.3-8.8-3.9-17.1-8.4-24.6 1.4-0.1 2.7 0.1 4 0.5q1.3 2.3 2.3 4.7c3.7 8.3 5.1 17.1 6.2 26.1 1 8 1.5 16-0.5 23.8q2 1.5 3.9 3c6.1 4.5 12.4 8.7 18.9 12.5 1.8-3.7 3.2-7.6 4.2-11.7 2.9-12 2-24.8-2.5-36.2 1-0.4 2.2-0.5 3.3-0.3q0.4 1.2 0.8 2.3c5.2 15.4 4.2 32.8-3 47.5z"/><path class="i" d="m393.6 321.5q-1.3 2.2-2.9 4.2c-8.6 10.3-24.5 13.7-36.5 7.9q-1.1-0.6-2.2-1.3-1.8-1.1-3.4-2.4c-9.8-8.2-12.1-22.1-10-35.5q0.5-2.9 1.2-5.6c2.1-8.2 5.6-15.8 9.9-21.4q0.7-0.9 1.5-1.8 1.5-1.8 3.1-3.5c3.4-3.6 7.1-7 10.4-10.6q1.3-1.5 2.5-3c2-2.5 3.7-5.1 4.9-8 2.1-4.9 2.7-10.1 3.4-15.4 0.2-2 0.4-4 0.8-6.1 0.3-2.1 0.7-4.2 1.3-6.3 1.4-4.6 3.5-8.8 6.2-12.8q1.3-1.9 2.7-3.7 1.6-2 3.3-3.9c5.4-6 11.5-11.3 18.2-15.8q0 0 0 0 1.6-1.2 3.3-2.2h0.1q5.2-3.2 10.7-5.7 2-0.9 4-1.7 7.2-2.9 14.7-4.6c1.7-0.4 3.6-0.6 5.3-0.5q0.1 0 0.3 0c1.5 0.1 2.5 1.2 2.7 2.5 0.2 1 0 2-0.9 2.8-3.7 3.6-6.9 7.8-9.3 12.4q-1 2-1.9 4c-1.3 3.2-2.3 6.6-2.9 10q-0.4 2.1-0.6 4.2 0 0 0 0.1c-0.6 6.9 0.3 14.1 0.7 21.1q0.1 2.4 0.1 4.7c0.1 6.2-0.7 12.2-3.6 17.7-1 1.8-2.2 3.5-3.5 5.1-1.3 1.6-2.8 3.1-4.3 4.6-4.2 4-8.7 7.7-12.1 12.4-2.6 3.5-4.3 7.4-5.6 11.5q-0.8 2.2-1.3 4.5c-1.2 4.9-1.9 10-2.7 15.1q-0.3 2.1-0.6 4.3c-1 6.5-2.3 12.8-4.8 18.5q-0.9 2.2-2.2 4.2z"/><path class="j" d="m393.6 321.5q-6.5-0.1-13.1-0.1l-13.9-0.2c-2.9 0-6.1 0.3-9.2 0.1-1.5 3.9-2.6 8-3.2 12.3q-1.1-0.6-2.2-1.3-1.8-1.1-3.4-2.4c0.8-3.6 1.9-7.2 3.2-10.8-1.6-1.7-2.6-4.3-3.7-6.4q-3.1-5.9-6.2-11.9-1.6-3.2-3.3-6.4 0.5-2.9 1.2-5.6c1.6 2.9 3.2 5.9 4.8 8.9q3 5.6 6 11.3 1.4 2.7 2.8 5.4 0.1 0.2 0.3 0.4c2.1-4.5 4.5-8.9 7.2-13q1.6-2.4 3.2-4.7c-1.3-1.8-1.9-4.4-2.6-6.1q-2.4-5.8-4.8-11.6-2.4-6.1-4.9-12.2-0.3-0.8-0.6-1.6 1.5-1.8 3.1-3.5c2.1 4.5 3.7 9.4 5.5 13.8q2.2 5.2 4.4 10.4 1.1 2.8 2.2 5.6 0.3 0.7 0.5 1.2c3.5-4.7 7.2-9.4 10.8-14.1-1.4-1.8-2.2-4.1-3-5.8-1.8-3.5-3.5-7-5.1-10.5q-2.5-5.6-4.9-11.2 1.3-1.5 2.5-3 0.1 0.1 0.2 0.3c1.7 3.7 3.5 7.4 5.3 11.1q2.6 5.3 5.2 10.5c0.8 1.5 1.5 3.4 2.5 4.8 3.7-5.1 7.2-10.3 10.1-15.9q2-3.9 3.4-7.9c-1.8-2.1-3.4-4.9-4.8-6.9q-3.7-4.9-7.2-9.9c-2.2-3.1-4.4-6.3-6.4-9.5 0.2-2 0.4-4 0.8-6.1 2.9 4 5.7 8.2 8.6 12.3q3.2 4.5 6.4 9 1.8 2.3 3.5 4.7c0.2 0.3 0.5 0.7 0.8 1.1 1-3.5 1.7-7.1 2.2-10.9q0.4-2.7 0.8-5.4c-1-1-1.5-2.3-2.2-3.4q-1.6-2.9-3.1-5.9c-1.8-3.4-3.5-6.9-5.1-10.4-1.5-3.4-3-6.7-4.4-10.2q1.3-1.9 2.7-3.7 0.1 0.2 0.2 0.4c1.6 3.6 3.2 7.2 4.8 10.7 1.6 3.3 3.3 6.6 5 9.9q1.2 2.5 2.5 4.9 0.3 0.5 0.6 1.1c0.7-3.8 1.5-7.6 2.7-11.3 2-6.3 4.8-12.4 8.3-18q-0.2-0.6-0.3-1.3c-0.5-3.1-0.9-6.3-1.3-9.4-0.3-2.2-0.7-4.4-1-6.7q0 0 0 0 1.6-1.2 3.4-2.2c0.2 1.7 0.4 3.4 0.7 5.1q0.8 4.1 1.4 8.3c0.1 0.3 0.1 0.8 0.2 1.5q4-5.8 9-10.8c-0.7-2.5-0.4-5.6-0.5-7.6q0-1.1-0.1-2.2 2-0.9 4-1.7-0.1 1.3 0 2.6 0.1 2.7 0.3 5.3c4.2-3.7 8.8-7.1 13.8-9.9 1.8-1 3.8-2.1 5.9-3.1q0.1 0 0.3 0c1.5 0.1 2.5 1.2 2.7 2.5q-0.2 0.1-0.5 0.3-4.9 2.5-9.4 5.7-5.3 3.7-10 8.1c3.2 0.5 6.4 0.8 9.7 1.1q-1 2-1.9 4-3.3-0.4-6.6-0.9c-1.5-0.2-3.3-0.2-4.8-0.7q-1.5 1.6-3 3.4-3.1 3.6-5.7 7.6 0.1 0 0.2-0.1c5.6-0.1 11.3 0.1 17 0.7q-0.4 2.1-0.6 4.2 0 0 0 0.1-2.3-0.3-4.5-0.5-4.7-0.4-9.4-0.4c-1.6 0-3.6 0.4-5.3 0.2-4.4 7.5-7.5 15.8-9.1 24.4q-0.4 2.3-0.7 4.7c1.1-0.3 2.3-0.7 3.1-0.9q2.9-0.7 5.8-1.4 5.6-1.3 11.1-2.6c3.2-0.8 6.5-1.6 9.7-2.4q0.1 2.4 0.1 4.7c-4.2 1-8.4 1.8-12.5 2.8q-6.4 1.5-12.9 3c-1.4 0.4-3.2 1.1-5 1.4-0.6 4.8-1.1 9.5-2.2 14.2q-0.5 2.2-1.1 4.4c1.2-0.2 2.4-0.6 3.1-0.7q2.8-0.4 5.6-0.7 5.3-0.7 10.6-1.1 3.6-0.3 7.3-0.5c-1.3 1.6-2.8 3.1-4.3 4.6q-3 0.2-6.1 0.5-5.9 0.5-11.7 1.4c-1.8 0.2-4 0.9-6 1-1.8 4.9-4.2 9.5-6.8 14-1.8 2.9-3.6 5.7-5.7 8.6 6.1-1.1 12.4-1.6 18.6-1.6q-0.8 2.2-1.3 4.5-1 0.1-2.1 0.1-5.8 0.2-11.7 1c-2.2 0.3-4.7 1-7.1 1-3.4 4.5-6.9 9.1-10.3 13.7 3 0 6-0.3 8.9-0.3q5.7-0.1 11.5-0.2 4-0.1 8.1-0.2-0.3 2.1-0.6 4.3c-3.5 0.1-6.9 0-10.3 0.1q-6.6 0.1-13.3 0.3-3 0-6 0.1-0.6 0-1.3 0c-4 5.8-7.7 11.7-10.6 17.9q0 0 0.1 0 12.3 0.1 24.7 0.2c3.9 0.1 7.9-0.1 11.9-0.1q-0.9 2.2-2.2 4.2z"/><path class="e" d="m352.5 306.6c0 7 1.8 14.8 5.3 21.6q0.7 1.5 1.6 2.9c3.2 5.1 7.5 9.3 12.7 11.8 14.5 6.8 31.2 8.1 46.1 1.7 3.3-1.4 6.9-4 8.6-7.1 0.6-1.1 0.9-2.3 0.9-3.6q0-1-0.3-2c-0.5-1.5-1.5-2.9-2.7-4-2.7-2.5-6.1-4.2-9.8-4.8 12.5-0.6 25.8-3.2 34.4-12.3 1.4-1.4 2.6-3.2 3.2-5.1 0.3-1 0.4-2.1 0.2-3.1q0-0.3-0.1-0.5c-0.7-2.7-3.1-4.7-5.8-5.5-2.8-0.9-5.8-0.8-8.7-0.6 12.5-4.5 22.5-15.5 25.9-28.4 1-3.5 1.2-7.7-0.1-10.9-0.5-1.1-1.1-2-1.9-2.8q-0.5-0.6-1.2-1c-3.4-2.2-7.8-1.5-11.7-0.3-9.6 2.9-18.6 7.8-26.1 14.4 1.4-3.3 2-7.2 0.9-10.6-1-3.5-3.8-6.6-7.4-7.3q-0.1 0-0.2 0c-1.5-0.3-2.9-0.2-4.2 0.2-3.2 0.9-6.2 3.2-8.7 5.6-8 7.4-14.8 15.9-20.3 25.2-0.7-2.5-1.5-5.1-3.1-7.2-0.9-1.1-2-2-3.2-2.6-1.1-0.5-2.3-0.7-3.5-0.5q-0.1 0-0.2 0c-1.5 0.3-2.8 1.3-3.9 2.2-10.3 8.3-16.6 21.4-16.7 34.6z"/><path class="k" d="m372.3 321.9q-7.1 3.4-14.5 6.3-5.7 2.1-11.5 3.9c-2.1 0.6-1.3 3.9 0.7 3.2q6.3-1.8 12.4-4.2 8.3-3.2 16.2-7.1c3.3 2.9 7 5.4 10.9 7.5 12.2 6.6 26.7 8.8 40.3 6 0.6-1.1 0.9-2.3 0.9-3.6-16.9 4-35.5-0.3-48.9-11.6 9.9-5.1 19.4-11.1 28.5-17.5 14.3 6.1 30.7 6.4 45.2 0.9 0.3-1 0.4-2 0.2-3.1q0-0.3-0.1-0.5c-13.3 5.4-28.6 5.6-42.1 0.4q6.8-4.9 13.3-10.1c13.9-11.3 27-23.4 40.1-35.7-0.5-1.1-1.1-2-1.9-2.8-6.6 6.2-13.2 12.3-19.9 18.4-12.4 11.1-25.3 21.9-39 31.4-1.5-9.9 0.8-20 2.8-29.6 1.9-9 5.2-17.5 10.4-25-1.4-0.3-2.8-0.2-4.2 0.2q-1.5 2.3-2.7 4.7c-4.5 8.5-6.4 17.6-8.2 26.9-1.5 8.2-2.7 16.6-1.1 24.9q-2.1 1.4-4.2 2.8c-6.7 4.2-13.5 8.2-20.6 11.8-1.6-4-2.9-8.2-3.6-12.5-2.2-12.7-0.4-26 5.1-37.6-1.1-0.5-2.3-0.7-3.5-0.5q-0.5 1.1-1 2.3c-6.5 15.8-6.5 34 0 49.8z"/><path class="l" d="m364.4 345h-253c-5.1 0-9.2-4.1-9.2-9.2v-167c0-5.1 4.1-9.3 9.2-9.3h253c5.1 0 9.3 4.2 9.3 9.3v167c0 5.1-4.2 9.2-9.3 9.2z"/><path class="m" d="m117.2 174h241.4v164.8h-241.4z"/><path class="d" d="m408.4 336.2v9.3c0 4.3-3.8 7.8-8.4 7.8h-324.1c-4.7 0-8.4-3.5-8.4-7.8v-9.3c0-4.3 3.7-7.8 8.4-7.8h324.1c4.6 0 8.4 3.5 8.4 7.8z"/><path class="n" d="m265.9 328.4v0.9c0 4.1-3.3 7.4-7.4 7.4h-41.1c-4.1 0-7.5-3.3-7.5-7.4v-0.9z"/><text style="transform:matrix(1,0,0,1,163.925,272.773)" ><tspan x="0" y="0" class="o">404
</tspan></text><text style="transform:matrix(1,0,0,1,154.887,306.465)" ><tspan x="0" y="0" class="p">Page not Found
</tspan></text><path class="q" d="m375.5 290.2l9.9-5.2 8.9 17-9.9 5.2z"/><g style="opacity:.3"><path class="k" d="m344.6 210.9l12.8 79.3c-4.1-0.3-8.2-1.3-12-2.8l-11.4-70.1q3.4-2.8 7.4-4.9 1.6-0.8 3.2-1.5z"/><path class="k" d="m377 211.2l11.1 68.5c-2.6 2.3-5.4 4.3-8.6 5.9-3.1 1.6-6.4 2.8-9.7 3.6l-13.1-81.3c7-0.6 13.9 0.5 20.3 3.3z"/></g><path fill-rule="evenodd" class="r" d="m383.9 293.6q-0.1 0.1-0.2 0.1c-24.7 12.9-55.1 3.3-68-21.4-12.8-24.7-3.2-55.1 21.5-68q0.1 0 0.1-0.1c24.7-12.7 55-3.1 67.8 21.6 12.8 24.6 3.3 54.9-21.2 67.8zm13.1-63.6c-4.5-8.7-11.7-15.2-20-18.8-6.4-2.8-13.3-3.9-20.3-3.3-4.1 0.4-8.2 1.4-12.1 3q-1.6 0.7-3.2 1.5-4 2.1-7.4 4.9c-14.6 12.1-19.3 33.2-10.2 50.8 4.8 9.2 12.6 15.8 21.6 19.3 3.8 1.5 7.9 2.5 12 2.8 4.2 0.3 8.3 0 12.4-1 3.3-0.8 6.6-2 9.7-3.6 3.2-1.6 6-3.6 8.6-5.9 13.6-12.3 17.8-32.7 8.9-49.7z"/><path class="s" d="m378.3 282.8q-0.1 0.1-0.2 0.1c-18.7 9.8-41.8 2.5-51.6-16.2-9.7-18.8-2.4-41.8 16.3-51.6q0.1 0 0.2-0.1c18.7-9.6 41.6-2.3 51.3 16.4 9.8 18.6 2.6 41.6-16 51.4z"/><path class="r" d="m398.2 298.6l26.7 51.3c2.7 5.2 0.8 11.7-4.3 14.4q0 0.1-0.1 0.1c-5.2 2.8-11.7 0.7-14.5-4.5l-26.7-51.5c-1.3-2.4-0.4-5.3 2-6.6l10.3-5.3c2.4-1.2 5.3-0.3 6.6 2.1z"/><path class="g" d="m326.5 266.7c9.8 18.7 32.9 26 51.6 16.2q0.1 0 0.2-0.1l5.6 10.8q-0.1 0.1-0.2 0.1c-24.7 12.9-55.1 3.3-68-21.4-12.8-24.7-3.2-55.1 21.5-68q0.1 0 0.1-0.1l5.7 10.8q-0.1 0.1-0.2 0.1c-18.7 9.8-26 32.8-16.3 51.6z"/><path class="g" d="m381.3 301.8l5.3-2.7 34 65.2q0 0.1-0.1 0.1c-5.2 2.8-11.7 0.7-14.4-4.5l-26.8-51.5c-1.3-2.4-0.4-5.3 2-6.6z"/><path fill-rule="evenodd" class="t" d="m388.1 279.7c-2.6 2.3-5.4 4.3-8.6 5.9-3.1 1.6-6.4 2.8-9.7 3.6-4.1 1-8.2 1.3-12.4 1-4.1-0.3-8.2-1.3-12-2.8-9-3.5-16.8-10.1-21.6-19.3-9.1-17.6-4.4-38.7 10.2-50.8q3.4-2.8 7.4-4.9 1.6-0.8 3.2-1.5c3.9-1.6 8-2.6 12.1-3 7-0.6 13.9 0.5 20.3 3.3 8.3 3.6 15.5 10.1 20 18.8 8.9 17 4.7 37.4-8.9 49.7zm6.2-48.3c-9.7-18.7-32.6-26-51.3-16.4q-0.1 0.1-0.2 0.1c-18.7 9.8-26 32.8-16.3 51.6 9.8 18.7 32.9 26 51.6 16.2q0.1 0 0.2-0.1c18.6-9.8 25.8-32.8 16-51.4z"/><path class="u" d="m133.6 246.2c-1.8-3.1-4.1-6.1-4.7-9.3-1.9-9.8 3.8-23.7-7.5-29.9-5.4-3-12.4-2.6-17.7 0.5-4.1 2.4-7 6.5-7.4 11.3-0.4 3.3-0.4 11.6-0.1 15 0.5 5.6-0.7 5.7-3.6 10.6-2.1 3.3-4.3 7.4-2.7 11.4 0.9 2.1 2.9 3.8 5.2 4.1 2 0.4 4.4-0.1 6 1.1 1.6 1.2 2 3.3 3.6 4.4 2.2 1.6 6.1 2 8.7 2 3-0.1 6-1.1 8-3.3 3.3-3.6 3.9-3.3 8.5-4.2 2.3-0.3 4.3-2 5.2-4.1 1.4-3.5 0.2-6.6-1.5-9.6z"/><path class="v" d="m107.8 347.2l-0.5 15.6q0 0.4 0 0.7c0 1.1-0.2 2.3-0.6 3.5-0.6 2-3.3 5.5-4.8 6.9-1.3 1.2-3.6 2.2-5.4 1.4q-0.5-0.2-0.9-0.6c-2.5-2.2 0.5-5.7 2.3-8.3 0.5-0.7 1-1.4 1.1-1.9 0.6-1.4 0.7-17.6 0.8-17.5z"/><path class="j" d="m107.3 363.5c0 1.1-0.2 2.3-0.6 3.5-0.6 2-3.3 5.5-4.8 6.9-1.3 1.2-3.6 2.2-5.4 1.4q-0.5-0.2-0.9-0.6c-2.5-2.2 0.5-5.7 2.3-8.3-0.1 0.7-0.2 1.5 0 2.1 0.5 1.2 2.1 1.7 3.4 1.3 1.3-0.4 2.2-1.5 3-2.6 0.7-1.1 1.4-2.3 2.4-3.2 0.2-0.2 0.4-0.4 0.6-0.5z"/><path class="v" d="m120.5 347.2l0.4 15.6q0.1 0.4 0.1 0.7c0 1.1 0.1 2.3 0.5 3.5 0.6 2 3.3 5.5 4.8 6.9 1.3 1.2 3.6 2.2 5.4 1.4q0.5-0.2 1-0.6c2.5-2.2-0.5-5.7-2.4-8.3-0.5-0.7-0.9-1.4-1.1-1.9-0.5-1.4-0.6-17.6-0.7-17.5z"/><path class="j" d="m121 363.5c0 1.1 0.1 2.3 0.5 3.5 0.6 2 3.3 5.5 4.8 6.9 1.3 1.2 3.6 2.2 5.4 1.4q0.5-0.2 1-0.6c2.5-2.2-0.5-5.7-2.4-8.3 0.1 0.7 0.2 1.5 0.1 2.1-0.5 1.2-2.2 1.7-3.4 1.3-1.3-0.4-2.3-1.5-3-2.6-0.8-1.1-1.4-2.3-2.4-3.2q-0.3-0.3-0.6-0.5z"/><path class="f" d="m129.8 281.9c-8.8 0.3-23.9 0.8-25.7 0.8-3 0.1-5.3 0-7.2 0.1q-0.1 1.9-0.2 3.8c-0.3 4.1-5.5 70.8-4.5 72 0.9 1.1 11.1 1.4 17.7 1.3 0.2-3.4 1.6-51 2-65.9h2.7c1.2 18.9 1.9 46.5 3.1 65.2 6.5-0.5 17-1 17-1.7 0.5-10-4.1-52.7-4.9-75.6z"/><path class="k" d="m129.8 281.9c-8.8 0.3-23.9 0.8-25.7 0.8-3 0.1-5.3 0-7.2 0.1 0.7-9 1.4-22.1 2.7-31 0.2-1.4 0.5-2.8 0.9-4.2 0.9-2.8 2.3-5.3 4.9-7.1 3.4-2.4 8.1-3.2 12.1-1.9 3.8 1.3 6.6 4.4 8.2 7.9 1.7 3.5 2.3 7.4 2.8 11.2 0.5 3.9 1 15.3 1.3 24.2z"/><path class="w" d="m127.4 270.8c-9.5 1.3-19.1 1.6-28.7 0.7-1.1-0.1-2 1-2 2.1 0 1.2 0.9 1.9 2.1 2 9.5 0.9 19.1 0.7 28.6-0.7 1.1-0.1 2.1-0.8 2-2 0-1-0.9-2.2-2-2.1z"/><path class="w" d="m124.6 260.3q-12.9 1-25.9 0.4c-2.6-0.1-2.6 4 0.1 4.1q12.9 0.6 25.8-0.3c2.7-0.2 2.7-4.3 0-4.2z"/><path class="w" d="m123.2 250.2c-3.2 1.1-6.7 0.6-10.1 0.5q-5.4-0.1-10.8-0.3c-2.7 0-2.6 4.1 0 4.2q5.7 0.1 11.4 0.3c3.6 0.1 7.2 0.4 10.7-0.7 2.5-0.8 1.4-4.8-1.2-4z"/><path class="v" d="m168.8 249c0.8-0.3 1.7-0.8 1.8-1.7 0-0.5-0.3-1-0.8-1.3-0.4-0.3-0.9-0.4-1.4-0.5-2-0.4-4-0.4-6 0 0-0.6 0.1-1.3-0.2-1.8-0.3-0.6-0.9-1-1.5-0.8-0.6 0.3-0.7 1.1-1 1.7-0.3 0.9-1.2 1.6-1.9 2.3-0.7 0.7-1.4 1.5-1.4 2.5 0 0.9 0.5 1.7 1.1 2.2 2 1.7 3.2 0.4 5.2-0.5 2-0.8 4.1-1.3 6.1-2.1z"/><path class="j" d="m162.5 251.3c-0.8-1.1-1.9-2-3-2.8q-1.5-0.9-3-1.7c-3.8 4.7-8.1 8.9-12.9 12.7-1.3 1-2.9 2.1-4 2-1.6 0-3.3-2.3-4.6-4.3-2.8-4.2-5.4-9.4-8.6-13.4-0.6-0.8-8.1-7.1-8.4-4.2-0.2 2.3 0.9 17.6 1.4 24.5q1.3 20.7 2.7 41.5c0.1 2 1 22.9 1.5 23q6.5 0.3 13.1-0.2c-3.4-21.3-4.9-42.8-6.1-64.2 1.9 2.2 4.7 4.5 8.6 4.7q0.3 0 0.5 0c3.6 0 6.5-1.9 8.9-3.7 5.2-4.1 9.9-8.7 14-13.8q0 0-0.1-0.1z"/><path class="v" d="m57.2 249.2c-0.8-0.3-1.6-0.8-1.7-1.6 0-0.5 0.3-1 0.7-1.3 0.5-0.3 1-0.5 1.5-0.6 2-0.3 4-0.3 6 0.1-0.1-0.7-0.1-1.3 0.2-1.9 0.2-0.5 0.9-0.9 1.5-0.7 0.6 0.3 0.7 1.1 0.9 1.7 0.4 0.9 1.2 1.6 2 2.2 0.7 0.7 1.4 1.6 1.4 2.6 0 0.9-0.5 1.6-1.2 2.2-1.9 1.7-3.1 0.3-5.1-0.5-2-0.8-4.1-1.4-6.2-2.2z"/><path class="j" d="m108.1 239.9c-0.3-2.3-4.5 1.2-5.1 1.6-2.5 2-3.8 3.8-5.5 6.3l-6.4 9.7c-1.4 2-3.1 4.2-4.6 4.3-1.2 0-2.8-1.1-4-2-4.8-3.8-9.2-8.1-12.9-12.7q-1.6 0.7-3 1.7c-1.1 0.8-2.2 1.7-3.1 2.8q0 0.1 0 0.1c4 5.1 8.8 9.7 14 13.7 2.4 1.9 5.3 3.8 8.9 3.8q0.2 0 0.5 0c3.9-0.2 6.7-2.5 8.6-4.8-1.2 21.5-2.7 43-6.1 64.2q6.5 0.6 13.1 0.2c0.5 0 1.4-21 1.5-22.9q1.4-20.8 2.7-41.5c0.5-7 1.6-22.2 1.4-24.5z"/><path class="v" d="m117.2 228.5v11.9c0 2.4-1.9 4.3-4.3 4.3-2.3 0-4.3-1.9-4.3-4.3v-11.9z"/><path class="x" d="m117.2 230.7v8.3c-1.8 0.5-3.7 0.9-5.6 0.9-1 0-2-0.2-3-0.5v-7.3q0.8-0.4 1.5-0.6c2.3-0.7 4.7-0.9 7.1-0.8z"/><path class="v" d="m101.4 224.5c0 7.6 4.1 13.9 10.5 13.9 6.4 0 11.5-6.3 11.5-13.9 0-7.7-5.1-13.9-11.5-13.9-6.4 0-10.5 6.2-10.5 13.9z"/><path class="v" d="m120.5 225.8c-0.5 2.2 0.5 4.3 2.2 4.8 1.8 0.4 3.7-1.1 4.2-3.3 0.5-2.2-0.5-4.4-2.2-4.8-1.8-0.4-3.7 1.1-4.2 3.3z"/><path class="v" d="m97.7 227.3c-0.6-2.2 0.4-4.4 2.2-4.8 1.8-0.4 3.6 1.1 4.2 3.3 0.5 2.2-0.5 4.3-2.3 4.8-1.8 0.4-3.6-1.1-4.1-3.3z"/><path class="u" d="m103.5 210.3c-2.3 1.7-4.3 4-5.1 7-0.3 0.9-0.4 1.8 0 2.7 0.4 1.1 1.6 1.6 2.7 1.6 1.1-0.1 2.2-0.6 3.1-1.2q3.1-2 5.8-4.5c-0.6 1.2-1.2 2.8-0.5 3.9 0.8 1.5 2.8 1 4.2 0.3q2.1-1.2 4-2.9c-0.3 1.4 1.1 2.5 2.3 2.7 1.6 0.2 3.3-0.4 4.4-1.8 1-1.3 1.4-3.3 0.8-5-0.5-1.3-1.5-2.2-2.5-3-6.2-4.9-13-4.1-19.2 0.2z"/><path fill-rule="evenodd" class="k" d="m121.1 225.7c0 2.3-1.9 4.2-4.2 4.2-2.2 0-4-1.7-4.2-3.8h-1.6c-0.2 2.1-2 3.8-4.2 3.8-2.3 0-4.2-1.9-4.2-4.2 0-2.3 1.9-4.2 4.2-4.2 2.2 0 4 1.6 4.2 3.8h1.6c0.2-2.2 2-3.8 4.2-3.8 2.3 0 4.2 1.9 4.2 4.2zm-10.8 0c0-1.9-1.5-3.4-3.4-3.4-1.9 0-3.4 1.5-3.4 3.4 0 1.9 1.5 3.4 3.4 3.4 1.9 0 3.4-1.5 3.4-3.4zm10 0c0-1.9-1.5-3.4-3.4-3.4-1.9 0-3.4 1.5-3.4 3.4 0 1.9 1.5 3.4 3.4 3.4 1.9 0 3.4-1.5 3.4-3.4z"/><path class="y" d="m247.1 399.5q-0.6 0.6-1.1 1.4l-0.5-0.2c0-0.3-0.3-0.5-0.6-0.5-0.4 0-0.6 0.3-0.6 0.7 0.1 0.3 0.4 0.5 0.7 0.5q0.1 0 0.2 0l0.4 0.2q-0.3 0.8-0.5 1.7l0.8 0.2c0.2-1.3 0.8-2.5 1.7-3.5z"/><path class="y" d="m252.6 397.2q-0.3 0-0.5 0l-0.1-0.6c0.2-0.2 0.3-0.4 0.3-0.7-0.1-0.4-0.4-0.7-0.8-0.6-0.4 0-0.7 0.4-0.6 0.8 0 0.2 0.1 0.4 0.4 0.5v0.7q-1 0.1-2 0.6l0.3 0.7q1.4-0.7 3-0.7 0.7 0 1.5 0.2l0.1-0.8q-0.8-0.1-1.6-0.1z"/><path class="y" d="m259.2 399.7c0.3 0 0.6-0.3 0.5-0.7 0-0.3-0.3-0.5-0.7-0.5-0.3 0.1-0.5 0.3-0.5 0.6l-0.4 0.4q-0.6-0.7-1.4-1.2l-0.4 0.7c1.1 0.7 2 1.7 2.6 2.9l0.6-0.3q-0.3-0.8-0.9-1.5l0.4-0.4q0.1 0 0.2 0z"/><path class="y" d="m252 407.4q-0.5 0-1.1 0c-0.9 0-1.7-0.1-2.5-0.2-0.4 0-0.8-0.1-1.3-0.3 1.1 1.9 3.1 3.2 5.4 3.2 2.9 0 5.3-2 6-4.5q-1.1 0.6-2.5 1.1c-1.2 0.3-2.5 0.6-4 0.7z"/><path fill-rule="evenodd" class="y" d="m258.6 403.9q0.1 0.3 0.1 0.6c-1.4 1.2-3.8 1.9-6.7 2.1-2.6 0.2-4.7-0.2-5.4-0.7q-0.1-0.6-0.1-1.3c0-3.3 2.7-5.9 6.1-5.9 3 0 5.6 2.2 6 5.2zm-6.3-0.6c0-1-0.8-1.8-1.9-1.8-1 0-1.8 0.8-1.8 1.8 0 1.1 0.8 1.9 1.8 1.9 1.1 0 1.9-0.8 1.9-1.9zm4.2-0.4c0-0.7-0.6-1.3-1.3-1.3-0.8 0-1.4 0.6-1.4 1.3 0 0.8 0.6 1.4 1.4 1.4 0.7 0 1.3-0.6 1.3-1.4z"/><path class="y" d="m268.6 400.5c-0.3-0.1-0.8-0.3-1.4-0.2-0.5 0.1-0.8 0.4-0.8 1v0.9h2.2v1.7h-2.2v5.5h-2v-5.5h-1.3v-1.7h1.3v-0.9c0-1.7 0.9-2.8 2.6-2.8 0.6 0 1.2 0.1 1.6 0.3 0 0 0 1.7 0 1.7z"/><path class="y" d="m273.3 403.9q-0.3-0.1-0.5-0.1c-0.9 0-1.5 0.6-1.5 1.6v4h-2v-7.2h1.9v0.8c0.5-0.7 1.1-1 2-1 0.4 0 0.9 0.1 1.1 0.3z"/><path fill-rule="evenodd" class="y" d="m281 405.8c0 0.2-0.1 0.4-0.1 0.6h-5.1c0.3 1 1 1.5 1.9 1.5 0.6 0 1.3-0.3 1.8-0.7l1.1 1.2c-0.8 0.8-1.8 1.1-3 1.1-2.2 0-3.7-1.5-3.7-3.7 0-2.3 1.4-3.8 3.6-3.8 2 0 3.5 1.5 3.5 3.8zm-5.1-0.7h3.1c-0.2-0.9-0.7-1.4-1.5-1.4-0.9 0-1.5 0.5-1.6 1.4z"/><path fill-rule="evenodd" class="y" d="m288.6 405.8c0 0.2 0 0.4 0 0.6h-5.1c0.2 1 0.9 1.5 1.8 1.5 0.7 0 1.3-0.3 1.9-0.7l1.1 1.2c-0.8 0.8-1.9 1.1-3.1 1.1-2.2 0-3.7-1.5-3.7-3.7 0-2.3 1.5-3.8 3.6-3.8 2.1 0 3.5 1.5 3.5 3.8zm-5.1-0.7h3.2c-0.2-0.9-0.8-1.4-1.6-1.4-0.9 0-1.4 0.5-1.6 1.4z"/><path fill-rule="evenodd" class="y" d="m297 405.8c0 2.1-1.5 3.7-3.5 3.7-1 0-1.7-0.3-2.1-0.9v3.7h-1.9v-10.1h1.8v0.8c0.5-0.6 1.2-1 2.2-1 2 0 3.5 1.6 3.5 3.8zm-5.7 0c0 1.1 0.7 1.9 1.8 1.9 1.2 0 1.9-0.8 1.9-1.9 0-1.1-0.7-2-1.9-2-1.1 0-1.8 0.8-1.8 2z"/><path class="y" d="m300.1 399.8c0 0.7-0.6 1.3-1.3 1.3-0.7 0-1.2-0.6-1.2-1.3 0-0.7 0.5-1.2 1.2-1.2 0.7 0 1.3 0.5 1.3 1.2zm-0.3 9.6h-1.9v-7.2h1.9z"/><path class="y" d="m303 404.7l2.7-2.5h2.4l-3.5 3.4 3.5 3.8h-2.4l-2.7-2.9v2.9h-1.9v-10.7h1.9z"/><path fill-rule="evenodd" class="y" d="m171.4 409.3v-1.1c-0.5 0.8-1.4 1.3-2.4 1.3-1.8 0-3.1-1.4-3.1-3.7 0-2.3 1.3-3.8 3.1-3.8 1 0 1.8 0.5 2.4 1.3v-3.8h1.1v9.8c0 0-1.1 0-1.1 0zm0-1.9v-3.2c-0.4-0.7-1.2-1.2-2.1-1.2-1.4 0-2.3 1.2-2.3 2.8 0 1.5 0.9 2.7 2.3 2.7 0.9 0 1.7-0.5 2.1-1.1z"/><path fill-rule="evenodd" class="y" d="m173.9 405.7c0-2 1.5-3.7 3.5-3.7 2.2 0 3.4 1.7 3.4 3.8v0.3h-5.7c0.1 1.3 1 2.5 2.5 2.5 0.8 0 1.7-0.4 2.2-0.9l0.5 0.7c-0.7 0.7-1.6 1.1-2.8 1.1-2.1 0-3.6-1.5-3.6-3.8zm3.5-2.8c-1.5 0-2.3 1.3-2.3 2.4h4.6c0-1-0.7-2.4-2.3-2.4z"/><path class="y" d="m181.6 408.4l0.6-0.8c0.4 0.5 1.3 1 2.3 1 1.1 0 1.7-0.5 1.7-1.2 0-1.8-4.4-0.7-4.4-3.3 0-1.1 0.9-2.1 2.6-2.1 1.2 0 2.1 0.5 2.7 1.1l-0.6 0.7c-0.4-0.5-1.2-0.9-2.1-0.9-0.9 0-1.5 0.5-1.5 1.1 0 1.6 4.3 0.6 4.3 3.3 0 1.2-0.9 2.2-2.7 2.2-1.2 0-2.2-0.4-2.9-1.1z"/><path class="y" d="m188.5 400.5c0-0.4 0.3-0.8 0.7-0.8 0.4 0 0.8 0.4 0.8 0.8 0 0.4-0.4 0.7-0.8 0.7-0.4 0-0.7-0.3-0.7-0.7zm0.2 8.8v-7.1h1.1v7.1z"/><path fill-rule="evenodd" class="y" d="m191.6 411.1l0.5-0.8c0.6 0.7 1.3 1 2.3 1 1.2 0 2.3-0.6 2.3-2.2v-1c-0.5 0.7-1.4 1.3-2.4 1.3-1.8 0-3.1-1.4-3.1-3.7 0-2.3 1.3-3.7 3.1-3.7 1 0 1.8 0.5 2.4 1.3v-1.1h1.1v6.9c0 2.3-1.6 3.1-3.4 3.1-1.2 0-2-0.3-2.8-1.1zm5.1-3.8v-3.1c-0.4-0.7-1.2-1.2-2.1-1.2-1.4 0-2.3 1.1-2.3 2.7 0 1.6 0.9 2.7 2.3 2.7 0.9 0 1.7-0.5 2.1-1.1z"/><path class="y" d="m204.4 409.3v-4.6c0-1.3-0.6-1.7-1.6-1.7-0.8 0-1.7 0.5-2.1 1.1v5.2h-1.1v-7.1h1.1v1c0.5-0.5 1.5-1.2 2.6-1.2 1.4 0 2.2 0.8 2.2 2.3v5z"/><path fill-rule="evenodd" class="y" d="m206.9 405.7c0-2 1.5-3.7 3.5-3.7 2.2 0 3.4 1.7 3.4 3.8v0.3h-5.7c0.1 1.3 1 2.5 2.5 2.5 0.8 0 1.7-0.4 2.2-0.9l0.5 0.7c-0.7 0.7-1.6 1.1-2.8 1.1-2.1 0-3.6-1.5-3.6-3.8zm3.5-2.8c-1.5 0-2.3 1.3-2.3 2.4h4.6c0-1-0.7-2.4-2.3-2.4z"/><path fill-rule="evenodd" class="y" d="m220.3 409.3v-1.1c-0.5 0.8-1.3 1.3-2.3 1.3-1.9 0-3.2-1.4-3.2-3.7 0-2.3 1.3-3.8 3.2-3.8 0.9 0 1.8 0.5 2.3 1.3v-3.8h1.1v9.8c0 0-1.1 0-1.1 0zm0-1.9v-3.2c-0.3-0.7-1.2-1.2-2.1-1.2-1.4 0-2.2 1.2-2.2 2.8 0 1.5 0.8 2.7 2.2 2.7 0.9 0 1.8-0.5 2.1-1.1z"/><path fill-rule="evenodd" class="y" d="m226.7 409.3v-9.8h1.1v3.8c0.6-0.8 1.4-1.3 2.4-1.3 1.8 0 3.1 1.5 3.1 3.8 0 2.3-1.3 3.7-3.1 3.7-1 0-1.9-0.5-2.4-1.3v1.1c0 0-1.1 0-1.1 0zm3.2-0.8c1.4 0 2.3-1.2 2.3-2.7 0-1.6-0.9-2.8-2.3-2.8-0.9 0-1.7 0.5-2.1 1.2v3.2c0.4 0.6 1.2 1.1 2.1 1.1z"/><path class="y" d="m234.5 411.1c0.2 0 0.5 0.1 0.6 0.1 0.5 0 0.8-0.2 1.1-0.8l0.5-1-3-7.2h1.2l2.3 5.8 2.4-5.8h1.2l-3.6 8.5c-0.4 1-1.1 1.4-2 1.5-0.3 0-0.6-0.1-0.8-0.1z"/></svg>