<svg xmlns="http://www.w3.org/2000/svg" xmlns:xlink="http://www.w3.org/1999/xlink" width="1024" zoomAndPan="magnify" viewBox="0 0 768 576" height="768" preserveAspectRatio="xMidYMid meet" version="1.0"><defs><clipPath id="9fb8dfb8ef"><path d="M 129.101562 152 L 301 152 L 301 462 L 129.101562 462 Z M 129.101562 152 " clip-rule="nonzero"/></clipPath><clipPath id="92837f8c3e"><path d="M 152 35.683594 L 458 35.683594 L 458 238 L 152 238 Z M 152 35.683594 " clip-rule="nonzero"/></clipPath><clipPath id="4e8639588f"><path d="M 290 81.484375 L 379.15625 81.484375 L 379.15625 171 L 290 171 Z M 290 81.484375 " clip-rule="nonzero"/></clipPath><clipPath id="a8ba3f46d7"><path d="M 288.40625 138 L 323 138 L 323 172.234375 L 288.40625 172.234375 Z M 288.40625 138 " clip-rule="nonzero"/></clipPath><clipPath id="896f2b6a22"><path d="M 473 152 L 534.375 152 L 534.375 245 L 473 245 Z M 473 152 " clip-rule="nonzero"/></clipPath><clipPath id="1f19dc892a"><path d="M 266 420 L 342 420 L 342 473.632812 L 266 473.632812 Z M 266 420 " clip-rule="nonzero"/></clipPath><clipPath id="1dea350727"><path d="M 255.292969 430 L 306 430 L 306 451 L 255.292969 451 Z M 255.292969 430 " clip-rule="nonzero"/></clipPath><clipPath id="1edcfe487c"><path d="M 257 386.632812 L 339 386.632812 L 339 429 L 257 429 Z M 257 386.632812 " clip-rule="nonzero"/></clipPath><clipPath id="2b98000ca0"><path d="M 447.035156 352.0625 L 534.035156 352.0625 L 534.035156 439.0625 L 447.035156 439.0625 Z M 447.035156 352.0625 " clip-rule="nonzero"/></clipPath><clipPath id="b6c2812dc2"><path d="M 162 229.113281 L 255 229.113281 L 255 310.863281 L 162 310.863281 Z M 162 229.113281 " clip-rule="nonzero"/></clipPath></defs><g clip-path="url(#9fb8dfb8ef)"><path fill="#d7acf9" d="M 192.636719 377.210938 L 205.941406 461.125 C 159.3125 417.574219 130.167969 355.570312 130.167969 286.765625 C 130.152344 265.804688 132.894531 244.929688 138.328125 224.683594 L 138.132812 224.621094 C 135.835938 223.875 133.8125 222.46875 132.316406 220.574219 C 130.824219 218.679688 129.921875 216.386719 129.734375 213.980469 C 129.542969 211.574219 130.070312 209.167969 131.25 207.0625 C 132.429688 204.957031 134.207031 203.25 136.359375 202.15625 L 137.933594 201.355469 L 147.941406 196.261719 L 231.789062 153.582031 C 234.675781 152.117188 238.027344 151.851562 241.105469 152.851562 C 244.183594 153.851562 246.738281 156.03125 248.210938 158.910156 L 292.210938 245.171875 L 296.25 253.089844 L 296.835938 254.242188 C 297.785156 256.101562 298.238281 258.171875 298.15625 260.257812 C 298.074219 262.34375 297.457031 264.375 296.363281 266.152344 C 295.273438 267.933594 293.742188 269.402344 291.921875 270.421875 C 290.097656 271.441406 288.042969 271.976562 285.953125 271.976562 C 284.957031 271.976562 283.960938 271.851562 282.992188 271.605469 C 280.882812 283.640625 281.316406 295.984375 284.269531 307.839844 C 287.21875 319.695312 292.625 330.800781 300.132812 340.445312 L 208.875 354.882812 C 203.761719 355.699219 199.179688 358.507812 196.132812 362.691406 C 193.089844 366.878906 191.832031 372.101562 192.636719 377.210938 Z M 192.636719 377.210938 " fill-opacity="1" fill-rule="nonzero"/></g><path fill="#38b6ff" d="M 484.765625 495.671875 C 446.800781 516.621094 403.851562 526.863281 360.507812 525.300781 C 317.164062 523.738281 275.0625 510.429688 238.707031 486.804688 L 238.566406 487 C 237.433594 488.558594 235.949219 489.824219 234.230469 490.699219 C 232.515625 491.574219 230.617188 492.027344 228.691406 492.03125 C 227.730469 492.027344 226.773438 491.917969 225.835938 491.695312 C 223.488281 491.128906 221.359375 489.882812 219.722656 488.113281 C 218.082031 486.339844 217.003906 484.121094 216.625 481.738281 L 216.339844 479.914062 L 214.578125 468.824219 L 199.875 376.066406 C 199.621094 374.484375 199.6875 372.867188 200.058594 371.3125 C 200.433594 369.753906 201.113281 368.285156 202.054688 366.988281 C 202.996094 365.691406 204.183594 364.59375 205.550781 363.757812 C 206.917969 362.921875 208.4375 362.363281 210.023438 362.113281 L 305.765625 346.964844 L 314.550781 345.574219 L 315.808594 345.371094 C 316.4375 345.273438 317.078125 345.222656 317.714844 345.222656 C 319.898438 345.222656 322.039062 345.804688 323.917969 346.910156 C 325.796875 348.015625 327.34375 349.605469 328.398438 351.511719 C 329.457031 353.421875 329.980469 355.574219 329.921875 357.75 C 329.863281 359.929688 329.21875 362.050781 328.0625 363.898438 C 338.863281 369.621094 350.75 373.019531 362.945312 373.882812 C 375.144531 374.742188 387.386719 373.046875 398.890625 368.898438 L 384.4375 460.039062 C 383.632812 465.148438 384.890625 470.371094 387.9375 474.558594 C 390.980469 478.742188 395.5625 481.554688 400.675781 482.367188 Z M 484.765625 495.671875 " fill-opacity="1" fill-rule="nonzero"/><path fill="#a6e390" d="M 519.242188 472.453125 L 519.394531 472.660156 C 520.71875 474.480469 521.511719 476.628906 521.691406 478.871094 C 521.867188 481.117188 521.421875 483.363281 520.398438 485.367188 C 519.375 487.371094 517.820312 489.054688 515.898438 490.230469 C 513.980469 491.40625 511.769531 492.03125 509.519531 492.03125 C 508.878906 492.03125 508.242188 491.980469 507.609375 491.878906 L 505.808594 491.589844 L 505.800781 491.589844 L 494.726562 489.839844 L 401.824219 475.136719 C 400.242188 474.886719 398.722656 474.328125 397.355469 473.492188 C 395.988281 472.65625 394.800781 471.558594 393.859375 470.261719 C 392.914062 468.964844 392.238281 467.5 391.863281 465.941406 C 391.488281 464.382812 391.425781 462.765625 391.675781 461.183594 L 406.835938 365.566406 L 408.230469 356.785156 L 408.429688 355.511719 C 408.792969 353.199219 409.816406 351.042969 411.378906 349.296875 C 412.9375 347.550781 414.964844 346.289062 417.222656 345.664062 C 419.476562 345.039062 421.867188 345.074219 424.105469 345.769531 C 426.339844 346.464844 428.332031 347.785156 429.835938 349.578125 C 438.289062 341.445312 445.015625 331.6875 449.597656 320.894531 C 454.1875 310.097656 456.542969 298.492188 456.527344 286.765625 C 456.527344 285.785156 456.511719 284.808594 456.476562 283.839844 L 538.808594 325.742188 C 541.554688 327.136719 544.589844 327.867188 547.667969 327.871094 C 551.277344 327.882812 554.8125 326.890625 557.890625 325.007812 C 560.964844 323.125 563.453125 320.425781 565.082031 317.210938 L 603.734375 241.441406 C 606.605469 256.378906 608.050781 271.554688 608.042969 286.765625 C 608.042969 361.777344 573.410156 428.699219 519.242188 472.453125 Z M 519.242188 472.453125 " fill-opacity="1" fill-rule="nonzero"/><path fill="#ffbc7d" d="M 607.179688 218.5625 L 606.378906 220.132812 L 601.277344 230.140625 L 558.554688 313.886719 C 557.828125 315.316406 556.828125 316.585938 555.609375 317.628906 C 554.390625 318.671875 552.976562 319.460938 551.453125 319.957031 C 549.925781 320.453125 548.320312 320.640625 546.71875 320.515625 C 545.121094 320.390625 543.5625 319.949219 542.132812 319.222656 L 455.773438 275.261719 L 447.851562 271.230469 L 446.703125 270.644531 C 444.617188 269.582031 442.882812 267.941406 441.703125 265.917969 C 440.523438 263.894531 439.949219 261.578125 440.054688 259.238281 C 440.160156 256.898438 440.933594 254.640625 442.289062 252.730469 C 443.644531 250.820312 445.519531 249.339844 447.691406 248.464844 C 442.320312 237.492188 434.707031 227.761719 425.347656 219.902344 C 415.984375 212.042969 405.078125 206.230469 393.332031 202.832031 L 458.652344 137.582031 C 462.308594 133.917969 464.363281 128.953125 464.363281 123.777344 C 464.363281 118.605469 462.308594 113.640625 458.652344 109.976562 L 398.480469 49.871094 C 487.46875 60.765625 561.332031 120.539062 592.332031 201.484375 L 592.527344 201.421875 C 594.828125 200.675781 597.292969 200.628906 599.617188 201.28125 C 601.941406 201.9375 604.019531 203.265625 605.589844 205.101562 C 607.15625 206.9375 608.144531 209.195312 608.429688 211.589844 C 608.710938 213.984375 608.277344 216.414062 607.179688 218.5625 Z M 607.179688 218.5625 " fill-opacity="1" fill-rule="nonzero"/><g clip-path="url(#92837f8c3e)"><path fill="#fd7373" d="M 453.46875 132.402344 L 377.738281 208.058594 C 376.082031 209.714844 373.980469 210.859375 371.691406 211.355469 C 369.402344 211.851562 367.019531 211.679688 364.824219 210.859375 C 362.628906 210.035156 360.71875 208.601562 359.316406 206.726562 C 357.914062 204.851562 357.082031 202.609375 356.921875 200.277344 C 344.808594 201.976562 333.191406 206.195312 322.816406 212.664062 C 312.4375 219.132812 303.539062 227.703125 296.6875 237.824219 L 254.742188 155.589844 C 253.105469 152.382812 250.613281 149.691406 247.539062 147.8125 C 244.46875 145.933594 240.9375 144.9375 237.335938 144.933594 C 234.25 144.9375 231.210938 145.667969 228.464844 147.066406 L 152.589844 185.679688 C 189.066406 107.863281 266.335938 52.941406 356.890625 48.386719 L 356.890625 48.125 C 356.890625 45.710938 357.609375 43.355469 358.949219 41.347656 C 360.292969 39.34375 362.199219 37.78125 364.429688 36.855469 C 366.664062 35.933594 369.117188 35.691406 371.488281 36.164062 C 373.855469 36.636719 376.03125 37.796875 377.738281 39.503906 L 379.050781 40.8125 L 453.46875 115.152344 C 455.757812 117.441406 457.046875 120.542969 457.046875 123.777344 C 457.046875 127.011719 455.757812 130.117188 453.46875 132.402344 Z M 453.46875 132.402344 " fill-opacity="1" fill-rule="nonzero"/></g><g clip-path="url(#4e8639588f)"><path fill="#212121" d="M 377.386719 81.359375 C 377.386719 81.359375 377.386719 81.359375 377.382812 81.359375 L 358.066406 81.4375 C 350.449219 81.46875 343.410156 84.941406 338.746094 90.960938 L 328.496094 104.171875 L 308.71875 104.171875 C 304.867188 104.171875 301.222656 105.839844 298.703125 108.75 L 290.757812 117.949219 C 290.371094 118.394531 290.214844 118.992188 290.332031 119.570312 C 290.453125 120.144531 290.832031 120.632812 291.363281 120.890625 L 309.066406 129.433594 C 307 133.078125 307.542969 137.738281 310.578125 140.769531 L 319.847656 150.042969 C 321.679688 151.871094 324.101562 152.808594 326.539062 152.808594 C 328.15625 152.808594 329.769531 152.375 331.226562 151.542969 L 339.789062 169.277344 C 340.042969 169.808594 340.527344 170.1875 341.109375 170.304688 C 341.234375 170.332031 341.363281 170.34375 341.492188 170.34375 C 341.941406 170.34375 342.382812 170.183594 342.730469 169.882812 L 351.925781 161.929688 C 354.832031 159.417969 356.5 155.765625 356.5 151.917969 L 356.5 131.941406 L 369.746094 121.59375 C 375.722656 116.925781 379.164062 109.90625 379.195312 102.324219 L 379.277344 83.253906 C 379.277344 82.75 379.078125 82.265625 378.722656 81.910156 C 378.371094 81.558594 377.890625 81.359375 377.386719 81.359375 Z M 301.566406 111.222656 C 303.363281 109.144531 305.972656 107.953125 308.71875 107.953125 L 325.566406 107.953125 L 311.324219 126.324219 L 295.230469 118.554688 Z M 352.722656 151.921875 C 352.722656 154.671875 351.53125 157.28125 349.453125 159.074219 L 342.125 165.410156 L 334.332031 149.265625 L 352.722656 134.894531 Z M 375.417969 102.3125 C 375.390625 108.726562 372.476562 114.667969 367.425781 118.617188 L 330.027344 147.828125 C 327.773438 149.589844 324.550781 149.394531 322.527344 147.371094 L 313.253906 138.097656 C 311.238281 136.082031 311.039062 132.863281 312.78125 130.609375 L 341.730469 93.273438 C 345.679688 88.183594 351.636719 85.246094 358.082031 85.21875 L 375.492188 85.148438 Z M 375.417969 102.3125 " fill-opacity="1" fill-rule="nonzero"/></g><g clip-path="url(#a8ba3f46d7)"><path fill="#212121" d="M 290.296875 172.234375 L 305.019531 172.234375 C 311.753906 172.234375 317.863281 168.253906 320.582031 162.09375 L 322.273438 158.265625 C 322.691406 157.3125 322.261719 156.195312 321.308594 155.769531 C 320.347656 155.351562 319.238281 155.78125 318.8125 156.734375 L 317.121094 160.566406 C 315.007812 165.355469 310.257812 168.453125 305.019531 168.453125 L 292.1875 168.453125 L 292.1875 155.742188 C 292.1875 150.441406 295.335938 145.664062 300.207031 143.578125 L 304.273438 141.832031 C 305.234375 141.421875 305.679688 140.3125 305.269531 139.351562 C 304.855469 138.390625 303.738281 137.9375 302.789062 138.359375 L 298.71875 140.101562 C 292.449219 142.78125 288.40625 148.921875 288.40625 155.742188 L 288.40625 170.34375 C 288.40625 171.386719 289.25 172.234375 290.296875 172.234375 Z M 290.296875 172.234375 " fill-opacity="1" fill-rule="nonzero"/></g><path fill="#212121" d="M 348.90625 104.171875 C 348.90625 108.34375 352.296875 111.734375 356.46875 111.734375 C 360.636719 111.734375 364.03125 108.34375 364.03125 104.171875 C 364.03125 100 360.636719 96.609375 356.46875 96.609375 C 352.296875 96.609375 348.90625 100 348.90625 104.171875 Z M 360.25 104.171875 C 360.25 106.253906 358.550781 107.953125 356.46875 107.953125 C 354.382812 107.953125 352.6875 106.253906 352.6875 104.171875 C 352.6875 102.089844 354.382812 100.390625 356.46875 100.390625 C 358.550781 100.390625 360.25 102.089844 360.25 104.171875 Z M 360.25 104.171875 " fill-opacity="1" fill-rule="nonzero"/><g clip-path="url(#896f2b6a22)"><path fill="#212121" d="M 498.097656 244.597656 L 509.554688 244.597656 C 512.710938 244.597656 515.28125 242.019531 515.28125 238.847656 L 515.28125 234.664062 C 517.5 233.871094 519.101562 231.761719 519.101562 229.269531 L 519.101562 219.996094 C 519.101562 214.332031 521.269531 208.984375 525.054688 205.316406 C 531.066406 199.492188 534.375 191.667969 534.375 183.285156 C 534.375 174.578125 530.667969 166.253906 524.199219 160.441406 C 517.640625 154.550781 509.191406 151.851562 500.34375 152.824219 C 486.808594 154.332031 475.558594 165.214844 473.605469 178.703125 C 472.171875 188.574219 475.378906 198.207031 482.402344 205.136719 C 486.3125 208.984375 488.546875 214.398438 488.546875 219.992188 L 488.546875 228.257812 C 488.546875 231.824219 490.304688 233.890625 492.367188 234.660156 L 492.367188 238.847656 C 492.367188 242.019531 494.9375 244.597656 498.097656 244.597656 Z M 509.554688 240.765625 L 498.097656 240.765625 C 497.042969 240.765625 496.1875 239.90625 496.1875 238.847656 L 496.1875 235.015625 L 511.460938 235.015625 L 511.460938 238.847656 C 511.460938 239.90625 510.605469 240.765625 509.554688 240.765625 Z M 513.371094 231.183594 L 494.277344 231.183594 C 492.503906 231.183594 492.367188 228.941406 492.367188 228.257812 L 492.367188 223.519531 L 515.28125 223.519531 L 515.28125 229.269531 C 515.28125 230.328125 514.425781 231.183594 513.371094 231.183594 Z M 485.085938 202.398438 C 478.941406 196.335938 476.132812 187.898438 477.386719 179.25 C 479.09375 167.460938 488.925781 157.949219 500.769531 156.628906 C 501.804688 156.515625 502.835938 156.460938 503.859375 156.460938 C 510.457031 156.460938 516.683594 158.832031 521.652344 163.296875 C 527.3125 168.382812 530.558594 175.667969 530.558594 183.285156 C 530.558594 190.617188 527.660156 197.460938 522.402344 202.558594 C 517.945312 206.878906 515.375 213.109375 515.296875 219.6875 L 492.351562 219.6875 C 492.273438 213.183594 489.640625 206.894531 485.085938 202.398438 Z M 485.085938 202.398438 " fill-opacity="1" fill-rule="nonzero"/></g><g clip-path="url(#1f19dc892a)"><path fill="#212121" d="M 325.792969 423.378906 L 311.496094 437.679688 C 310.789062 438.386719 310.789062 439.535156 311.496094 440.242188 C 312.199219 440.949219 313.351562 440.949219 314.058594 440.242188 L 328.359375 425.941406 C 330.558594 423.742188 334.398438 423.738281 336.597656 425.941406 C 337.707031 427.054688 338.316406 428.53125 338.304688 430.101562 C 338.292969 431.671875 337.671875 433.140625 336.542969 434.238281 L 310.964844 459.160156 C 308.582031 461.476562 305.441406 462.757812 302.113281 462.757812 L 285.582031 462.757812 C 278.519531 462.757812 271.882812 465.507812 266.886719 470.5 C 266.183594 471.207031 266.183594 472.355469 266.886719 473.0625 C 267.242188 473.417969 267.707031 473.59375 268.171875 473.59375 C 268.636719 473.59375 269.101562 473.414062 269.457031 473.0625 C 273.761719 468.757812 279.488281 466.382812 285.582031 466.382812 L 302.113281 466.382812 C 306.390625 466.382812 310.433594 464.738281 313.5 461.753906 L 339.078125 436.832031 C 340.898438 435.054688 341.914062 432.671875 341.933594 430.121094 C 341.949219 427.574219 340.964844 425.175781 339.164062 423.375 C 335.589844 419.804688 329.367188 419.808594 325.792969 423.378906 Z M 325.792969 423.378906 " fill-opacity="1" fill-rule="nonzero"/></g><g clip-path="url(#1dea350727)"><path fill="#212121" d="M 257.648438 450.070312 C 258.113281 450.070312 258.578125 449.894531 258.933594 449.542969 L 267.679688 440.792969 C 272.214844 436.253906 278.246094 433.757812 284.660156 433.757812 L 295.710938 433.757812 C 299.210938 433.757812 302.054688 436.605469 302.054688 440.101562 C 302.054688 443.601562 299.210938 446.445312 295.710938 446.445312 L 287.554688 446.445312 C 286.554688 446.445312 285.742188 447.257812 285.742188 448.257812 C 285.742188 449.257812 286.554688 450.070312 287.554688 450.070312 L 295.710938 450.070312 C 301.210938 450.070312 305.679688 445.601562 305.679688 440.101562 C 305.679688 434.601562 301.210938 430.132812 295.710938 430.132812 L 284.660156 430.132812 C 277.277344 430.132812 270.335938 433.007812 265.117188 438.226562 L 256.367188 446.976562 C 255.660156 447.679688 255.660156 448.832031 256.367188 449.539062 C 256.71875 449.894531 257.183594 450.070312 257.648438 450.070312 Z M 257.648438 450.070312 " fill-opacity="1" fill-rule="nonzero"/></g><g clip-path="url(#1edcfe487c)"><path fill="#212121" d="M 271.605469 419.257812 C 276.585938 419.257812 280.75 415.871094 282.035156 411.292969 C 288.855469 413.574219 293.355469 419.261719 293.355469 426.507812 C 293.355469 427.507812 294.167969 428.320312 295.167969 428.320312 C 296.167969 428.320312 296.980469 427.507812 296.980469 426.507812 C 296.980469 415.78125 299.613281 408.960938 304.992188 405.554688 C 306.875 411.378906 312.289062 415.632812 318.730469 415.632812 C 329.777344 415.632812 337.714844 402.621094 338.046875 402.066406 C 338.390625 401.492188 338.390625 400.773438 338.046875 400.199219 C 337.714844 399.648438 329.777344 386.632812 318.730469 386.632812 C 310.734375 386.632812 304.230469 393.136719 304.230469 401.132812 C 304.230469 401.320312 304.277344 401.5 304.285156 401.6875 C 299.148438 404.359375 295.8125 409.308594 294.304688 416.503906 C 291.78125 412.242188 287.609375 409.082031 282.394531 407.574219 C 281.976562 401.960938 277.324219 397.507812 271.605469 397.507812 C 263.421875 397.507812 257.609375 407.046875 257.363281 407.453125 C 257.019531 408.023438 257.019531 408.742188 257.363281 409.316406 C 257.609375 409.71875 263.421875 419.257812 271.605469 419.257812 Z M 318.730469 390.257812 C 326.203125 390.257812 332.40625 398.339844 334.324219 401.132812 C 332.40625 403.925781 326.203125 412.007812 318.730469 412.007812 C 313.734375 412.007812 309.5625 408.609375 308.289062 404.011719 C 310.300781 403.351562 312.527344 402.945312 315.105469 402.945312 C 316.105469 402.945312 316.917969 402.132812 316.917969 401.132812 C 316.917969 400.132812 316.105469 399.320312 315.105469 399.320312 C 312.480469 399.320312 310.097656 399.632812 307.945312 400.234375 C 308.410156 394.664062 313.042969 390.257812 318.730469 390.257812 Z M 271.605469 401.132812 C 275.0625 401.132812 277.953125 403.570312 278.671875 406.808594 C 277.554688 406.667969 276.414062 406.570312 275.230469 406.570312 C 274.230469 406.570312 273.417969 407.382812 273.417969 408.382812 C 273.417969 409.382812 274.230469 410.195312 275.230469 410.195312 C 276.363281 410.195312 277.453125 410.3125 278.515625 410.46875 C 277.613281 413.445312 274.875 415.632812 271.605469 415.632812 C 266.742188 415.632812 262.617188 410.527344 261.097656 408.382812 C 262.617188 406.238281 266.742188 401.132812 271.605469 401.132812 Z M 271.605469 401.132812 " fill-opacity="1" fill-rule="nonzero"/></g><g clip-path="url(#2b98000ca0)"><path fill="#212121" d="M 457.910156 373.8125 C 460.253906 373.8125 462.414062 373.050781 464.191406 371.78125 L 479.125 386.71875 C 477.21875 389.171875 476.035156 392.21875 476.035156 395.5625 C 476.035156 399.210938 477.433594 402.507812 479.667969 405.058594 L 467.28125 418.996094 C 465.609375 417.945312 463.648438 417.3125 461.535156 417.3125 C 455.539062 417.3125 450.660156 422.191406 450.660156 428.1875 C 450.660156 434.183594 455.539062 439.0625 461.535156 439.0625 C 467.53125 439.0625 472.410156 434.183594 472.410156 428.1875 C 472.410156 425.617188 471.472656 423.285156 469.976562 421.421875 L 482.34375 407.511719 C 484.675781 409.113281 487.492188 410.0625 490.535156 410.0625 C 495.394531 410.0625 499.679688 407.636719 502.316406 403.953125 L 512.972656 409.992188 C 512.554688 411.152344 512.285156 412.386719 512.285156 413.6875 C 512.285156 419.683594 517.164062 424.5625 523.160156 424.5625 C 529.15625 424.5625 534.035156 419.683594 534.035156 413.6875 C 534.035156 407.691406 529.15625 402.8125 523.160156 402.8125 C 519.765625 402.8125 516.769531 404.40625 514.773438 406.851562 L 504.03125 400.765625 C 504.65625 399.144531 505.035156 397.402344 505.035156 395.5625 C 505.035156 391.683594 503.484375 388.171875 500.992188 385.566406 L 508.777344 375.988281 C 510.355469 376.882812 512.15625 377.4375 514.097656 377.4375 C 520.09375 377.4375 524.972656 372.558594 524.972656 366.5625 C 524.972656 360.566406 520.09375 355.6875 514.097656 355.6875 C 508.101562 355.6875 503.222656 360.566406 503.222656 366.5625 C 503.222656 369.308594 504.277344 371.789062 505.960938 373.703125 L 498.171875 383.289062 C 495.945312 381.898438 493.34375 381.0625 490.535156 381.0625 C 487.191406 381.0625 484.148438 382.246094 481.691406 384.15625 L 466.753906 369.21875 C 468.023438 367.445312 468.785156 365.285156 468.785156 362.9375 C 468.785156 356.941406 463.90625 352.0625 457.910156 352.0625 C 451.914062 352.0625 447.035156 356.941406 447.035156 362.9375 C 447.035156 368.933594 451.914062 373.8125 457.910156 373.8125 Z M 523.160156 406.4375 C 527.15625 406.4375 530.410156 409.691406 530.410156 413.6875 C 530.410156 417.6875 527.15625 420.9375 523.160156 420.9375 C 519.160156 420.9375 515.910156 417.6875 515.910156 413.6875 C 515.910156 409.691406 519.160156 406.4375 523.160156 406.4375 Z M 461.535156 435.4375 C 457.535156 435.4375 454.285156 432.1875 454.285156 428.1875 C 454.285156 424.191406 457.535156 420.9375 461.535156 420.9375 C 465.53125 420.9375 468.785156 424.191406 468.785156 428.1875 C 468.785156 432.1875 465.53125 435.4375 461.535156 435.4375 Z M 514.097656 359.3125 C 518.09375 359.3125 521.347656 362.566406 521.347656 366.5625 C 521.347656 370.5625 518.09375 373.8125 514.097656 373.8125 C 510.097656 373.8125 506.847656 370.5625 506.847656 366.5625 C 506.847656 362.566406 510.097656 359.3125 514.097656 359.3125 Z M 501.410156 395.5625 C 501.410156 401.558594 496.53125 406.4375 490.535156 406.4375 C 484.539062 406.4375 479.660156 401.558594 479.660156 395.5625 C 479.660156 389.566406 484.539062 384.6875 490.535156 384.6875 C 496.53125 384.6875 501.410156 389.566406 501.410156 395.5625 Z M 457.910156 355.6875 C 461.90625 355.6875 465.160156 358.941406 465.160156 362.9375 C 465.160156 366.9375 461.90625 370.1875 457.910156 370.1875 C 453.910156 370.1875 450.660156 366.9375 450.660156 362.9375 C 450.660156 358.941406 453.910156 355.6875 457.910156 355.6875 Z M 457.910156 355.6875 " fill-opacity="1" fill-rule="nonzero"/></g><g clip-path="url(#b6c2812dc2)"><path fill="#212121" d="M 252.953125 267.695312 L 248.386719 267.695312 L 234.199219 239.421875 L 240.890625 232.757812 C 241.636719 232.011719 241.636719 230.800781 240.890625 230.054688 C 240.140625 229.3125 238.925781 229.3125 238.179688 230.054688 L 230.765625 237.445312 L 211.039062 246.183594 C 207.589844 242.839844 203.273438 240.636719 198.511719 239.847656 L 183.3125 237.320312 L 179.917969 230.550781 C 179.441406 229.605469 178.292969 229.222656 177.34375 229.699219 C 176.398438 230.171875 176.019531 231.316406 176.488281 232.261719 L 179.914062 239.082031 L 167.230469 266.851562 L 164.222656 267.78125 C 163.207031 268.09375 162.644531 269.160156 162.957031 270.167969 C 163.210938 270.988281 163.964844 271.515625 164.785156 271.515625 C 164.972656 271.515625 165.164062 271.488281 165.351562 271.433594 L 168.078125 270.589844 L 173.273438 275.769531 L 170.644531 278.386719 C 169.375 279.652344 168.675781 281.332031 168.675781 283.117188 C 168.675781 284.902344 169.378906 286.582031 170.644531 287.839844 C 171.457031 288.648438 172.429688 289.175781 173.457031 289.480469 C 172.925781 290.453125 172.613281 291.53125 172.613281 292.667969 C 172.613281 294.457031 173.316406 296.132812 174.582031 297.390625 C 175.890625 298.695312 177.605469 299.34375 179.320312 299.34375 C 179.359375 299.34375 179.402344 299.332031 179.441406 299.332031 C 179.417969 301.074219 180.066406 302.820312 181.394531 304.148438 C 182.703125 305.449219 184.421875 306.101562 186.136719 306.101562 C 187.140625 306.101562 188.140625 305.851562 189.0625 305.40625 C 189.363281 306.472656 189.902344 307.484375 190.746094 308.328125 C 192.050781 309.628906 193.769531 310.28125 195.484375 310.28125 C 197.199219 310.28125 198.917969 309.628906 200.230469 308.328125 L 203.078125 305.484375 L 206.550781 308.972656 C 207.980469 310.398438 209.855469 311.109375 211.738281 311.109375 C 213.617188 311.109375 215.5 310.394531 216.933594 308.964844 L 217.308594 308.585938 C 218.324219 307.574219 219.003906 306.304688 219.292969 304.929688 C 220.246094 305.359375 221.265625 305.589844 222.300781 305.589844 C 224.179688 305.589844 226.0625 304.882812 227.503906 303.472656 C 228.859375 302.117188 229.640625 300.234375 229.640625 298.296875 C 229.640625 298.171875 229.609375 298.050781 229.605469 297.925781 C 229.726562 297.933594 229.84375 297.957031 229.96875 297.957031 C 231.734375 297.957031 233.507812 297.324219 234.898438 296.054688 C 234.996094 295.988281 235.097656 295.90625 235.183594 295.820312 C 237.207031 293.769531 237.757812 290.820312 236.882812 288.265625 C 238.351562 288.03125 239.757812 287.367188 240.890625 286.242188 C 242.265625 284.871094 243.023438 283.035156 243.023438 281.070312 C 243.023438 279.105469 242.269531 277.273438 240.890625 275.898438 L 240.234375 275.246094 L 247.65625 271.519531 L 252.953125 271.519531 C 254.011719 271.519531 254.867188 270.664062 254.867188 269.609375 C 254.867188 268.554688 254.011719 267.695312 252.953125 267.695312 Z M 172.515625 283.113281 C 172.515625 282.347656 172.8125 281.625 173.359375 281.085938 L 178.222656 276.242188 C 178.765625 275.699219 179.484375 275.402344 180.25 275.402344 C 180.25 275.402344 180.25 275.402344 180.253906 275.402344 C 181.019531 275.402344 181.746094 275.699219 182.285156 276.242188 C 183.40625 277.355469 183.40625 279.179688 182.285156 280.292969 L 181.546875 281.03125 C 181.507812 281.070312 181.457031 281.097656 181.417969 281.136719 C 181.398438 281.148438 181.378906 281.160156 181.363281 281.179688 L 177.328125 285.199219 C 176.203125 286.230469 174.453125 286.226562 173.363281 285.132812 C 172.8125 284.597656 172.515625 283.878906 172.515625 283.113281 Z M 177.292969 294.683594 C 176.75 294.140625 176.449219 293.429688 176.449219 292.664062 C 176.449219 291.894531 176.75 291.175781 177.292969 290.636719 L 179.949219 287.988281 C 180.007812 287.933594 180.078125 287.894531 180.136719 287.839844 L 184.171875 283.816406 C 184.703125 283.332031 185.375 283.042969 186.105469 283.042969 C 186.875 283.042969 187.597656 283.34375 188.140625 283.886719 C 189.238281 284.980469 189.246094 286.757812 188.175781 287.878906 C 188.144531 287.90625 188.128906 287.941406 188.101562 287.976562 L 181.359375 294.691406 C 180.273438 295.769531 178.378906 295.769531 177.292969 294.683594 Z M 184.109375 301.441406 C 182.988281 300.324219 182.988281 298.503906 184.109375 297.386719 L 190.886719 290.632812 C 191.445312 290.074219 192.183594 289.792969 192.917969 289.792969 C 193.65625 289.792969 194.390625 290.070312 194.949219 290.632812 C 195.496094 291.175781 195.792969 291.890625 195.792969 292.660156 C 195.792969 293.394531 195.503906 294.074219 195.003906 294.605469 C 194.957031 294.648438 194.917969 294.691406 194.878906 294.742188 L 190.75 298.855469 C 190.71875 298.886719 190.699219 298.921875 190.671875 298.953125 L 188.175781 301.4375 C 187.089844 302.523438 185.195312 302.523438 184.109375 301.441406 Z M 197.523438 305.617188 C 196.394531 306.734375 194.574219 306.726562 193.457031 305.617188 C 192.347656 304.515625 192.34375 302.738281 193.421875 301.613281 L 197.660156 297.390625 C 197.6875 297.363281 197.707031 297.332031 197.730469 297.304688 L 198.316406 296.722656 C 198.875 296.164062 199.613281 295.878906 200.347656 295.878906 C 201.082031 295.878906 201.820312 296.160156 202.378906 296.722656 C 202.925781 297.261719 203.222656 297.980469 203.222656 298.75 C 203.222656 299.511719 202.925781 300.230469 202.378906 300.769531 L 201.773438 301.375 C 201.757812 301.386719 201.742188 301.390625 201.726562 301.402344 C 201.710938 301.417969 201.707031 301.433594 201.695312 301.449219 Z M 238.179688 283.535156 C 236.808594 284.890625 234.589844 284.890625 233.222656 283.535156 L 229.390625 279.714844 C 228.640625 278.96875 227.425781 278.96875 226.679688 279.714844 C 225.929688 280.457031 225.929688 281.667969 226.679688 282.414062 L 232.46875 288.183594 C 233.765625 289.476562 233.816406 291.570312 232.617188 292.957031 C 232.550781 293.007812 232.488281 293.0625 232.429688 293.121094 C 231.070312 294.472656 228.863281 294.472656 227.511719 293.121094 L 221.722656 287.355469 C 220.976562 286.609375 219.757812 286.609375 219.011719 287.355469 C 218.265625 288.097656 218.265625 289.308594 219.011719 290.054688 L 224.800781 295.824219 C 225.445312 296.464844 225.8125 297.363281 225.8125 298.289062 C 225.8125 299.222656 225.445312 300.121094 224.8125 300.75 C 223.433594 302.101562 221.195312 302.105469 219.84375 300.761719 L 217.3125 298.242188 L 212.140625 293.085938 C 211.390625 292.339844 210.175781 292.339844 209.429688 293.085938 C 208.679688 293.828125 208.679688 295.039062 209.429688 295.785156 L 214.605469 300.941406 C 215.261719 301.597656 215.628906 302.472656 215.628906 303.410156 C 215.628906 304.347656 215.261719 305.222656 214.597656 305.886719 L 214.21875 306.261719 C 212.855469 307.625 210.628906 307.625 209.273438 306.269531 L 205.722656 302.703125 C 206.574219 301.5625 207.054688 300.195312 207.054688 298.746094 C 207.054688 296.957031 206.359375 295.28125 205.089844 294.015625 C 203.585938 292.519531 201.539062 291.910156 199.574219 292.136719 C 199.449219 290.550781 198.804688 289.070312 197.660156 287.929688 C 196.324219 286.597656 194.554688 285.960938 192.796875 285.988281 C 192.820312 284.253906 192.175781 282.507812 190.847656 281.179688 C 189.734375 280.070312 188.316406 279.460938 186.859375 279.300781 C 187.175781 277.265625 186.566406 275.109375 184.996094 273.539062 C 183.726562 272.277344 182.039062 271.582031 180.253906 271.582031 C 180.25 271.582031 180.25 271.582031 180.25 271.582031 C 178.6875 271.582031 177.226562 272.136719 176.035156 273.109375 L 170.917969 268.007812 L 183.175781 241.171875 L 197.886719 243.617188 C 201.347656 244.195312 204.503906 245.691406 207.179688 247.898438 L 201.359375 250.480469 C 197.769531 252.046875 195.453125 255.597656 195.453125 259.519531 L 195.453125 269.988281 C 195.453125 272.128906 196.351562 274.128906 197.917969 275.484375 C 199.195312 276.59375 200.777344 277.175781 202.460938 277.175781 C 202.800781 277.175781 203.140625 277.15625 203.488281 277.105469 C 206.890625 276.632812 209.015625 274.90625 210.652344 273.28125 C 212.761719 271.179688 214.128906 268.414062 214.511719 265.484375 C 214.703125 264.003906 216.78125 262.183594 220.019531 260.488281 L 238.1875 278.589844 C 239.023438 279.421875 239.199219 280.394531 239.199219 281.058594 C 239.199219 281.722656 239.015625 282.703125 238.179688 283.535156 Z M 237.382812 272.398438 L 221.726562 256.796875 C 221.714844 256.785156 221.695312 256.78125 221.683594 256.769531 C 221.582031 256.671875 221.457031 256.613281 221.339844 256.542969 C 221.242188 256.484375 221.15625 256.410156 221.054688 256.371094 C 220.957031 256.335938 220.84375 256.332031 220.738281 256.3125 C 220.601562 256.285156 220.46875 256.246094 220.332031 256.25 C 220.242188 256.25 220.15625 256.289062 220.066406 256.300781 C 219.910156 256.328125 219.753906 256.347656 219.605469 256.410156 C 219.589844 256.417969 219.574219 256.414062 219.558594 256.421875 C 214.097656 258.976562 211.125 261.867188 210.710938 265.003906 C 210.4375 267.101562 209.457031 269.082031 207.941406 270.589844 C 206.503906 272.019531 205.109375 273.035156 202.953125 273.335938 C 202.035156 273.472656 201.121094 273.207031 200.4375 272.617188 C 199.699219 271.976562 199.285156 271.023438 199.285156 269.992188 L 199.285156 259.519531 C 199.285156 257.109375 200.699219 254.933594 202.90625 253.96875 L 230.972656 241.527344 L 244.628906 268.753906 Z M 237.382812 272.398438 " fill-opacity="1" fill-rule="nonzero"/></g></svg>