<svg xmlns="http://www.w3.org/2000/svg" xmlns:xlink="http://www.w3.org/1999/xlink" width="1024" zoomAndPan="magnify" viewBox="0 0 768 576" height="768" preserveAspectRatio="xMidYMid meet" version="1.0"><defs><clipPath id="afe299a29a"><path d="M 138 0 L 495 0 L 495 235.511719 L 138 235.511719 Z M 138 0 " clip-rule="nonzero"/></clipPath><clipPath id="d83ae50f18"><path d="M 299 52.503906 L 403.179688 52.503906 L 403.179688 157 L 299 157 Z M 299 52.503906 " clip-rule="nonzero"/></clipPath><clipPath id="7ea6f7b3dc"><path d="M 297.011719 118.585938 L 337 118.585938 L 337 158.613281 L 297.011719 158.613281 Z M 297.011719 118.585938 " clip-rule="nonzero"/></clipPath><clipPath id="91a21cbace"><path d="M 513 135 L 584.773438 135 L 584.773438 243.695312 L 513 243.695312 Z M 513 135 " clip-rule="nonzero"/></clipPath><clipPath id="b2975a788c"><path d="M 271 449 L 359.710938 449 L 359.710938 511 L 271 511 Z M 271 449 " clip-rule="nonzero"/></clipPath><clipPath id="28147ddb1c"><path d="M 258.269531 460.007812 L 317.59375 460.007812 L 317.59375 484 L 258.269531 484 Z M 258.269531 460.007812 " clip-rule="nonzero"/></clipPath><clipPath id="8a0d41a22c"><path d="M 260.269531 409.300781 L 356 409.300781 L 356 458.839844 L 260.269531 458.839844 Z M 260.269531 409.300781 " clip-rule="nonzero"/></clipPath><clipPath id="4ae2a14732"><path d="M 482.59375 368.878906 L 584.378906 368.878906 L 584.378906 470.605469 L 482.59375 470.605469 Z M 482.59375 368.878906 " clip-rule="nonzero"/></clipPath><clipPath id="e892c923c0"><path d="M 150 225.121094 L 257.929688 225.121094 L 257.929688 320.707031 L 150 320.707031 Z M 150 225.121094 " clip-rule="nonzero"/></clipPath></defs><path fill="#d7acf9" d="M 184.96875 398.285156 L 200.535156 496.402344 C 145.980469 445.480469 111.882812 372.980469 111.882812 292.53125 C 111.867188 268.023438 115.074219 243.613281 121.429688 219.941406 L 121.203125 219.867188 C 118.515625 218.996094 116.148438 217.351562 114.398438 215.136719 C 112.652344 212.921875 111.597656 210.238281 111.378906 207.425781 C 111.152344 204.613281 111.769531 201.800781 113.152344 199.335938 C 114.53125 196.875 116.609375 194.878906 119.128906 193.601562 L 120.96875 192.664062 L 132.679688 186.707031 L 230.773438 136.804688 C 234.152344 135.09375 238.070312 134.78125 241.671875 135.949219 C 245.273438 137.121094 248.261719 139.667969 249.984375 143.035156 L 301.460938 243.898438 L 306.1875 253.15625 L 306.875 254.503906 C 307.984375 256.675781 308.515625 259.097656 308.417969 261.535156 C 308.320312 263.976562 307.601562 266.351562 306.320312 268.429688 C 305.046875 270.511719 303.253906 272.230469 301.125 273.421875 C 298.988281 274.613281 296.585938 275.238281 294.140625 275.238281 C 292.976562 275.238281 291.808594 275.09375 290.675781 274.804688 C 288.210938 288.878906 288.714844 303.308594 292.171875 317.171875 C 295.621094 331.035156 301.945312 344.019531 310.730469 355.296875 L 203.964844 372.179688 C 197.984375 373.132812 192.621094 376.417969 189.058594 381.308594 C 185.5 386.203125 184.027344 392.3125 184.96875 398.285156 Z M 184.96875 398.285156 " fill-opacity="1" fill-rule="nonzero"/><path fill="#38b6ff" d="M 526.734375 536.796875 C 482.320312 561.292969 432.074219 573.269531 381.363281 571.441406 C 330.65625 569.613281 281.398438 554.050781 238.867188 526.429688 L 238.703125 526.65625 C 237.378906 528.480469 235.640625 529.960938 233.628906 530.984375 C 231.625 532.003906 229.402344 532.535156 227.148438 532.539062 C 226.023438 532.535156 224.90625 532.40625 223.808594 532.148438 C 221.0625 531.484375 218.570312 530.027344 216.65625 527.960938 C 214.738281 525.886719 213.476562 523.292969 213.03125 520.503906 L 212.699219 518.371094 L 210.636719 505.40625 L 193.4375 396.945312 C 193.140625 395.097656 193.21875 393.207031 193.652344 391.386719 C 194.089844 389.566406 194.886719 387.847656 195.988281 386.332031 C 197.089844 384.816406 198.476562 383.53125 200.078125 382.554688 C 201.675781 381.578125 203.453125 380.925781 205.308594 380.632812 L 317.320312 362.917969 L 327.597656 361.292969 L 329.070312 361.054688 C 329.804688 360.941406 330.554688 360.882812 331.300781 360.882812 C 333.855469 360.882812 336.359375 361.5625 338.558594 362.855469 C 340.753906 364.148438 342.566406 366.007812 343.800781 368.234375 C 345.039062 370.46875 345.648438 372.984375 345.582031 375.53125 C 345.511719 378.078125 344.757812 380.558594 343.40625 382.71875 C 356.042969 389.410156 369.949219 393.382812 384.214844 394.394531 C 398.488281 395.398438 412.808594 393.417969 426.269531 388.566406 L 409.359375 495.132812 C 408.417969 501.105469 409.890625 507.214844 413.453125 512.109375 C 417.015625 517 422.375 520.289062 428.359375 521.242188 Z M 526.734375 536.796875 " fill-opacity="1" fill-rule="nonzero"/><path fill="#a6e390" d="M 567.070312 509.648438 L 567.25 509.890625 C 568.796875 512.019531 569.726562 514.53125 569.9375 517.152344 C 570.140625 519.777344 569.621094 522.40625 568.425781 524.75 C 567.226562 527.089844 565.40625 529.058594 563.160156 530.433594 C 560.914062 531.808594 558.328125 532.539062 555.695312 532.539062 C 554.945312 532.539062 554.203125 532.480469 553.460938 532.363281 L 551.355469 532.023438 L 551.347656 532.023438 L 538.390625 529.976562 L 429.703125 512.785156 C 427.851562 512.492188 426.074219 511.839844 424.472656 510.863281 C 422.875 509.886719 421.484375 508.601562 420.382812 507.085938 C 419.277344 505.570312 418.488281 503.855469 418.046875 502.035156 C 417.609375 500.210938 417.535156 498.320312 417.828125 496.472656 L 435.566406 384.667969 L 437.195312 374.402344 L 437.429688 372.914062 C 437.855469 370.210938 439.050781 367.6875 440.878906 365.644531 C 442.703125 363.605469 445.074219 362.128906 447.714844 361.398438 C 450.351562 360.667969 453.148438 360.710938 455.769531 361.523438 C 458.382812 362.335938 460.714844 363.878906 462.472656 365.976562 C 472.363281 356.464844 480.230469 345.054688 485.59375 332.4375 C 490.960938 319.8125 493.71875 306.242188 493.699219 292.53125 C 493.699219 291.382812 493.679688 290.242188 493.640625 289.109375 L 589.960938 338.105469 C 593.175781 339.734375 596.726562 340.589844 600.328125 340.59375 C 604.550781 340.609375 608.6875 339.449219 612.285156 337.246094 C 615.882812 335.042969 618.792969 331.886719 620.699219 328.128906 L 665.921875 239.535156 C 669.28125 257 670.96875 274.746094 670.960938 292.53125 C 670.960938 380.238281 630.445312 458.488281 567.070312 509.648438 Z M 567.070312 509.648438 " fill-opacity="1" fill-rule="nonzero"/><path fill="#ffbc7d" d="M 669.949219 212.785156 L 669.015625 214.621094 L 663.046875 226.320312 L 613.0625 324.242188 C 612.214844 325.914062 611.042969 327.398438 609.617188 328.617188 C 608.191406 329.835938 606.539062 330.761719 604.753906 331.339844 C 602.96875 331.921875 601.089844 332.140625 599.214844 331.992188 C 597.347656 331.847656 595.523438 331.332031 593.851562 330.480469 L 492.816406 279.078125 L 483.550781 274.367188 L 482.207031 273.679688 C 479.765625 272.4375 477.738281 270.519531 476.355469 268.15625 C 474.976562 265.789062 474.304688 263.082031 474.429688 260.34375 C 474.550781 257.609375 475.457031 254.96875 477.042969 252.734375 C 478.628906 250.5 480.820312 248.769531 483.363281 247.746094 C 477.078125 234.917969 468.171875 223.539062 457.222656 214.351562 C 446.265625 205.160156 433.507812 198.363281 419.765625 194.390625 L 496.1875 118.097656 C 500.464844 113.8125 502.867188 108.007812 502.867188 101.957031 C 502.867188 95.90625 500.464844 90.101562 496.1875 85.820312 L 425.789062 15.539062 C 529.898438 28.277344 616.3125 98.167969 652.582031 192.816406 L 652.808594 192.742188 C 655.5 191.871094 658.382812 191.816406 661.105469 192.578125 C 663.824219 193.34375 666.253906 194.898438 668.089844 197.042969 C 669.921875 199.191406 671.078125 201.832031 671.414062 204.632812 C 671.742188 207.429688 671.234375 210.273438 669.949219 212.785156 Z M 669.949219 212.785156 " fill-opacity="1" fill-rule="nonzero"/><g clip-path="url(#afe299a29a)"><path fill="#fd7373" d="M 490.121094 112.039062 L 401.523438 200.503906 C 399.585938 202.4375 397.125 203.777344 394.449219 204.355469 C 391.769531 204.9375 388.984375 204.734375 386.414062 203.777344 C 383.847656 202.8125 381.609375 201.136719 379.96875 198.945312 C 378.328125 196.753906 377.355469 194.128906 377.167969 191.402344 C 362.996094 193.390625 349.40625 198.324219 337.269531 205.886719 C 325.125 213.449219 314.714844 223.472656 306.699219 235.304688 L 257.625 139.152344 C 255.710938 135.402344 252.796875 132.253906 249.199219 130.058594 C 245.609375 127.863281 241.476562 126.695312 237.261719 126.691406 C 233.652344 126.695312 230.097656 127.550781 226.882812 129.1875 L 138.117188 174.335938 C 180.792969 83.347656 271.191406 19.128906 377.132812 13.804688 L 377.132812 13.5 C 377.132812 10.675781 377.972656 7.921875 379.539062 5.574219 C 381.113281 3.230469 383.34375 1.402344 385.953125 0.320312 C 388.566406 -0.757812 391.4375 -1.039062 394.210938 -0.488281 C 396.980469 0.0664062 399.527344 1.421875 401.523438 3.417969 L 403.058594 4.949219 L 490.121094 91.871094 C 492.800781 94.546875 494.308594 98.171875 494.308594 101.957031 C 494.308594 105.738281 492.800781 109.367188 490.121094 112.039062 Z M 490.121094 112.039062 " fill-opacity="1" fill-rule="nonzero"/></g><g clip-path="url(#d83ae50f18)"><path fill="#212121" d="M 401.109375 52.359375 C 401.109375 52.359375 401.109375 52.359375 401.105469 52.359375 L 378.507812 52.449219 C 369.597656 52.484375 361.363281 56.546875 355.90625 63.585938 L 343.914062 79.03125 L 320.773438 79.03125 C 316.269531 79.03125 312.003906 80.980469 309.058594 84.382812 L 299.761719 95.140625 C 299.308594 95.660156 299.128906 96.359375 299.265625 97.035156 C 299.40625 97.707031 299.847656 98.277344 300.46875 98.578125 L 321.183594 108.570312 C 318.765625 112.832031 319.398438 118.28125 322.949219 121.824219 L 333.796875 132.667969 C 335.9375 134.804688 338.773438 135.902344 341.625 135.902344 C 343.515625 135.902344 345.402344 135.394531 347.109375 134.421875 L 357.125 155.15625 C 357.421875 155.777344 357.988281 156.222656 358.667969 156.359375 C 358.816406 156.390625 358.964844 156.402344 359.117188 156.402344 C 359.644531 156.402344 360.160156 156.214844 360.566406 155.863281 L 371.324219 146.566406 C 374.722656 143.628906 376.675781 139.359375 376.675781 134.859375 L 376.675781 111.5 L 392.171875 99.402344 C 399.164062 93.945312 403.191406 85.738281 403.226562 76.871094 L 403.324219 54.574219 C 403.324219 53.984375 403.089844 53.417969 402.675781 53 C 402.261719 52.589844 401.699219 52.359375 401.109375 52.359375 Z M 312.40625 87.277344 C 314.507812 84.847656 317.5625 83.453125 320.773438 83.453125 L 340.484375 83.453125 L 323.824219 104.933594 L 304.996094 95.847656 Z M 372.257812 134.863281 C 372.257812 138.078125 370.863281 141.128906 368.429688 143.226562 L 359.859375 150.636719 L 350.742188 131.757812 L 372.257812 114.953125 Z M 398.808594 76.855469 C 398.777344 84.355469 395.367188 91.304688 389.457031 95.921875 L 345.703125 130.078125 C 343.066406 132.136719 339.296875 131.910156 336.929688 129.542969 L 326.082031 118.699219 C 323.722656 116.34375 323.488281 112.578125 325.527344 109.945312 L 359.394531 66.289062 C 364.015625 60.335938 370.984375 56.902344 378.527344 56.871094 L 398.894531 56.789062 Z M 398.808594 76.855469 " fill-opacity="1" fill-rule="nonzero"/></g><g clip-path="url(#7ea6f7b3dc)"><path fill="#212121" d="M 299.222656 158.613281 L 316.449219 158.613281 C 324.324219 158.613281 331.472656 153.960938 334.652344 146.757812 L 336.632812 142.28125 C 337.121094 141.167969 336.621094 139.859375 335.503906 139.363281 C 334.378906 138.875 333.082031 139.375 332.585938 140.492188 L 330.605469 144.972656 C 328.132812 150.570312 322.574219 154.191406 316.449219 154.191406 L 301.433594 154.191406 L 301.433594 139.332031 C 301.433594 133.132812 305.117188 127.546875 310.816406 125.109375 L 315.574219 123.066406 C 316.699219 122.585938 317.21875 121.289062 316.738281 120.164062 C 316.253906 119.042969 314.949219 118.511719 313.835938 119.003906 L 309.074219 121.042969 C 301.742188 124.175781 297.011719 131.355469 297.011719 139.332031 L 297.011719 156.402344 C 297.011719 157.625 298 158.613281 299.222656 158.613281 Z M 299.222656 158.613281 " fill-opacity="1" fill-rule="nonzero"/></g><path fill="#212121" d="M 367.792969 79.03125 C 367.792969 83.910156 371.757812 87.875 376.640625 87.875 C 381.515625 87.875 385.488281 83.910156 385.488281 79.03125 C 385.488281 74.152344 381.515625 70.1875 376.640625 70.1875 C 371.757812 70.1875 367.792969 74.152344 367.792969 79.03125 Z M 381.0625 79.03125 C 381.0625 81.464844 379.074219 83.453125 376.640625 83.453125 C 374.199219 83.453125 372.214844 81.464844 372.214844 79.03125 C 372.214844 76.597656 374.199219 74.609375 376.640625 74.609375 C 379.074219 74.609375 381.0625 76.597656 381.0625 79.03125 Z M 381.0625 79.03125 " fill-opacity="1" fill-rule="nonzero"/><g clip-path="url(#91a21cbace)"><path fill="#212121" d="M 542.332031 243.226562 L 555.738281 243.226562 C 559.429688 243.226562 562.4375 240.210938 562.4375 236.503906 L 562.4375 231.609375 C 565.03125 230.683594 566.90625 228.21875 566.90625 225.304688 L 566.90625 214.460938 C 566.90625 207.835938 569.441406 201.585938 573.871094 197.296875 C 580.90625 190.484375 584.773438 181.335938 584.773438 171.535156 C 584.773438 161.355469 580.4375 151.621094 572.871094 144.824219 C 565.199219 137.9375 555.3125 134.78125 544.960938 135.917969 C 529.125 137.683594 515.964844 150.40625 513.679688 166.179688 C 512.003906 177.71875 515.753906 188.984375 523.972656 197.085938 C 528.546875 201.585938 531.160156 207.914062 531.160156 214.457031 L 531.160156 224.121094 C 531.160156 228.289062 533.214844 230.707031 535.628906 231.605469 L 535.628906 236.503906 C 535.628906 240.210938 538.636719 243.226562 542.332031 243.226562 Z M 555.738281 238.746094 L 542.332031 238.746094 C 541.101562 238.746094 540.097656 237.742188 540.097656 236.503906 L 540.097656 232.023438 L 557.96875 232.023438 L 557.96875 236.503906 C 557.96875 237.742188 556.96875 238.746094 555.738281 238.746094 Z M 560.203125 227.542969 L 537.863281 227.542969 C 535.789062 227.542969 535.628906 224.917969 535.628906 224.121094 L 535.628906 218.578125 L 562.4375 218.578125 L 562.4375 225.304688 C 562.4375 226.539062 561.4375 227.542969 560.203125 227.542969 Z M 527.109375 193.882812 C 519.921875 186.796875 516.636719 176.929688 518.101562 166.816406 C 520.101562 153.03125 531.601562 141.910156 545.460938 140.367188 C 546.671875 140.234375 547.878906 140.171875 549.074219 140.171875 C 556.792969 140.171875 564.078125 142.945312 569.890625 148.164062 C 576.511719 154.109375 580.308594 162.628906 580.308594 171.535156 C 580.308594 180.109375 576.917969 188.109375 570.769531 194.070312 C 565.554688 199.121094 562.546875 206.40625 562.457031 214.097656 L 535.609375 214.097656 C 535.519531 206.496094 532.441406 199.140625 527.109375 193.882812 Z M 527.109375 193.882812 " fill-opacity="1" fill-rule="nonzero"/></g><g clip-path="url(#b2975a788c)"><path fill="#212121" d="M 340.75 452.269531 L 324.023438 468.988281 C 323.195312 469.816406 323.195312 471.160156 324.023438 471.984375 C 324.847656 472.8125 326.195312 472.8125 327.023438 471.984375 L 343.753906 455.265625 C 346.324219 452.691406 350.820312 452.6875 353.390625 455.265625 C 354.6875 456.566406 355.402344 458.292969 355.386719 460.128906 C 355.375 461.964844 354.648438 463.679688 353.328125 464.964844 L 323.402344 494.105469 C 320.613281 496.8125 316.941406 498.3125 313.046875 498.3125 L 293.707031 498.3125 C 285.445312 498.3125 277.679688 501.527344 271.835938 507.363281 C 271.011719 508.191406 271.011719 509.535156 271.835938 510.359375 C 272.25 510.777344 272.792969 510.980469 273.339844 510.980469 C 273.882812 510.980469 274.425781 510.773438 274.84375 510.359375 C 279.878906 505.328125 286.578125 502.550781 293.707031 502.550781 L 313.046875 502.550781 C 318.050781 502.550781 322.78125 500.628906 326.367188 497.136719 L 356.292969 467.996094 C 358.421875 465.917969 359.609375 463.132812 359.632812 460.152344 C 359.652344 457.171875 358.5 454.367188 356.394531 452.261719 C 352.210938 448.089844 344.933594 448.09375 340.75 452.269531 Z M 340.75 452.269531 " fill-opacity="1" fill-rule="nonzero"/></g><g clip-path="url(#28147ddb1c)"><path fill="#212121" d="M 261.027344 483.476562 C 261.570312 483.476562 262.113281 483.269531 262.53125 482.859375 L 272.761719 472.628906 C 278.070312 467.320312 285.125 464.402344 292.628906 464.402344 L 305.558594 464.402344 C 309.652344 464.402344 312.980469 467.734375 312.980469 471.820312 C 312.980469 475.914062 309.652344 479.238281 305.558594 479.238281 L 296.015625 479.238281 C 294.84375 479.238281 293.894531 480.1875 293.894531 481.359375 C 293.894531 482.527344 294.84375 483.476562 296.015625 483.476562 L 305.558594 483.476562 C 311.992188 483.476562 317.21875 478.25 317.21875 471.820312 C 317.21875 465.390625 311.992188 460.164062 305.558594 460.164062 L 292.628906 460.164062 C 283.992188 460.164062 275.871094 463.527344 269.765625 469.628906 L 259.527344 479.859375 C 258.699219 480.679688 258.699219 482.027344 259.527344 482.855469 C 259.9375 483.269531 260.484375 483.476562 261.027344 483.476562 Z M 261.027344 483.476562 " fill-opacity="1" fill-rule="nonzero"/></g><g clip-path="url(#8a0d41a22c)"><path fill="#212121" d="M 277.355469 447.449219 C 283.183594 447.449219 288.054688 443.488281 289.558594 438.136719 C 297.535156 440.804688 302.800781 447.453125 302.800781 455.925781 C 302.800781 457.09375 303.75 458.046875 304.921875 458.046875 C 306.089844 458.046875 307.042969 457.09375 307.042969 455.925781 C 307.042969 443.382812 310.121094 435.410156 316.414062 431.425781 C 318.617188 438.238281 324.953125 443.210938 332.488281 443.210938 C 345.410156 443.210938 354.699219 427.996094 355.085938 427.347656 C 355.488281 426.675781 355.488281 425.835938 355.085938 425.164062 C 354.699219 424.519531 345.410156 409.300781 332.488281 409.300781 C 323.132812 409.300781 315.523438 416.90625 315.523438 426.257812 C 315.523438 426.476562 315.578125 426.683594 315.589844 426.90625 C 309.578125 430.027344 305.675781 435.816406 303.910156 444.230469 C 300.960938 439.246094 296.078125 435.550781 289.976562 433.789062 C 289.488281 427.222656 284.046875 422.019531 277.355469 422.019531 C 267.78125 422.019531 260.980469 433.171875 260.691406 433.644531 C 260.292969 434.3125 260.292969 435.152344 260.691406 435.824219 C 260.980469 436.296875 267.78125 447.449219 277.355469 447.449219 Z M 332.488281 413.539062 C 341.230469 413.539062 348.488281 422.992188 350.730469 426.257812 C 348.488281 429.523438 341.230469 438.972656 332.488281 438.972656 C 326.644531 438.972656 321.761719 435 320.273438 429.621094 C 322.625 428.851562 325.230469 428.375 328.246094 428.375 C 329.417969 428.375 330.367188 427.425781 330.367188 426.257812 C 330.367188 425.085938 329.417969 424.136719 328.246094 424.136719 C 325.175781 424.136719 322.386719 424.503906 319.871094 425.207031 C 320.414062 418.691406 325.835938 413.539062 332.488281 413.539062 Z M 277.355469 426.257812 C 281.398438 426.257812 284.78125 429.105469 285.621094 432.894531 C 284.316406 432.726562 282.980469 432.613281 281.597656 432.613281 C 280.425781 432.613281 279.476562 433.5625 279.476562 434.734375 C 279.476562 435.902344 280.425781 436.851562 281.597656 436.851562 C 282.921875 436.851562 284.195312 436.988281 285.441406 437.171875 C 284.382812 440.652344 281.179688 443.210938 277.355469 443.210938 C 271.664062 443.210938 266.839844 437.242188 265.0625 434.734375 C 266.839844 432.226562 271.664062 426.257812 277.355469 426.257812 Z M 277.355469 426.257812 " fill-opacity="1" fill-rule="nonzero"/></g><g clip-path="url(#4ae2a14732)"><path fill="#212121" d="M 495.316406 394.3125 C 498.058594 394.3125 500.585938 393.421875 502.664062 391.9375 L 520.136719 409.402344 C 517.90625 412.269531 516.523438 415.832031 516.523438 419.742188 C 516.523438 424.007812 518.160156 427.863281 520.773438 430.847656 L 506.28125 447.144531 C 504.324219 445.914062 502.03125 445.175781 499.558594 445.175781 C 492.542969 445.175781 486.835938 450.878906 486.835938 457.890625 C 486.835938 464.902344 492.542969 470.605469 499.558594 470.605469 C 506.574219 470.605469 512.28125 464.902344 512.28125 457.890625 C 512.28125 454.886719 511.183594 452.15625 509.433594 449.980469 L 523.902344 433.714844 C 526.632812 435.585938 529.925781 436.699219 533.484375 436.699219 C 539.171875 436.699219 544.183594 433.859375 547.269531 429.554688 L 559.734375 436.613281 C 559.246094 437.972656 558.933594 439.414062 558.933594 440.9375 C 558.933594 447.945312 564.640625 453.652344 571.65625 453.652344 C 578.667969 453.652344 584.378906 447.945312 584.378906 440.9375 C 584.378906 433.925781 578.667969 428.21875 571.65625 428.21875 C 567.683594 428.21875 564.179688 430.082031 561.84375 432.941406 L 549.277344 425.828125 C 550.007812 423.929688 550.449219 421.894531 550.449219 419.742188 C 550.449219 415.207031 548.636719 411.101562 545.71875 408.054688 L 554.828125 396.855469 C 556.675781 397.902344 558.78125 398.550781 561.050781 398.550781 C 568.066406 398.550781 573.773438 392.84375 573.773438 385.835938 C 573.773438 378.824219 568.066406 373.117188 561.050781 373.117188 C 554.039062 373.117188 548.328125 378.824219 548.328125 385.835938 C 548.328125 389.046875 549.5625 391.945312 551.53125 394.183594 L 542.421875 405.390625 C 539.816406 403.765625 536.773438 402.789062 533.484375 402.789062 C 529.574219 402.789062 526.015625 404.171875 523.140625 406.40625 L 505.664062 388.941406 C 507.148438 386.867188 508.039062 384.339844 508.039062 381.597656 C 508.039062 374.585938 502.332031 368.878906 495.316406 368.878906 C 488.300781 368.878906 482.59375 374.585938 482.59375 381.597656 C 482.59375 388.605469 488.300781 394.3125 495.316406 394.3125 Z M 571.65625 432.457031 C 576.328125 432.457031 580.136719 436.261719 580.136719 440.9375 C 580.136719 445.613281 576.328125 449.414062 571.65625 449.414062 C 566.976562 449.414062 563.171875 445.613281 563.171875 440.9375 C 563.171875 436.261719 566.976562 432.457031 571.65625 432.457031 Z M 499.558594 466.367188 C 494.878906 466.367188 491.078125 462.566406 491.078125 457.890625 C 491.078125 453.21875 494.878906 449.414062 499.558594 449.414062 C 504.234375 449.414062 508.039062 453.21875 508.039062 457.890625 C 508.039062 462.566406 504.234375 466.367188 499.558594 466.367188 Z M 561.050781 377.355469 C 565.726562 377.355469 569.535156 381.160156 569.535156 385.835938 C 569.535156 390.511719 565.726562 394.3125 561.050781 394.3125 C 556.371094 394.3125 552.570312 390.511719 552.570312 385.835938 C 552.570312 381.160156 556.371094 377.355469 561.050781 377.355469 Z M 546.210938 419.742188 C 546.210938 426.753906 540.5 432.457031 533.484375 432.457031 C 526.472656 432.457031 520.761719 426.753906 520.761719 419.742188 C 520.761719 412.730469 526.472656 407.027344 533.484375 407.027344 C 540.5 407.027344 546.210938 412.730469 546.210938 419.742188 Z M 495.316406 373.117188 C 499.992188 373.117188 503.800781 376.921875 503.800781 381.597656 C 503.800781 386.273438 499.992188 390.074219 495.316406 390.074219 C 490.636719 390.074219 486.835938 386.273438 486.835938 381.597656 C 486.835938 376.921875 490.636719 373.117188 495.316406 373.117188 Z M 495.316406 373.117188 " fill-opacity="1" fill-rule="nonzero"/></g><g clip-path="url(#e892c923c0)"><path fill="#212121" d="M 255.535156 270.234375 L 250.191406 270.234375 L 233.59375 237.175781 L 241.421875 229.382812 C 242.292969 228.507812 242.292969 227.09375 241.421875 226.222656 C 240.542969 225.351562 239.121094 225.351562 238.25 226.222656 L 229.574219 234.863281 L 206.496094 245.082031 C 202.460938 241.171875 197.414062 238.59375 191.839844 237.671875 L 174.058594 234.714844 L 170.089844 226.800781 C 169.53125 225.695312 168.1875 225.25 167.078125 225.804688 C 165.972656 226.359375 165.527344 227.695312 166.074219 228.800781 L 170.082031 236.777344 L 155.246094 269.246094 L 151.726562 270.332031 C 150.539062 270.699219 149.878906 271.945312 150.246094 273.125 C 150.542969 274.082031 151.425781 274.699219 152.382812 274.699219 C 152.601562 274.699219 152.828125 274.667969 153.046875 274.605469 L 156.238281 273.617188 L 162.316406 279.671875 L 159.238281 282.734375 C 157.753906 284.214844 156.9375 286.179688 156.9375 288.265625 C 156.9375 290.351562 157.757812 292.316406 159.238281 293.789062 C 160.191406 294.734375 161.328125 295.347656 162.53125 295.707031 C 161.90625 296.84375 161.542969 298.101562 161.542969 299.433594 C 161.542969 301.523438 162.363281 303.484375 163.84375 304.953125 C 165.375 306.480469 167.382812 307.238281 169.390625 307.238281 C 169.433594 307.238281 169.484375 307.222656 169.53125 307.222656 C 169.503906 309.261719 170.261719 311.304688 171.816406 312.855469 C 173.347656 314.378906 175.359375 315.140625 177.363281 315.140625 C 178.539062 315.140625 179.707031 314.847656 180.785156 314.328125 C 181.136719 315.574219 181.769531 316.757812 182.757812 317.742188 C 184.28125 319.265625 186.292969 320.027344 188.300781 320.027344 C 190.304688 320.027344 192.316406 319.265625 193.851562 317.742188 L 197.183594 314.417969 L 201.246094 318.496094 C 202.917969 320.164062 205.113281 320.996094 207.316406 320.996094 C 209.515625 320.996094 211.714844 320.160156 213.394531 318.488281 L 213.832031 318.042969 C 215.019531 316.863281 215.816406 315.378906 216.152344 313.769531 C 217.269531 314.273438 218.460938 314.542969 219.671875 314.542969 C 221.871094 314.542969 224.074219 313.714844 225.761719 312.066406 C 227.347656 310.480469 228.261719 308.28125 228.261719 306.015625 C 228.261719 305.867188 228.222656 305.726562 228.21875 305.582031 C 228.359375 305.589844 228.496094 305.617188 228.644531 305.617188 C 230.710938 305.617188 232.785156 304.875 234.410156 303.390625 C 234.527344 303.316406 234.644531 303.21875 234.746094 303.117188 C 237.113281 300.71875 237.757812 297.273438 236.734375 294.285156 C 238.449219 294.011719 240.097656 293.234375 241.421875 291.917969 C 243.03125 290.316406 243.917969 288.167969 243.917969 285.871094 C 243.917969 283.574219 243.035156 281.433594 241.421875 279.824219 L 240.652344 279.0625 L 249.335938 274.703125 L 255.535156 274.703125 C 256.773438 274.703125 257.773438 273.703125 257.773438 272.472656 C 257.773438 271.238281 256.773438 270.234375 255.535156 270.234375 Z M 161.429688 288.261719 C 161.429688 287.367188 161.777344 286.519531 162.414062 285.890625 L 168.105469 280.226562 C 168.738281 279.589844 169.582031 279.246094 170.476562 279.246094 C 170.476562 279.246094 170.476562 279.246094 170.480469 279.246094 C 171.378906 279.246094 172.226562 279.589844 172.859375 280.226562 C 174.167969 281.527344 174.167969 283.660156 172.859375 284.964844 L 171.992188 285.824219 C 171.949219 285.871094 171.890625 285.902344 171.84375 285.949219 C 171.820312 285.964844 171.796875 285.976562 171.777344 286 L 167.058594 290.699219 C 165.742188 291.90625 163.695312 291.902344 162.417969 290.621094 C 161.777344 289.996094 161.429688 289.15625 161.429688 288.261719 Z M 167.015625 301.789062 C 166.382812 301.15625 166.03125 300.324219 166.03125 299.429688 C 166.03125 298.527344 166.382812 297.6875 167.015625 297.058594 L 170.125 293.960938 C 170.195312 293.898438 170.277344 293.851562 170.34375 293.789062 L 175.066406 289.082031 C 175.6875 288.515625 176.472656 288.179688 177.328125 288.179688 C 178.226562 288.179688 179.074219 288.53125 179.707031 289.164062 C 180.992188 290.445312 181 292.523438 179.75 293.832031 C 179.710938 293.863281 179.695312 293.90625 179.664062 293.945312 L 171.773438 301.796875 C 170.503906 303.058594 168.289062 303.058594 167.015625 301.789062 Z M 174.992188 309.691406 C 173.679688 308.382812 173.679688 306.257812 174.992188 304.949219 L 182.921875 297.054688 C 183.574219 296.398438 184.4375 296.070312 185.296875 296.070312 C 186.160156 296.070312 187.019531 296.394531 187.671875 297.054688 C 188.3125 297.6875 188.660156 298.523438 188.660156 299.421875 C 188.660156 300.28125 188.324219 301.078125 187.738281 301.699219 C 187.683594 301.75 187.636719 301.796875 187.589844 301.859375 L 182.761719 306.667969 C 182.722656 306.703125 182.703125 306.746094 182.667969 306.78125 L 179.75 309.6875 C 178.480469 310.957031 176.261719 310.957031 174.992188 309.691406 Z M 190.683594 314.574219 C 189.363281 315.878906 187.234375 315.871094 185.929688 314.574219 C 184.628906 313.285156 184.625 311.207031 185.886719 309.890625 L 190.84375 304.953125 C 190.878906 304.921875 190.898438 304.886719 190.925781 304.855469 L 191.613281 304.171875 C 192.265625 303.519531 193.128906 303.1875 193.988281 303.1875 C 194.847656 303.1875 195.710938 303.515625 196.367188 304.171875 C 197.003906 304.804688 197.351562 305.644531 197.351562 306.542969 C 197.351562 307.433594 197.003906 308.273438 196.367188 308.90625 L 195.65625 309.613281 C 195.640625 309.628906 195.621094 309.632812 195.601562 309.644531 C 195.585938 309.664062 195.578125 309.683594 195.566406 309.699219 Z M 238.25 288.753906 C 236.644531 290.339844 234.050781 290.339844 232.449219 288.753906 L 227.96875 284.285156 C 227.089844 283.414062 225.667969 283.414062 224.796875 284.285156 C 223.917969 285.15625 223.917969 286.570312 224.796875 287.441406 L 231.570312 294.1875 C 233.085938 295.699219 233.144531 298.148438 231.742188 299.769531 C 231.664062 299.828125 231.589844 299.894531 231.523438 299.960938 C 229.933594 301.542969 227.351562 301.542969 225.769531 299.960938 L 218.996094 293.222656 C 218.125 292.347656 216.699219 292.347656 215.824219 293.222656 C 214.953125 294.089844 214.953125 295.503906 215.824219 296.375 L 222.597656 303.121094 C 223.351562 303.871094 223.78125 304.921875 223.78125 306.003906 C 223.78125 307.097656 223.351562 308.148438 222.613281 308.882812 C 221 310.460938 218.378906 310.46875 216.796875 308.894531 L 213.835938 305.949219 L 207.785156 299.921875 C 206.910156 299.046875 205.488281 299.046875 204.613281 299.921875 C 203.738281 300.789062 203.738281 302.203125 204.613281 303.078125 L 210.671875 309.105469 C 211.4375 309.875 211.867188 310.898438 211.867188 311.992188 C 211.867188 313.089844 211.4375 314.113281 210.660156 314.886719 L 210.21875 315.328125 C 208.621094 316.921875 206.019531 316.921875 204.433594 315.335938 L 200.277344 311.167969 C 201.273438 309.832031 201.835938 308.234375 201.835938 306.539062 C 201.835938 304.449219 201.023438 302.488281 199.539062 301.007812 C 197.777344 299.257812 195.382812 298.546875 193.085938 298.8125 C 192.9375 296.957031 192.183594 295.226562 190.84375 293.890625 C 189.28125 292.335938 187.210938 291.589844 185.15625 291.621094 C 185.183594 289.59375 184.429688 287.550781 182.875 286 C 181.574219 284.703125 179.914062 283.988281 178.210938 283.804688 C 178.578125 281.421875 177.867188 278.902344 176.03125 277.066406 C 174.542969 275.589844 172.570312 274.777344 170.480469 274.777344 C 170.476562 274.777344 170.476562 274.777344 170.476562 274.777344 C 168.648438 274.777344 166.941406 275.425781 165.546875 276.5625 L 159.558594 270.597656 L 173.898438 239.21875 L 191.109375 242.078125 C 195.160156 242.753906 198.851562 244.503906 201.980469 247.085938 L 195.171875 250.105469 C 190.972656 251.9375 188.261719 256.085938 188.261719 260.671875 L 188.261719 272.914062 C 188.261719 275.417969 189.3125 277.753906 191.148438 279.339844 C 192.640625 280.636719 194.492188 281.316406 196.460938 281.316406 C 196.859375 281.316406 197.257812 281.296875 197.664062 281.234375 C 201.644531 280.683594 204.128906 278.664062 206.046875 276.765625 C 208.511719 274.308594 210.113281 271.074219 210.558594 267.648438 C 210.785156 265.917969 213.214844 263.789062 217.003906 261.804688 L 238.257812 282.972656 C 239.238281 283.945312 239.441406 285.082031 239.441406 285.859375 C 239.441406 286.632812 239.226562 287.78125 238.25 288.753906 Z M 237.316406 275.730469 L 219 257.488281 C 218.988281 257.476562 218.964844 257.472656 218.949219 257.457031 C 218.832031 257.34375 218.6875 257.273438 218.546875 257.191406 C 218.433594 257.125 218.332031 257.039062 218.214844 256.992188 C 218.101562 256.949219 217.96875 256.945312 217.84375 256.921875 C 217.683594 256.890625 217.53125 256.847656 217.371094 256.851562 C 217.265625 256.851562 217.164062 256.894531 217.058594 256.910156 C 216.875 256.941406 216.691406 256.964844 216.519531 257.039062 C 216.5 257.046875 216.484375 257.042969 216.464844 257.050781 C 210.074219 260.039062 206.597656 263.417969 206.113281 267.085938 C 205.792969 269.539062 204.648438 271.855469 202.875 273.617188 C 201.191406 275.289062 199.558594 276.476562 197.039062 276.828125 C 195.964844 276.988281 194.894531 276.675781 194.09375 275.988281 C 193.230469 275.238281 192.746094 274.125 192.746094 272.917969 L 192.746094 260.671875 C 192.746094 257.855469 194.402344 255.3125 196.984375 254.183594 L 229.816406 239.636719 L 245.796875 271.472656 Z M 237.316406 275.730469 " fill-opacity="1" fill-rule="nonzero"/></g></svg>